<svg width="315" height="180" viewBox="0 0 315 180" fill="none" xmlns="http://www.w3.org/2000/svg">
<g clip-path="url(#clip0_7_90)">
<mask id="mask0_7_90" style="mask-type:luminance" maskUnits="userSpaceOnUse" x="31" y="14" width="252" height="123">
<path d="M283 14H31V137H283V14Z" fill="white"/>
</mask>
<g mask="url(#mask0_7_90)">
<path d="M108.835 52.4234H124.828V57.6161H117.22V94.1012H108.835V52.4234ZM134.31 78.455L135.748 57.6161H136.229L137.666 78.455H134.31ZM125.024 94.1012H133.235L134.011 83.0325H137.965L138.744 94.1012H146.951L142.579 52.4234H129.397L125.024 94.1012ZM158.96 79.5141V87.3711C158.96 88.4303 159.785 88.7377 160.266 88.7377C161.057 88.7377 161.607 88.0886 161.607 87.3711V77.6697C161.607 76.3713 161.366 74.9366 158.238 74.9366H154.834V70.3591H158.376C160.748 70.3591 161.607 69.8124 161.607 67.2501V58.9826C161.607 58.2651 161.057 57.6161 160.266 57.6161C159.785 57.6161 158.96 57.8892 158.96 58.9826V65.7808H150.571V59.871C150.571 56.967 150.915 52.4234 156.794 52.4234H163.738C169.618 52.4234 169.996 56.967 169.996 59.871V66.5322C169.996 71.0759 166.798 72.3058 164.289 72.2031V72.6132C169.927 72.4766 169.996 76.7806 169.996 78.2499V86.654C169.996 89.5918 169.618 94.1012 163.738 94.1012H156.794C150.915 94.1012 150.571 89.5914 150.571 86.6536V79.5141H158.96ZM175.497 52.4234H194.92V94.1012H186.532V57.6161H183.885V94.1012H175.497V52.4234ZM208.81 75.3463V57.6164H209.91C210.804 57.6164 211.457 58.3674 211.457 59.7001V73.2623C211.457 74.595 210.804 75.346 209.91 75.346L208.81 75.3463ZM200.421 94.1012H208.81V79.9239H213.623C219.468 79.9239 219.846 75.4145 219.846 72.4763V59.871C219.846 56.967 219.468 52.4234 213.623 52.4234H200.421V94.1012ZM236.383 87.3711C236.383 88.0886 235.832 88.7377 235.041 88.7377C234.56 88.7377 233.735 88.4303 233.735 87.3711V58.9826C233.735 57.8892 234.56 57.6161 235.041 57.6161C235.832 57.6161 236.383 58.2651 236.383 58.9826V87.3711ZM225.347 86.654C225.347 89.5918 225.724 94.1012 231.569 94.1012H238.548C244.392 94.1012 244.771 89.5914 244.771 86.6536V59.871C244.771 56.967 244.393 52.4234 238.548 52.4234H231.569C225.724 52.4234 225.347 56.967 225.347 59.871V86.654ZM272.068 52.4234H283V94.1012H274.612V67.9672H274.302L269.971 94.1012H263.266L258.969 67.9672H258.66V94.1012H250.271V52.4234H261.169L266.636 81.7344L272.068 52.4234ZM97.9642 37.0507C95.3963 25.8796 88.9603 16.7927 88.0732 15.3234C86.6706 17.4071 81.5378 25.4357 78.9286 34.3176C76.0783 44.2586 75.659 53.0724 76.6426 61.7154C77.6189 70.3926 81.3074 79.3091 81.3074 79.3091C83.2673 83.9551 86.203 88.9766 88.1148 91.4365C90.9164 87.8155 97.3558 77.0199 99.3635 62.9453C100.481 55.088 100.529 48.2217 97.9642 37.0507ZM88.0732 88.6353C86.8118 86.2781 84.8519 81.8025 84.6663 74.8335C84.6181 68.138 87.3238 62.3644 88.1148 61.169C88.8195 62.3648 91.1502 67.3863 91.4288 74.253C91.6177 80.9488 89.3763 86.2435 88.0732 88.6353ZM97.2184 56.0102C97.122 60.2807 96.6097 64.7901 95.9565 67.489C96.1902 62.843 95.6301 56.318 94.5572 51.1937C93.4846 46.1034 90.4489 37.5631 88.0254 33.6343C85.7874 37.3923 83.0299 44.7711 81.586 51.1595C80.1352 57.5476 80.0941 65.3026 80.0941 67.6256C79.7088 65.6781 78.7462 58.6752 79.0178 51.672C79.245 45.8987 80.6061 39.9204 81.3523 37.1873C84.1988 28.0661 87.4201 22.2243 88.0251 21.3018C88.6305 22.2243 92.687 29.4326 94.791 36.9822C96.8849 44.5321 97.3077 51.7739 97.2184 56.0102Z" fill="#0079C2"/>
<path d="M92.4291 94.0327H72.9052V107.049C72.9226 107.049 72.9363 107.014 72.9533 107.014C77.5533 102.437 85.0138 102.437 89.6171 107.014C94.2171 111.558 94.2171 118.971 89.6171 123.549C89.5964 123.583 89.5757 123.583 89.5552 123.617C89.5312 123.617 89.5071 123.651 89.4863 123.685C84.8967 128.195 78.9011 130.449 72.9052 130.449C66.8822 130.449 60.8588 128.195 56.2659 123.617C48.1659 115.589 47.2067 103.12 53.3812 94.0327C54.2289 92.7826 55.1948 91.6158 56.2659 90.5482C60.8588 85.9707 66.8822 83.7158 72.9052 83.7158V52.4234C49.7612 52.4234 31.0004 71.0416 31.0004 94.0327C31.0004 117.024 49.7612 135.676 72.9052 135.676C84.9723 135.676 95.8432 130.586 103.489 122.49V94.0327H92.4291ZM283 106.278H108.835V135.676H283V106.278ZM267.94 126.801H270.15V122.363H267.94V126.801ZM267.94 119.035H271.283L273.522 120.145L274.075 121.254L274.627 123.473V124.582C274.569 132.53 269.423 129.621 264.015 130.129V111.824H267.94V119.035ZM238.895 111.824V115.153H236.104V130.129H231.656V115.153H228.864V111.824H238.895ZM198.162 125.137H198.715L199.819 124.582V116.817H198.162V125.137ZM193.685 116.817H191.998V124.582L193.132 125.137H193.685V116.817ZM198.162 111.824V113.488H200.954L202.611 114.598L203.744 115.707L204.297 117.926V124.028L203.744 126.247L202.611 127.356L200.954 128.465H198.162V130.129H193.685V128.465H190.894L189.207 127.356L188.102 126.247L187.55 124.028V117.926L188.102 115.707L189.207 114.598L190.894 113.488H193.685V111.824H198.162ZM161.867 111.824V115.153H158.517V119.035H161.867V122.363H158.517V126.801H162.424V130.129H154.051V111.824H161.867ZM121.674 119.035H123.907V111.824H127.815V130.129H123.907V122.363H121.674V130.129H117.209V111.824H121.674V119.035Z" fill="#0079C2"/>
</g>
</g>
<defs>
<clipPath id="clip0_7_90">
<rect width="252" height="123" fill="white" transform="translate(31 14)"/>
</clipPath>
</defs>
</svg>
