<svg width="455" height="180" viewBox="0 0 455 180" fill="none" xmlns="http://www.w3.org/2000/svg">
<g clip-path="url(#clip0_7_91)">
<mask id="mask0_7_91" style="mask-type:luminance" maskUnits="userSpaceOnUse" x="30" y="37" width="395" height="107">
<path d="M425 37H30V144H425V37Z" fill="white"/>
</mask>
<g mask="url(#mask0_7_91)">
<path d="M183.348 58.3491C185.723 58.3491 190.676 58.485 193.731 61.1333C195.359 62.4904 196.919 65.0007 196.919 69.1419C196.919 71.7902 196.24 74.6402 193.864 77.1505C192.032 79.0512 189.455 80.4783 186.808 81.02V81.1558C189.455 81.4277 191.491 82.6489 192.78 83.94C194.34 85.5669 195.087 87.5356 195.087 89.912C195.087 94.1212 192.983 98.94 188.368 102.13C183.282 105.592 177.379 105.863 174.122 105.863H158.449L168.083 58.3491H183.348ZM169.575 98.3963H174.935C176.36 98.3963 179.754 98.2605 182.263 96.1559C183.891 94.7329 184.91 92.4923 184.91 90.1159C184.91 88.3511 184.231 86.994 182.807 86.1106C181.246 85.2292 179.482 85.0932 177.65 85.0932H172.29L169.575 98.3963ZM173.85 77.6262H178.531C181.448 77.6262 183.552 76.7448 184.978 75.4537C186.538 74.0966 187.216 72.2638 187.216 70.567C187.216 68.1926 185.859 67.2411 185.248 66.7654C183.959 66.02 181.856 65.8161 180.499 65.8161H176.224L173.85 77.6262Z" fill="#939598"/>
<path d="M214.288 70.7029L211.641 84.0081H226.433L229.078 70.7029H238.306L231.181 105.863H221.954L225.008 90.7955H210.216L207.164 105.863H197.936L205.06 70.7029H214.288Z" fill="#939598"/>
<path d="M251.377 66L254.227 85.8208L254.836 92.5403H255.108L269.227 66H279L256.127 105.436C254.498 108.288 252.19 112.021 248.932 114.194C246.283 115.823 243.569 116.228 240.516 116.228C238.003 116.228 236.102 115.957 234 115.211L236.034 108.356C237.053 108.829 238.207 109.101 239.496 109.101C241.057 109.101 242.618 108.967 243.773 108.22C244.587 107.744 245.946 106.251 246.692 105.166L247.912 103.129L241.6 66H251.377Z" fill="#939598"/>
<path d="M294.35 54.9554L288.175 85.2971H288.447L302.016 70.7029H313.008L296.454 87.1299L306.427 105.863H295.842L287.973 88.0113H287.634L283.97 105.863H274.742L285.122 54.9554H294.35Z" fill="#939598"/>
<path d="M315.383 75.7255C320.473 70.8388 326.579 70.1613 330.718 70.1613C333.907 70.1613 338.384 70.7029 341.844 74.3005C343.608 76.0653 345.712 79.5269 345.712 85.0932C345.712 91.5409 343.336 96.5636 339.876 100.161C335.195 104.98 329.563 106.407 323.796 106.407C320.539 106.407 316.47 105.999 313.01 102.809C310.023 100.025 308.734 96.4277 308.734 92.0846C308.734 85.501 311.515 79.5269 315.383 75.7255ZM321.49 81.5636C319.319 84.7535 318.37 88.487 318.37 91.8128C318.37 92.6962 318.438 95.6822 319.862 97.447C320.675 98.5323 322.1 99.7534 324.815 99.7534C328.547 99.7534 332.279 97.447 334.518 92.2884C335.671 89.6402 336.078 86.994 336.078 84.7535C336.078 82.8528 335.807 80.8161 334.518 79.1193C333.295 77.5583 331.667 76.8128 329.699 76.8128C327.054 76.8128 324.135 77.7622 321.49 81.5636Z" fill="#939598"/>
<path d="M371.222 70.7029C375.769 70.7029 377.669 71.7222 378.55 72.3318C380.993 74.0287 381.265 76.4731 381.265 77.7622C381.265 80.1386 380.45 82.3771 378.889 84.0081C377.465 85.4331 374.954 86.6542 372.988 87.1979L372.92 87.4018C375.293 87.6035 377.329 88.6909 378.346 89.9801C379.161 91.0673 379.501 92.5604 379.501 93.9854C379.501 97.2432 377.87 100.841 374.684 103.011C372.309 104.71 368.78 105.863 364.165 105.863H346.391L353.515 70.7029H371.222ZM356.84 99.7535H363.964C365.93 99.7535 367.22 99.076 367.965 98.3285C368.984 97.4471 369.865 96.1559 369.865 94.0533C369.865 93.5776 369.797 92.2885 368.712 91.4051C367.628 90.5237 365.997 90.5237 364.573 90.5237H358.739L356.84 99.7535ZM359.96 84.4138H365.66C367.22 84.4138 368.509 84.4138 369.797 83.5324C371.154 82.6489 371.765 81.1559 371.765 79.7988C371.765 78.5097 371.154 77.8301 370.68 77.4904C369.865 76.8808 368.712 76.8128 367.696 76.8128H361.52L359.96 84.4138Z" fill="#939598"/>
<path d="M390.357 75.7255C395.445 70.8388 401.55 70.1613 405.69 70.1613C408.878 70.1613 413.355 70.7029 416.818 74.3005C418.58 76.0653 420.683 79.5269 420.683 85.0932C420.683 91.5409 418.31 96.5636 414.848 100.161C410.167 104.98 404.537 106.407 398.77 106.407C395.513 106.407 391.442 105.999 387.981 102.809C384.997 100.025 383.708 96.4277 383.708 92.0846C383.708 85.501 386.489 79.5269 390.357 75.7255ZM396.462 81.5636C394.29 84.7535 393.341 88.487 393.341 91.8128C393.341 92.6962 393.409 95.6822 394.834 97.447C395.649 98.5323 397.073 99.7534 399.786 99.7534C403.518 99.7534 407.25 97.447 409.488 92.2884C410.642 89.6402 411.05 86.994 411.05 84.7535C411.05 82.8528 410.778 80.8161 409.488 79.1193C408.267 77.5583 406.639 76.8128 404.673 76.8128C402.026 76.8128 399.107 77.7622 396.462 81.5636Z" fill="#939598"/>
<path d="M260.407 122.13L258.468 116.421L258.101 115.281H258.068L258.091 116.512V122.13H256.471V114.138H259.209L260.806 118.785L261.16 120.2H261.193L261.547 118.785L263.145 114.138H265.884V122.13H264.264V116.512L264.287 115.281H264.252L263.888 116.421L261.947 122.13H260.407Z" fill="#5C689F"/>
<path d="M271.839 114.138V115.554H268.692V117.358H271.555V118.67H268.692V120.713H271.839V122.13H267.072V114.138H271.839Z" fill="#5C689F"/>
<path d="M278.389 114.138V117.552H278.424L281.104 114.138H283.033L279.929 117.758L283.08 122.13H281.026L278.424 118.155H278.389V122.13H276.769V118.155H276.736L274.134 122.13H272.08L275.229 117.758L272.125 114.138H274.054L276.736 117.552H276.769V114.138H278.389Z" fill="#5C689F"/>
<path d="M283.891 120.713C284.7 119.344 284.861 118.155 284.861 116.695V114.138H290.062V120.713H290.976V123.806H289.379V122.13H284.575V123.806H282.977V120.713H283.891ZM286.401 115.554V116.695C286.401 118.271 286.31 119.424 285.579 120.713H288.442V115.554H286.401Z" fill="#5C689F"/>
<path d="M292.722 114.138L294.307 117.54L294.651 118.384H294.684L295.027 117.527L296.544 114.138H298.142L294.947 120.942C294.502 121.889 293.897 122.22 293.053 122.22C292.677 122.22 292.265 122.152 291.843 121.969L292.026 120.758C292.255 120.874 292.448 120.929 292.712 120.929C293.018 120.929 293.383 120.919 293.611 120.394L293.84 119.856L290.908 114.138H292.722Z" fill="#5C689F"/>
<path d="M300.151 114.138V117.358H303.391V114.138H305.011V122.13H303.391V118.67H300.151V122.13H298.531V114.138H300.151Z" fill="#5C689F"/>
<path d="M310.601 114.138L313.773 122.13H311.95L311.274 120.326H307.979L307.304 122.13H305.571L308.753 114.138H310.601ZM310.795 119.012L309.622 115.748H309.599L308.491 119.012H310.795Z" fill="#5C689F"/>
<path d="M316.696 114.138C319.595 114.138 319.765 116.135 319.765 116.638C319.765 117.688 319.035 119.127 316.993 119.127H315.953V122.13H314.333V114.138H316.696ZM316.696 117.871C317.676 117.871 318.053 117.198 318.053 116.592C318.053 115.931 317.631 115.394 316.696 115.394H315.953V117.871H316.696Z" fill="#5C689F"/>
<path d="M327.74 118.135C327.74 121.032 325.801 122.22 323.827 122.22C321.853 122.22 319.914 121.032 319.914 118.135C319.914 115.235 321.853 114.047 323.827 114.047C325.801 114.047 327.74 115.235 327.74 118.135ZM321.624 118.135C321.624 120.839 323.221 121.078 323.827 121.078C324.432 121.078 326.029 120.839 326.029 118.135C326.029 115.429 324.432 115.188 323.827 115.188C323.221 115.188 321.624 115.429 321.624 118.135Z" fill="#5C689F"/>
<path d="M328.518 120.713C329.327 119.344 329.487 118.155 329.487 116.695V114.138H334.691V120.713H335.603V123.806H334.006V122.13H329.201V123.806H327.604V120.713H328.518ZM331.027 115.554V116.695C331.027 118.271 330.936 119.424 330.206 120.713H333.071V115.554H331.027Z" fill="#5C689F"/>
<path d="M337.84 114.138V117.358H341.08V114.138H342.7V122.13H341.08V118.67H337.84V122.13H336.218V114.138H337.84Z" fill="#5C689F"/>
<path d="M345.508 117.13H346.626C349.376 117.13 349.569 119.047 349.569 119.55C349.569 120.781 348.873 122.13 346.58 122.13H343.888V114.138H345.508V117.13ZM345.508 120.874H346.58C347.344 120.874 347.916 120.404 347.916 119.63C347.916 119.115 347.663 118.384 346.455 118.384H345.508V120.874ZM352.332 114.138V122.13H350.71V114.138H352.332Z" fill="#5C689F"/>
<path d="M355.137 114.138V118.248L355.104 120.188H355.137L355.709 119.024L358.503 114.138H360.444V122.13H358.824V118.007L358.857 116.08H358.824L358.276 117.288L355.456 122.13H353.517V114.138H355.137ZM359.007 112.243C358.538 113.396 357.568 113.58 356.895 113.58C356.222 113.58 355.253 113.396 354.785 112.243L355.617 111.798C355.903 112.507 356.621 112.54 356.895 112.54C357.169 112.54 357.887 112.507 358.173 111.798L359.007 112.243Z" fill="#5C689F"/>
<path d="M368.282 114.138L371.454 122.13H369.628L368.955 120.326H365.658L364.985 122.13H363.252L366.434 114.138H368.282ZM368.476 119.012L367.302 115.748H367.278L366.172 119.012H368.476Z" fill="#5C689F"/>
<path d="M372.436 117.358H375.791C375.666 116.582 375.141 115.361 373.132 115.361C372.562 115.361 371.969 115.462 371.409 115.668L371.283 114.389C371.901 114.185 372.632 114.047 373.486 114.047C375.882 114.047 377.502 115.53 377.502 118.007C377.502 120.555 375.962 122.22 373.247 122.22C372.551 122.22 371.854 122.105 371.113 121.844L371.306 120.497C372.152 120.861 372.883 120.907 373.303 120.907C374.947 120.907 375.769 119.902 375.791 118.67H372.436V117.358Z" fill="#5C689F"/>
<path d="M380.767 114.138C383.665 114.138 383.836 116.135 383.836 116.638C383.836 117.688 383.105 119.127 381.063 119.127H380.023V122.13H378.404V114.138H380.767ZM380.767 117.871C381.748 117.871 382.125 117.198 382.125 116.592C382.125 115.931 381.703 115.394 380.767 115.394H380.023V117.871H380.767Z" fill="#5C689F"/>
<path d="M391.812 118.135C391.812 121.032 389.871 122.22 387.899 122.22C385.925 122.22 383.984 121.032 383.984 118.135C383.984 115.235 385.925 114.047 387.899 114.047C389.871 114.047 391.812 115.235 391.812 118.135ZM385.697 118.135C385.697 120.839 387.294 121.078 387.899 121.078C388.502 121.078 390.099 120.839 390.099 118.135C390.099 115.429 388.502 115.188 387.899 115.188C387.294 115.188 385.697 115.429 385.697 118.135Z" fill="#5C689F"/>
<path d="M399.113 114.138V122.13H397.493V115.451H394.334V122.13H392.714V114.138H399.113Z" fill="#5C689F"/>
<path d="M407.843 118.135C407.843 121.032 405.904 122.22 403.93 122.22C401.956 122.22 400.017 121.032 400.017 118.135C400.017 115.235 401.956 114.047 403.93 114.047C405.904 114.047 407.843 115.235 407.843 118.135ZM401.727 118.135C401.727 120.839 403.325 121.078 403.93 121.078C404.535 121.078 406.13 120.839 406.13 118.135C406.13 115.429 404.535 115.188 403.93 115.188C403.325 115.188 401.727 115.429 401.727 118.135Z" fill="#5C689F"/>
<path d="M411.108 114.138C414.006 114.138 414.177 116.135 414.177 116.638C414.177 117.688 413.446 119.127 411.404 119.127H410.365V122.13H408.745V114.138H411.108ZM411.108 117.871C412.087 117.871 412.464 117.198 412.464 116.592C412.464 115.931 412.042 115.394 411.108 115.394H410.365V117.871H411.108Z" fill="#5C689F"/>
<path d="M420.327 114.138V115.554H418.022V122.13H416.402V115.554H414.096V114.138H420.327Z" fill="#5C689F"/>
<path d="M89.2248 63.0547C90.4022 62.6634 96.9788 61.2898 103.002 62.13C101.686 63.7528 100.332 65.2745 98.9611 66.681C95.4947 66.193 90.9353 66.0035 86.3883 67.1423C85.5814 67.2123 85.1347 68.5715 86.4994 68.3099C87.4998 68.1163 92.1971 67.7478 97.092 68.5221C95.5935 69.9471 94.097 71.2507 92.6397 72.4286C89.8732 71.714 86.6662 71.2177 83.3356 71.3824C82.5308 71.2939 81.8289 72.5397 83.2183 72.548C84.0293 72.5541 87.1602 72.9043 90.748 73.9092C84.0828 78.9586 78.6857 81.3309 78.6857 81.3309C78.6857 81.3309 104.202 105.513 106.573 107.974C106.701 108.106 106.623 108.203 106.516 108.199C105.9 108.166 104.377 108.024 103.63 107.426C102.751 106.722 88.6114 94.0698 77.7203 88.8865C66.8292 83.7032 58.9249 84.3169 54.2708 84.6691C49.6147 85.0212 41.8874 87.3935 40.4815 87.5686C39.407 87.7025 38.069 87.2926 37.5071 87.1381C37.4 87.1073 37.3938 86.9941 37.5379 86.9487C39.1641 86.4195 47.0931 83.9339 55.8517 80.0995C65.6868 75.7955 67.7946 70.4351 67.8831 69.0286C67.9716 67.6242 67.0927 67.3606 66.6542 67.7993C66.2137 68.2379 64.9849 68.6786 63.6675 69.1172C62.3501 69.5559 61.7346 69.7329 59.7153 71.578C59.2769 71.4895 57.9595 69.8195 57.9595 69.4693C59.0998 67.097 62.9655 61.5616 62.9655 61.5616C62.9655 61.5616 61.9116 59.2758 61.9981 59.1008C62.0866 58.9257 63.1405 59.4529 64.8099 60.5938C67.2676 60.0666 71.6603 59.7165 74.7335 63.5818C77.8088 67.4471 76.3144 72.6325 75.4354 74.6526C74.9394 75.7975 74.47 76.6728 74.997 76.9363C81.409 73.1596 79.8281 61.298 79.8281 61.298C84.1178 58.2338 93.5536 54.906 107.965 54.7968C108.012 54.7968 108.088 54.8277 108.031 54.9245C106.981 56.6996 105.855 58.3758 104.681 59.9636C101.168 59.6485 94.8895 59.5641 88.9613 61.9117C88.1709 62.0888 87.9074 63.4932 89.2248 63.0547ZM122.744 68.5015V93.8062C122.744 101.969 116.248 111.156 105.774 117.785C94.871 124.681 80.5506 125.219 76.4173 125.219C72.2943 125.219 57.9862 124.681 47.0849 117.785C36.5561 111.123 30 101.934 30 93.8062V68.5015C30 60.3755 36.5519 51.1869 47.0807 44.525C57.9842 37.6284 72.2943 37.0909 76.4173 37.0909C80.5506 37.0909 94.8751 37.6284 105.779 44.525C116.252 51.1539 122.744 60.3405 122.744 68.5015ZM116.948 68.5015C116.948 62.4039 111.353 54.9163 102.674 49.4262C92.8435 43.205 79.0788 42.8899 76.4173 42.8899C73.7619 42.8899 60.0158 43.205 50.1828 49.4262C41.453 54.9492 35.7965 62.4389 35.7965 68.5015V93.8062C35.7965 99.8708 41.4489 107.358 50.1807 112.884C60.0117 119.105 73.7619 119.42 76.4173 119.42C79.0788 119.42 92.8476 119.105 102.679 112.884C111.357 107.393 116.948 99.9058 116.948 93.8062V68.5015Z" fill="#5C689F"/>
</g>
</g>
<defs>
<clipPath id="clip0_7_91">
<rect width="395" height="107" fill="white" transform="translate(30 37)"/>
</clipPath>
</defs>
</svg>
