<svg width="21" height="21" xmlns="http://www.w3.org/2000/svg" xmlns:xlink="http://www.w3.org/1999/xlink" xml:space="preserve" overflow="hidden"><g transform="translate(-619 -138)"><path d="M632.282 156.704C635.807 155.508 638.174 152.195 638.162 148.473 638.155 146.176 637.236 143.975 635.606 142.356L635.517 142.446C637.123 144.042 638.029 146.21 638.036 148.474 638.047 152.141 635.714 155.406 632.241 156.584L632.282 156.704Z" stroke="#3C415E" stroke-width="0.0437325" stroke-linecap="round" stroke-linejoin="round" stroke-miterlimit="1.5" fill="#3C415E" fill-rule="evenodd"/><path d="M636.953 146.005C635.881 142.803 632.883 140.644 629.507 140.641 627.422 140.639 625.422 141.465 623.947 142.938L624.029 143.019C625.482 141.568 627.453 140.754 629.507 140.756 632.834 140.759 635.787 142.886 636.844 146.041L636.953 146.005Z" stroke="#3C415E" stroke-width="0.0437325" stroke-linecap="round" stroke-linejoin="round" stroke-miterlimit="1.5" fill="#3C415E" fill-rule="evenodd"/><path d="M623.466 143.464C621.302 146.056 621.037 149.741 622.806 152.617 623.898 154.393 625.65 155.662 627.678 156.145L627.704 156.033C625.706 155.557 623.98 154.307 622.904 152.557 621.16 149.723 621.422 146.092 623.554 143.538L623.466 143.464Z" stroke="#3C415E" stroke-width="0.0437325" stroke-linecap="round" stroke-linejoin="round" stroke-miterlimit="1.5" fill="#3C415E" fill-rule="evenodd"/><path d="M628.25 156.259C631.475 156.779 634.686 155.249 636.314 152.417 637.353 150.61 637.631 148.464 637.088 146.452L636.977 146.482C637.512 148.464 637.238 150.579 636.214 152.359 634.61 155.15 631.446 156.658 628.268 156.146L628.25 156.259Z" stroke="#3C415E" stroke-width="0.0437325" stroke-linecap="round" stroke-linejoin="round" stroke-miterlimit="1.5" fill="#3C415E" fill-rule="evenodd"/><path d="M627.263 141.73C624.354 142.691 622.384 145.403 622.37 148.466 622.361 150.357 623.103 152.174 624.434 153.518L624.508 153.445C623.197 152.121 622.465 150.33 622.474 148.467 622.488 145.448 624.429 142.776 627.295 141.829L627.263 141.73Z" stroke="#3C415E" stroke-width="0.0437325" stroke-linecap="round" stroke-linejoin="round" stroke-miterlimit="1.5" fill="#3C415E" fill-rule="evenodd"/><path d="M623.349 150.506C624.211 153.148 626.665 154.945 629.444 154.969 631.16 154.984 632.811 154.317 634.035 153.114L633.968 153.046C632.763 154.232 631.135 154.889 629.445 154.874 626.706 154.851 624.289 153.08 623.439 150.476L623.349 150.506Z" stroke="#3C415E" stroke-width="0.0437325" stroke-linecap="round" stroke-linejoin="round" stroke-miterlimit="1.5" fill="#3C415E" fill-rule="evenodd"/><path d="M631.298 154.087C633.698 153.315 635.337 151.095 635.369 148.574 635.388 147.017 634.789 145.517 633.702 144.402L633.641 144.462C634.712 145.56 635.302 147.039 635.283 148.573 635.252 151.057 633.637 153.244 631.272 154.006L631.298 154.087Z" stroke="#3C415E" stroke-width="0.0437325" stroke-linecap="round" stroke-linejoin="round" stroke-miterlimit="1.5" fill="#3C415E" fill-rule="evenodd"/><path d="M634.576 146.889C633.883 144.708 631.875 143.213 629.588 143.176 628.176 143.152 626.812 143.691 625.797 144.673L625.851 144.729C626.851 143.761 628.195 143.23 629.586 143.253 631.841 143.291 633.819 144.763 634.501 146.912L634.576 146.889Z" stroke="#3C415E" stroke-width="0.0437325" stroke-linecap="round" stroke-linejoin="round" stroke-miterlimit="1.5" fill="#3C415E" fill-rule="evenodd"/><path d="M628.056 143.889C626.075 144.51 624.712 146.326 624.67 148.402 624.643 149.683 625.127 150.922 626.015 151.846L626.066 151.797C625.191 150.886 624.715 149.665 624.74 148.403 624.782 146.358 626.125 144.568 628.077 143.957L628.056 143.889Z" stroke="#3C415E" stroke-width="0.0437325" stroke-linecap="round" stroke-linejoin="round" stroke-miterlimit="1.5" fill="#3C415E" fill-rule="evenodd"/><path d="M625.521 149.729C626.049 151.439 627.61 152.62 629.399 152.663 630.503 152.69 631.573 152.277 632.372 151.515L632.33 151.471C631.542 152.222 630.488 152.629 629.4 152.602 627.638 152.56 626.099 151.396 625.579 149.711L625.521 149.729Z" stroke="#3C415E" stroke-width="0.0437325" stroke-linecap="round" stroke-linejoin="round" stroke-miterlimit="1.5" fill="#3C415E" fill-rule="evenodd"/><path d="M626.759 140.282C624.722 140.962 623.009 142.375 621.954 144.246L622.065 144.308C623.104 142.464 624.792 141.072 626.799 140.403L626.759 140.282Z" stroke="#3C415E" stroke-width="0.0437325" stroke-linecap="round" stroke-linejoin="round" stroke-miterlimit="1.5" fill="#3C415E" fill-rule="evenodd"/><path d="M623.662 154.9C625.249 156.348 627.318 157.154 629.466 157.162L629.466 157.036C627.35 157.027 625.312 156.233 623.748 154.806L623.662 154.9Z" stroke="#3C415E" stroke-width="0.0437325" stroke-linecap="round" stroke-linejoin="round" stroke-miterlimit="1.5" fill="#3C415E" fill-rule="evenodd"/><path d="M620.838 148.528C620.841 149.447 620.99 150.361 621.28 151.233L621.4 151.193C621.114 150.333 620.967 149.434 620.964 148.527L620.838 148.528Z" stroke="#3C415E" stroke-width="0.0437325" stroke-linecap="round" stroke-linejoin="round" stroke-miterlimit="1.5" fill="#3C415E" fill-rule="evenodd"/><path d="M621.557 151.956C621.924 152.8 622.423 153.579 623.035 154.265L623.129 154.181C622.526 153.505 622.035 152.737 621.673 151.906L621.557 151.956Z" stroke="#3C415E" stroke-width="0.0437325" stroke-linecap="round" stroke-linejoin="round" stroke-miterlimit="1.5" fill="#3C415E" fill-rule="evenodd"/><path d="M621.566 145.023C621.197 145.866 620.964 146.761 620.877 147.677L621.003 147.689C621.089 146.787 621.318 145.904 621.682 145.074L621.566 145.023Z" stroke="#3C415E" stroke-width="0.0437325" stroke-linecap="round" stroke-linejoin="round" stroke-miterlimit="1.5" fill="#3C415E" fill-rule="evenodd"/><path d="M630.02 139.853C629.102 139.798 628.181 139.889 627.292 140.124L627.324 140.246C628.201 140.015 629.108 139.925 630.013 139.98L630.02 139.853Z" stroke="#3C415E" stroke-width="0.0437325" stroke-linecap="round" stroke-linejoin="round" stroke-miterlimit="1.5" fill="#3C415E" fill-rule="evenodd"/><path d="M635.271 142.04C633.964 140.872 632.332 140.128 630.593 139.907L630.577 140.032C632.291 140.25 633.898 140.983 635.187 142.134L635.271 142.04Z" stroke="#3C415E" stroke-width="0.0437325" stroke-linecap="round" stroke-linejoin="round" stroke-miterlimit="1.5" fill="#3C415E" fill-rule="evenodd"/><path d="M622.482 154.309C624.978 157.324 629.121 158.408 632.773 157.001 633.151 156.856 633.519 156.685 633.874 156.491L633.81 156.374C633.46 156.566 633.098 156.734 632.725 156.877 629.126 158.263 625.044 157.195 622.585 154.224L622.482 154.309Z" stroke="#3C415E" stroke-width="0.0437325" stroke-linecap="round" stroke-linejoin="round" stroke-miterlimit="1.5" fill="#3C415E" fill-rule="evenodd"/><path d="M638.61 148.5C638.61 144.586 636.11 141.109 632.399 139.864 632.015 139.735 631.623 139.632 631.226 139.555L631.201 139.686C631.592 139.761 631.978 139.863 632.357 139.99 636.013 141.217 638.477 144.643 638.477 148.5L638.61 148.5Z" stroke="#3C415E" stroke-width="0.0437325" stroke-linecap="round" stroke-linejoin="round" stroke-miterlimit="1.5" fill="#3C415E" fill-rule="evenodd"/><path d="M629.459 152.34C629.473 152.34 629.486 152.34 629.5 152.34 629.503 152.34 629.506 152.34 629.509 152.34L629.508 152.663 629.458 152.663 629.459 152.34ZM629.642 152.338 629.652 152.661 629.602 152.662 629.593 152.339C629.609 152.339 629.626 152.338 629.642 152.338ZM629.326 152.336C629.343 152.337 629.359 152.338 629.376 152.338L629.364 152.661 629.314 152.659 629.326 152.336ZM629.775 152.331 629.796 152.653 629.747 152.656 629.726 152.334C629.742 152.333 629.759 152.332 629.775 152.331ZM629.193 152.328C629.21 152.33 629.227 152.331 629.243 152.332L629.219 152.654 629.17 152.65 629.193 152.328ZM629.908 152.319 629.94 152.64 629.891 152.645 629.858 152.324C629.875 152.322 629.891 152.321 629.908 152.319ZM629.061 152.315C629.077 152.317 629.094 152.319 629.11 152.321L629.076 152.642 629.026 152.636 629.061 152.315ZM630.04 152.303 630.083 152.622 630.034 152.629 629.991 152.309C630.007 152.307 630.024 152.305 630.04 152.303ZM628.929 152.298C628.945 152.301 628.962 152.303 628.978 152.305L628.932 152.625 628.883 152.617 628.929 152.298ZM630.172 152.282 630.226 152.6 630.177 152.608 630.122 152.29C630.139 152.287 630.155 152.285 630.172 152.282ZM628.797 152.276C628.814 152.279 628.83 152.282 628.847 152.285L628.79 152.602 628.741 152.594 628.797 152.276ZM630.302 152.256 630.368 152.572 630.319 152.582 630.254 152.266C630.27 152.263 630.286 152.26 630.302 152.256ZM628.667 152.25C628.683 152.253 628.699 152.257 628.716 152.26L628.648 152.575 628.599 152.565 628.667 152.25ZM630.432 152.226 630.508 152.539 630.46 152.551 630.384 152.238C630.4 152.234 630.416 152.23 630.432 152.226ZM628.537 152.219C628.554 152.223 628.57 152.227 628.586 152.231L628.507 152.543 628.459 152.531 628.537 152.219ZM630.561 152.192 630.648 152.502 630.6 152.516 630.513 152.205C630.529 152.201 630.545 152.196 630.561 152.192ZM628.409 152.183C628.425 152.188 628.441 152.192 628.457 152.197L628.367 152.506 628.32 152.493 628.409 152.183ZM630.688 152.153 630.786 152.46 630.738 152.475 630.641 152.168C630.656 152.163 630.672 152.158 630.688 152.153ZM628.282 152.143C628.298 152.148 628.314 152.153 628.33 152.158L628.229 152.465 628.182 152.449 628.282 152.143ZM630.814 152.109 630.922 152.413 630.875 152.43 630.767 152.126C630.783 152.121 630.798 152.115 630.814 152.109ZM628.156 152.098C628.172 152.104 628.188 152.11 628.203 152.116L628.093 152.418 628.046 152.401 628.156 152.098ZM630.938 152.062 631.057 152.361 631.011 152.38 630.892 152.08C630.907 152.074 630.923 152.068 630.938 152.062ZM628.033 152.05C628.048 152.056 628.063 152.062 628.079 152.068L627.958 152.367 627.911 152.348 628.033 152.05ZM631.061 152.009 631.19 152.305 631.144 152.325 631.015 152.029C631.03 152.023 631.046 152.016 631.061 152.009ZM627.911 151.997C627.926 152.003 627.941 152.01 627.956 152.017L627.825 152.311 627.779 152.291 627.911 151.997ZM631.182 151.953 631.321 152.244 631.276 152.266 631.137 151.975C631.152 151.968 631.167 151.96 631.182 151.953ZM627.79 151.939C627.805 151.947 627.82 151.954 627.835 151.961L627.693 152.251 627.649 152.229 627.79 151.939ZM631.3 151.893 631.45 152.179 631.405 152.202 631.256 151.916C631.271 151.908 631.286 151.9 631.3 151.893ZM627.672 151.878C627.687 151.886 627.702 151.893 627.716 151.901L627.564 152.186 627.52 152.163 627.672 151.878ZM631.417 151.828 631.576 152.109 631.533 152.133 631.373 151.853C631.388 151.845 631.402 151.836 631.417 151.828ZM627.556 151.812C627.571 151.821 627.585 151.829 627.599 151.837L627.438 152.117 627.395 152.092 627.556 151.812ZM631.531 151.759 631.7 152.035 631.657 152.061 631.488 151.786C631.502 151.777 631.517 151.768 631.531 151.759ZM627.443 151.743C627.457 151.752 627.471 151.76 627.485 151.769L627.314 152.043 627.271 152.017 627.443 151.743ZM631.642 151.687 631.821 151.956 631.779 151.984 631.601 151.715C631.615 151.705 631.629 151.696 631.642 151.687ZM627.332 151.669C627.345 151.679 627.359 151.688 627.373 151.697L627.192 151.965 627.151 151.937 627.332 151.669ZM631.752 151.611 631.939 151.874 631.899 151.903 631.711 151.64C631.725 151.63 631.738 151.62 631.752 151.611ZM627.223 151.592C627.237 151.602 627.25 151.612 627.263 151.621L627.073 151.883 627.033 151.854 627.223 151.592ZM631.858 151.531 632.055 151.787 632.015 151.818 631.818 151.561C631.832 151.551 631.845 151.541 631.858 151.531ZM627.117 151.511C627.13 151.522 627.144 151.532 627.157 151.542L626.958 151.797 626.918 151.766 627.117 151.511ZM631.961 151.447 632.167 151.697 632.129 151.728 631.923 151.479C631.936 151.468 631.949 151.458 631.961 151.447ZM627.014 151.427C627.027 151.437 627.04 151.448 627.053 151.459L626.845 151.707 626.807 151.675 627.014 151.427ZM632.062 151.36 632.277 151.602 632.239 151.635 632.025 151.393C632.037 151.382 632.05 151.371 632.062 151.36ZM626.915 151.339C626.927 151.35 626.939 151.361 626.952 151.372L626.735 151.613 626.698 151.58 626.915 151.339ZM632.16 151.269 632.382 151.504 632.346 151.538 632.124 151.304C632.136 151.292 632.148 151.281 632.16 151.269ZM626.818 151.247C626.83 151.259 626.842 151.271 626.854 151.282L626.629 151.515 626.593 151.481 626.818 151.247ZM632.254 151.175 632.485 151.402 632.45 151.438 632.219 151.211C632.231 151.199 632.243 151.187 632.254 151.175ZM626.724 151.153C626.736 151.165 626.747 151.177 626.759 151.189L626.526 151.414 626.492 151.378 626.724 151.153ZM632.345 151.078 632.584 151.297 632.55 151.334 632.311 151.115C632.323 151.103 632.334 151.091 632.345 151.078ZM626.634 151.055C626.645 151.067 626.656 151.08 626.667 151.092L626.427 151.309 626.393 151.272 626.634 151.055ZM632.433 150.978 632.679 151.189 632.646 151.227 632.4 151.016C632.411 151.004 632.422 150.991 632.433 150.978ZM626.547 150.954C626.558 150.967 626.568 150.98 626.579 150.992L626.331 151.201 626.299 151.163 626.547 150.954ZM632.517 150.875 632.77 151.077 632.739 151.116 632.486 150.914C632.496 150.901 632.507 150.888 632.517 150.875ZM626.464 150.85C626.474 150.863 626.484 150.877 626.494 150.89L626.24 151.089 626.209 151.05 626.464 150.85ZM632.598 150.769 632.857 150.962 632.828 151.002 632.568 150.809C632.578 150.796 632.588 150.782 632.598 150.769ZM626.384 150.744C626.393 150.757 626.403 150.771 626.413 150.784L626.152 150.975 626.122 150.934 626.384 150.744ZM632.675 150.66 632.941 150.844 632.912 150.885 632.646 150.701C632.656 150.688 632.665 150.674 632.675 150.66ZM626.308 150.634C626.317 150.648 626.326 150.662 626.336 150.676L626.068 150.857 626.04 150.816 626.308 150.634ZM632.748 150.549 633.02 150.723 632.993 150.765 632.721 150.591C632.73 150.577 632.739 150.563 632.748 150.549ZM626.235 150.523C626.244 150.537 626.253 150.551 626.262 150.565L625.988 150.737 625.962 150.695 626.235 150.523ZM632.817 150.435 633.095 150.6 633.069 150.643 632.792 150.478C632.8 150.464 632.809 150.45 632.817 150.435ZM626.167 150.408C626.175 150.423 626.184 150.437 626.192 150.451L625.913 150.614 625.888 150.571 626.167 150.408ZM632.882 150.319 633.166 150.474 633.142 150.518 632.858 150.363C632.866 150.349 632.874 150.334 632.882 150.319ZM626.103 150.292C626.111 150.306 626.119 150.321 626.126 150.336L625.842 150.488 625.818 150.444 626.103 150.292ZM632.943 150.201 633.232 150.346 633.209 150.39 632.921 150.246C632.929 150.231 632.936 150.216 632.943 150.201ZM626.043 150.173C626.05 150.188 626.057 150.203 626.065 150.218L625.775 150.36 625.753 150.315 626.043 150.173ZM633 150.081 633.294 150.215 633.273 150.261 632.98 150.126C632.987 150.111 632.994 150.096 633 150.081ZM625.987 150.052C625.993 150.067 626 150.083 626.007 150.098L625.713 150.23 625.692 150.184 625.987 150.052ZM633.053 149.958 633.351 150.083 633.331 150.129 633.034 150.004C633.04 149.989 633.047 149.974 633.053 149.958ZM625.935 149.929C625.941 149.945 625.947 149.96 625.954 149.976L625.655 150.098 625.636 150.051 625.935 149.929ZM633.102 149.834 633.403 149.948 633.386 149.995 633.084 149.881C633.09 149.866 633.096 149.85 633.102 149.834ZM625.887 149.805C625.893 149.821 625.899 149.836 625.905 149.852L625.602 149.963 625.585 149.916 625.887 149.805ZM633.146 149.709 633.451 149.812 633.435 149.859 633.13 149.756C633.135 149.74 633.141 149.725 633.146 149.709ZM625.844 149.679C625.849 149.695 625.855 149.711 625.86 149.726L625.554 149.827 625.538 149.78 625.844 149.679ZM633.186 149.582 633.494 149.674 633.48 149.722 633.171 149.629C633.176 149.614 633.181 149.598 633.186 149.582ZM625.806 149.552C625.81 149.568 625.815 149.584 625.819 149.599L625.51 149.69 625.496 149.642 625.806 149.552ZM633.221 149.453 633.532 149.535 633.52 149.583 633.208 149.501C633.212 149.485 633.217 149.469 633.221 149.453ZM625.771 149.423C625.775 149.439 625.779 149.455 625.784 149.471L625.471 149.551 625.459 149.502 625.771 149.423ZM633.252 149.324 633.566 149.395 633.555 149.443 633.241 149.372C633.244 149.356 633.248 149.34 633.252 149.324ZM625.742 149.293C625.745 149.309 625.749 149.326 625.752 149.342L625.437 149.41 625.427 149.362 625.742 149.293ZM633.278 149.193 633.595 149.253 633.585 149.302 633.268 149.242C633.272 149.226 633.275 149.209 633.278 149.193ZM625.717 149.162C625.719 149.179 625.722 149.195 625.725 149.211L625.408 149.269 625.399 149.22 625.717 149.162ZM633.299 149.062 633.618 149.111 633.611 149.16 633.292 149.111C633.294 149.095 633.297 149.078 633.299 149.062ZM625.696 149.031C625.698 149.047 625.701 149.063 625.703 149.08L625.384 149.127 625.377 149.077 625.696 149.031ZM633.316 148.93 633.637 148.968 633.631 149.017 633.311 148.979C633.313 148.963 633.315 148.946 633.316 148.93ZM625.68 148.898C625.682 148.915 625.684 148.932 625.685 148.948L625.365 148.984 625.359 148.934 625.68 148.898ZM633.329 148.797 633.651 148.824 633.646 148.874 633.325 148.847C633.326 148.83 633.328 148.814 633.329 148.797ZM625.669 148.766C625.67 148.782 625.671 148.799 625.672 148.816L625.35 148.84 625.347 148.79 625.669 148.766ZM633.337 148.664 633.659 148.68 633.657 148.73 633.334 148.714C633.335 148.697 633.336 148.681 633.337 148.664ZM625.662 148.633C625.662 148.649 625.663 148.666 625.664 148.683L625.341 148.696 625.339 148.646 625.662 148.633ZM633.34 148.531 633.663 148.536 633.662 148.586 633.339 148.581C633.34 148.564 633.34 148.548 633.34 148.531ZM625.66 148.472C625.66 148.481 625.66 148.491 625.66 148.5 625.66 148.507 625.66 148.514 625.66 148.522L625.337 148.521 625.337 148.472 625.66 148.472ZM633.339 148.398 633.662 148.391 633.663 148.441 633.34 148.448C633.34 148.431 633.339 148.414 633.339 148.398ZM625.663 148.339C625.662 148.355 625.662 148.372 625.661 148.389L625.338 148.377 625.34 148.327 625.663 148.339ZM633.333 148.265 633.656 148.247 633.658 148.297 633.336 148.315C633.335 148.298 633.334 148.281 633.333 148.265ZM625.671 148.206C625.669 148.222 625.668 148.239 625.667 148.256L625.345 148.233 625.349 148.183 625.671 148.206ZM633.323 148.132 633.644 148.103 633.649 148.153 633.327 148.182C633.326 148.165 633.324 148.149 633.323 148.132ZM625.683 148.073C625.681 148.09 625.68 148.106 625.678 148.123L625.357 148.089 625.362 148.039 625.683 148.073ZM633.308 148 633.628 147.96 633.634 148.009 633.314 148.049C633.312 148.033 633.31 148.016 633.308 148ZM625.7 147.941C625.698 147.958 625.695 147.974 625.693 147.991L625.374 147.946 625.381 147.896 625.7 147.941ZM633.289 147.868 633.607 147.817 633.615 147.866 633.296 147.917C633.294 147.901 633.291 147.884 633.289 147.868ZM625.722 147.81C625.719 147.826 625.716 147.842 625.713 147.859L625.395 147.803 625.404 147.754 625.722 147.81ZM633.264 147.737 633.581 147.675 633.59 147.724 633.274 147.786C633.271 147.77 633.268 147.753 633.264 147.737ZM625.748 147.679C625.744 147.695 625.741 147.712 625.737 147.728L625.422 147.661 625.432 147.612 625.748 147.679ZM633.236 147.607 633.55 147.534 633.561 147.583 633.247 147.656C633.243 147.639 633.24 147.623 633.236 147.607ZM625.778 147.549C625.774 147.566 625.77 147.582 625.766 147.598L625.453 147.52 625.466 147.472 625.778 147.549ZM633.203 147.478 633.514 147.394 633.527 147.442 633.216 147.526C633.211 147.51 633.207 147.494 633.203 147.478ZM625.814 147.421C625.809 147.437 625.804 147.453 625.8 147.469L625.49 147.381 625.504 147.333 625.814 147.421ZM633.165 147.35 633.473 147.256 633.488 147.303 633.18 147.398C633.175 147.382 633.17 147.366 633.165 147.35ZM625.853 147.294C625.848 147.31 625.843 147.326 625.838 147.341L625.531 147.242 625.547 147.195 625.853 147.294ZM633.123 147.224 633.428 147.119 633.444 147.166 633.139 147.271C633.134 147.255 633.128 147.239 633.123 147.224ZM625.897 147.168C625.891 147.184 625.886 147.199 625.88 147.215L625.577 147.105 625.594 147.058 625.897 147.168ZM633.076 147.099 633.377 146.983 633.395 147.03 633.094 147.146C633.089 147.13 633.083 147.115 633.076 147.099ZM625.946 147.044C625.939 147.06 625.933 147.075 625.927 147.09L625.628 146.97 625.646 146.924 625.946 147.044ZM633.026 146.976 633.322 146.85 633.342 146.896 633.045 147.022C633.039 147.006 633.032 146.991 633.026 146.976ZM625.998 146.922C625.991 146.937 625.985 146.952 625.978 146.967L625.683 146.837 625.703 146.791 625.998 146.922ZM632.971 146.855 633.263 146.718 633.284 146.764 632.992 146.9C632.985 146.885 632.978 146.87 632.971 146.855ZM626.055 146.801C626.048 146.816 626.041 146.831 626.033 146.846L625.743 146.706 625.765 146.661 626.055 146.801ZM632.911 146.735 633.199 146.589 633.222 146.634 632.934 146.78C632.927 146.765 632.919 146.75 632.911 146.735ZM626.116 146.683C626.109 146.698 626.101 146.713 626.093 146.727L625.808 146.576 625.831 146.532 626.116 146.683ZM632.848 146.618 633.13 146.462 633.155 146.506 632.872 146.662C632.864 146.647 632.856 146.633 632.848 146.618ZM626.182 146.567C626.173 146.581 626.165 146.596 626.157 146.61L625.877 146.45 625.901 146.406 626.182 146.567ZM632.781 146.503 633.058 146.337 633.083 146.38 632.806 146.546C632.798 146.532 632.789 146.518 632.781 146.503ZM626.251 146.453C626.242 146.467 626.233 146.481 626.224 146.496L625.95 146.325 625.976 146.283 626.251 146.453ZM632.709 146.391 632.98 146.215 633.008 146.257 632.736 146.433C632.727 146.419 632.718 146.405 632.709 146.391ZM626.324 146.342C626.314 146.356 626.305 146.37 626.296 146.383L626.027 146.203 626.055 146.162 626.324 146.342ZM632.634 146.281 632.899 146.096 632.928 146.137 632.663 146.322C632.653 146.308 632.644 146.295 632.634 146.281ZM626.401 146.233C626.391 146.247 626.381 146.26 626.371 146.274L626.109 146.084 626.138 146.044 626.401 146.233ZM632.555 146.174 632.814 145.98 632.844 146.02 632.585 146.214C632.575 146.2 632.565 146.187 632.555 146.174ZM626.481 146.127C626.471 146.14 626.461 146.153 626.451 146.167L626.195 145.968 626.225 145.929 626.481 146.127ZM632.473 146.069 632.724 145.866 632.756 145.905 632.504 146.108C632.494 146.095 632.483 146.082 632.473 146.069ZM626.565 146.024C626.555 146.037 626.544 146.05 626.533 146.062L626.285 145.855 626.317 145.817 626.565 146.024ZM632.386 145.968 632.631 145.756 632.664 145.794 632.419 146.006C632.408 145.993 632.397 145.98 632.386 145.968ZM626.653 145.924C626.642 145.936 626.631 145.949 626.62 145.961L626.378 145.745 626.411 145.708 626.653 145.924ZM632.297 145.869 632.534 145.649 632.568 145.686 632.331 145.906C632.32 145.894 632.308 145.882 632.297 145.869ZM626.744 145.827C626.732 145.839 626.721 145.851 626.709 145.863L626.476 145.639 626.51 145.603 626.744 145.827ZM632.204 145.774 632.434 145.546 632.469 145.581 632.239 145.809C632.228 145.798 632.216 145.786 632.204 145.774ZM626.838 145.733C626.826 145.744 626.814 145.756 626.803 145.768L626.577 145.536 626.612 145.501 626.838 145.733ZM632.108 145.682 632.329 145.446 632.366 145.48 632.144 145.716C632.132 145.705 632.12 145.693 632.108 145.682ZM626.936 145.642C626.923 145.653 626.911 145.664 626.899 145.676L626.681 145.436 626.718 145.403 626.936 145.642ZM632.009 145.593 632.222 145.35 632.259 145.382 632.046 145.626C632.034 145.615 632.021 145.604 632.009 145.593ZM627.036 145.555C627.024 145.566 627.011 145.576 626.998 145.587L626.789 145.34 626.827 145.308 627.036 145.555ZM631.907 145.508 632.111 145.257 632.15 145.289 631.945 145.539C631.932 145.529 631.919 145.518 631.907 145.508ZM627.14 145.471C627.127 145.481 627.114 145.492 627.101 145.502L626.9 145.248 626.939 145.217 627.14 145.471ZM631.801 145.426 631.997 145.168 632.037 145.199 631.841 145.456C631.828 145.446 631.815 145.436 631.801 145.426ZM627.246 145.391C627.233 145.401 627.219 145.411 627.206 145.421L627.014 145.16 627.055 145.13 627.246 145.391ZM631.694 145.348 631.88 145.084 631.921 145.113 631.734 145.377C631.721 145.367 631.707 145.358 631.694 145.348ZM627.355 145.315C627.341 145.324 627.328 145.333 627.314 145.343L627.132 145.076 627.173 145.048 627.355 145.315ZM631.583 145.274 631.76 145.003 631.802 145.031 631.625 145.301C631.611 145.292 631.597 145.283 631.583 145.274ZM627.467 145.242C627.453 145.251 627.439 145.26 627.425 145.269L627.252 144.996 627.294 144.969 627.467 145.242ZM631.47 145.203 631.638 144.927 631.68 144.953 631.513 145.229C631.499 145.221 631.484 145.212 631.47 145.203ZM627.581 145.173C627.567 145.182 627.552 145.19 627.538 145.199L627.375 144.92 627.418 144.895 627.581 145.173ZM631.355 145.137 631.512 144.855 631.556 144.88 631.398 145.161C631.384 145.153 631.369 145.145 631.355 145.137ZM627.697 145.109C627.683 145.117 627.668 145.124 627.654 145.133L627.5 144.848 627.544 144.825 627.697 145.109ZM631.237 145.075 631.385 144.788 631.429 144.811 631.281 145.097C631.267 145.09 631.252 145.082 631.237 145.075ZM627.816 145.048C627.801 145.055 627.786 145.063 627.771 145.07L627.628 144.781 627.673 144.759 627.816 145.048ZM631.117 145.016 631.255 144.725 631.3 144.746 631.162 145.038C631.147 145.03 631.132 145.023 631.117 145.016ZM627.937 144.992C627.921 144.999 627.906 145.005 627.891 145.012L627.758 144.719 627.803 144.698 627.937 144.992ZM630.996 144.962 631.123 144.666 631.169 144.686 631.041 144.982C631.026 144.975 631.011 144.969 630.996 144.962ZM628.059 144.94C628.044 144.946 628.028 144.952 628.013 144.959L627.89 144.661 627.936 144.641 628.059 144.94ZM630.872 144.912 630.989 144.612 631.036 144.63 630.919 144.931C630.903 144.924 630.888 144.918 630.872 144.912ZM628.183 144.892C628.168 144.897 628.152 144.903 628.137 144.909L628.024 144.607 628.071 144.59 628.183 144.892ZM630.747 144.867 630.854 144.563 630.901 144.579 630.794 144.883C630.778 144.878 630.763 144.872 630.747 144.867ZM628.309 144.848C628.293 144.853 628.278 144.859 628.262 144.864L628.16 144.558 628.207 144.542 628.309 144.848ZM630.62 144.826 630.716 144.518 630.764 144.533 630.668 144.841C630.652 144.836 630.636 144.831 630.62 144.826ZM628.437 144.809C628.421 144.814 628.405 144.818 628.389 144.823L628.297 144.514 628.345 144.5 628.437 144.809ZM630.492 144.789 630.577 144.478 630.626 144.492 630.54 144.802C630.524 144.798 630.508 144.794 630.492 144.789ZM628.565 144.774C628.549 144.778 628.533 144.783 628.517 144.787L628.436 144.475 628.485 144.462 628.565 144.774ZM630.363 144.757 630.437 144.444 630.486 144.455 630.411 144.769C630.395 144.765 630.379 144.761 630.363 144.757ZM628.695 144.744C628.679 144.748 628.662 144.751 628.646 144.755L628.577 144.44 628.625 144.43 628.695 144.744ZM630.233 144.73 630.296 144.413 630.345 144.423 630.282 144.739C630.265 144.736 630.249 144.733 630.233 144.73ZM628.826 144.719C628.809 144.722 628.793 144.725 628.776 144.728L628.718 144.411 628.767 144.402 628.826 144.719ZM630.101 144.707 630.154 144.388 630.203 144.396 630.151 144.715C630.134 144.712 630.118 144.709 630.101 144.707ZM628.957 144.698C628.941 144.7 628.924 144.703 628.908 144.705L628.86 144.386 628.909 144.379 628.957 144.698ZM629.97 144.688 630.011 144.368 630.061 144.375 630.019 144.694C630.003 144.692 629.986 144.69 629.97 144.688ZM629.089 144.681C629.073 144.683 629.056 144.685 629.04 144.687L629.003 144.366 629.053 144.361 629.089 144.681ZM629.837 144.674 629.868 144.353 629.917 144.358 629.887 144.679C629.87 144.677 629.854 144.676 629.837 144.674ZM629.222 144.67C629.205 144.671 629.189 144.672 629.172 144.673L629.147 144.352 629.196 144.348 629.222 144.67ZM629.704 144.665 629.724 144.343 629.773 144.346 629.754 144.668C629.738 144.667 629.721 144.666 629.704 144.665ZM629.355 144.662C629.338 144.663 629.322 144.664 629.305 144.665L629.291 144.342 629.341 144.34 629.355 144.662ZM629.571 144.66 629.579 144.337 629.629 144.339 629.621 144.662C629.605 144.661 629.588 144.661 629.571 144.66ZM629.488 144.66C629.471 144.66 629.455 144.66 629.438 144.66L629.435 144.337 629.485 144.337 629.488 144.66Z" stroke="#3C415E" stroke-width="0.00525" stroke-linecap="round" stroke-linejoin="round" stroke-miterlimit="1.5" fill="#3C415E" fill-rule="evenodd"/><path d="M629.438 154.374C629.459 154.374 629.479 154.374 629.5 154.374 629.505 154.374 629.51 154.374 629.514 154.374L629.512 154.868 629.436 154.868 629.438 154.374ZM629.718 154.37 629.733 154.864 629.657 154.866 629.642 154.373C629.667 154.372 629.692 154.371 629.718 154.37ZM629.234 154.368C629.26 154.37 629.285 154.37 629.311 154.371L629.291 154.865 629.215 154.862 629.234 154.368ZM629.921 154.359 629.953 154.852 629.877 154.857 629.845 154.364C629.871 154.363 629.896 154.361 629.921 154.359ZM629.031 154.356C629.056 154.358 629.082 154.36 629.107 154.361L629.071 154.854 628.995 154.848 629.031 154.356ZM630.124 154.341 630.173 154.833 630.097 154.84 630.048 154.349C630.074 154.347 630.099 154.344 630.124 154.341ZM628.828 154.336C628.854 154.339 628.879 154.342 628.904 154.344L628.851 154.835 628.775 154.827 628.828 154.336ZM630.326 154.317 630.393 154.806 630.317 154.816 630.251 154.327C630.276 154.323 630.301 154.32 630.326 154.317ZM628.626 154.31C628.651 154.313 628.677 154.317 628.702 154.32L628.632 154.809 628.556 154.798 628.626 154.31ZM630.527 154.285 630.611 154.771 630.535 154.784 630.452 154.297C630.477 154.293 630.502 154.289 630.527 154.285ZM628.425 154.276C628.45 154.281 628.475 154.285 628.501 154.289L628.414 154.775 628.338 154.762 628.425 154.276ZM630.727 154.246 630.827 154.729 630.753 154.744 630.653 154.261C630.678 154.256 630.703 154.251 630.727 154.246ZM628.226 154.235C628.251 154.241 628.276 154.246 628.3 154.251L628.197 154.734 628.122 154.717 628.226 154.235ZM630.926 154.2 631.042 154.679 630.968 154.697 630.852 154.218C630.877 154.212 630.901 154.206 630.926 154.2ZM628.028 154.188C628.052 154.194 628.077 154.201 628.102 154.207L627.981 154.685 627.907 154.666 628.028 154.188ZM631.123 154.147 631.256 154.622 631.182 154.642 631.049 154.168C631.074 154.161 631.098 154.154 631.123 154.147ZM627.831 154.134C627.856 154.141 627.88 154.148 627.905 154.155L627.768 154.628 627.694 154.607 627.831 154.134ZM631.317 154.087 631.467 154.557 631.394 154.58 631.245 154.11C631.269 154.103 631.293 154.095 631.317 154.087ZM627.637 154.072C627.661 154.08 627.685 154.088 627.71 154.096L627.556 154.565 627.484 154.541 627.637 154.072ZM631.51 154.021 631.676 154.485 631.604 154.511 631.438 154.047C631.462 154.038 631.486 154.03 631.51 154.021ZM627.445 154.004C627.469 154.013 627.493 154.022 627.517 154.031L627.347 154.493 627.276 154.467 627.445 154.004ZM631.7 153.948 631.882 154.406 631.811 154.434 631.629 153.976C631.653 153.967 631.676 153.957 631.7 153.948ZM627.256 153.93C627.279 153.939 627.303 153.949 627.326 153.958L627.141 154.415 627.07 154.387 627.256 153.93ZM631.888 153.868 632.085 154.32 632.015 154.351 631.818 153.899C631.841 153.889 631.864 153.878 631.888 153.868ZM627.069 153.848C627.092 153.859 627.115 153.869 627.138 153.88L626.937 154.33 626.867 154.299 627.069 153.848ZM632.072 153.782 632.285 154.227 632.216 154.26 632.003 153.815C632.026 153.804 632.049 153.793 632.072 153.782ZM626.885 153.761C626.908 153.772 626.931 153.783 626.953 153.794L626.737 154.238 626.668 154.204 626.885 153.761ZM632.254 153.689 632.482 154.127 632.415 154.162 632.186 153.725C632.209 153.713 632.231 153.701 632.254 153.689ZM626.704 153.667C626.727 153.679 626.749 153.691 626.772 153.703L626.539 154.138 626.472 154.102 626.704 153.667ZM632.432 153.59 632.675 154.02 632.609 154.058 632.365 153.628C632.388 153.616 632.41 153.603 632.432 153.59ZM626.527 153.566C626.549 153.579 626.571 153.592 626.593 153.605L626.346 154.032 626.28 153.994 626.527 153.566ZM632.606 153.486 632.865 153.907 632.8 153.947 632.541 153.526C632.563 153.512 632.585 153.499 632.606 153.486ZM626.353 153.46C626.375 153.474 626.396 153.487 626.418 153.501L626.156 153.92 626.091 153.879 626.353 153.46ZM632.777 153.375 633.05 153.787 632.987 153.829 632.714 153.417C632.735 153.403 632.756 153.389 632.777 153.375ZM626.183 153.348C626.204 153.362 626.225 153.376 626.246 153.391L625.97 153.8 625.907 153.758 626.183 153.348ZM632.944 153.258 633.232 153.661 633.169 153.705 632.882 153.302C632.903 153.288 632.923 153.273 632.944 153.258ZM626.017 153.23C626.038 153.245 626.058 153.26 626.079 153.275L625.788 153.675 625.727 153.63 626.017 153.23ZM633.107 153.136 633.408 153.528 633.348 153.575 633.046 153.182C633.066 153.167 633.087 153.151 633.107 153.136ZM625.856 153.106C625.875 153.122 625.896 153.137 625.916 153.153L625.611 153.543 625.551 153.496 625.856 153.106ZM633.265 153.008 633.58 153.39 633.521 153.438 633.206 153.056C633.226 153.04 633.246 153.024 633.265 153.008ZM625.698 152.977C625.718 152.993 625.737 153.01 625.757 153.026L625.439 153.405 625.38 153.356 625.698 152.977ZM633.419 152.874 633.747 153.245 633.69 153.296 633.362 152.925C633.381 152.908 633.4 152.891 633.419 152.874ZM625.545 152.842C625.564 152.859 625.583 152.876 625.602 152.893L625.271 153.262 625.214 153.211 625.545 152.842ZM633.568 152.736 633.909 153.095 633.854 153.148 633.513 152.788C633.532 152.771 633.55 152.753 633.568 152.736ZM625.397 152.702C625.415 152.72 625.434 152.738 625.452 152.755L625.109 153.112 625.054 153.059 625.397 152.702ZM633.713 152.592 634.066 152.94 634.012 152.994 633.659 152.647C633.677 152.629 633.695 152.61 633.713 152.592ZM625.254 152.558C625.272 152.576 625.289 152.594 625.307 152.613L624.951 152.957 624.898 152.902 625.254 152.558ZM633.852 152.444 634.217 152.779 634.165 152.835 633.801 152.5C633.818 152.481 633.835 152.462 633.852 152.444ZM625.116 152.408C625.133 152.427 625.15 152.446 625.167 152.465L624.799 152.797 624.748 152.74 625.116 152.408ZM633.986 152.291 634.362 152.613 634.313 152.671 633.937 152.349C633.953 152.329 633.97 152.31 633.986 152.291ZM624.983 152.254C624.999 152.273 625.016 152.293 625.032 152.312L624.653 152.631 624.604 152.573 624.983 152.254ZM634.115 152.133 634.502 152.441 634.455 152.501 634.068 152.192C634.084 152.173 634.099 152.153 634.115 152.133ZM624.855 152.095C624.871 152.115 624.887 152.135 624.903 152.155L624.513 152.461 624.466 152.401 624.855 152.095ZM634.239 151.971 634.636 152.266 634.59 152.327 634.193 152.032C634.208 152.012 634.224 151.991 634.239 151.971ZM624.733 151.932C624.748 151.953 624.763 151.973 624.778 151.994L624.379 152.285 624.334 152.224 624.733 151.932ZM634.356 151.805 634.763 152.085 634.72 152.148 634.313 151.867C634.327 151.847 634.342 151.826 634.356 151.805ZM624.617 151.765C624.631 151.786 624.646 151.807 624.66 151.828L624.251 152.106 624.208 152.042 624.617 151.765ZM634.468 151.634 634.884 151.901 634.843 151.965 634.427 151.699C634.441 151.677 634.454 151.656 634.468 151.634ZM624.507 151.594C624.52 151.615 624.534 151.637 624.547 151.658L624.129 151.921 624.088 151.857 624.507 151.594ZM634.574 151.46 634.999 151.712 634.96 151.778 634.535 151.526C634.548 151.504 634.561 151.482 634.574 151.46ZM624.402 151.419C624.415 151.441 624.428 151.463 624.441 151.485L624.013 151.733 623.975 151.667 624.402 151.419ZM634.674 151.283 635.107 151.52 635.07 151.587 634.637 151.35C634.649 151.328 634.662 151.305 634.674 151.283ZM624.304 151.241C624.316 151.263 624.328 151.286 624.34 151.308L623.905 151.541 623.869 151.474 624.304 151.241ZM634.767 151.102 635.208 151.323 635.174 151.392 634.733 151.17C634.745 151.147 634.756 151.125 634.767 151.102ZM624.212 151.059C624.223 151.082 624.234 151.105 624.246 151.127L623.803 151.345 623.769 151.277 624.212 151.059ZM634.855 150.918 635.303 151.124 635.271 151.193 634.823 150.987C634.833 150.964 634.844 150.941 634.855 150.918ZM624.126 150.874C624.136 150.897 624.147 150.921 624.157 150.944L623.707 151.146 623.676 151.076 624.126 150.874ZM634.935 150.731 635.39 150.921 635.361 150.991 634.906 150.801C634.916 150.778 634.926 150.754 634.935 150.731ZM624.047 150.686C624.056 150.71 624.066 150.733 624.076 150.757L623.619 150.944 623.59 150.873 624.047 150.686ZM635.01 150.541 635.471 150.715 635.444 150.787 634.983 150.612C634.992 150.589 635.001 150.565 635.01 150.541ZM623.974 150.496C623.983 150.52 623.992 150.544 624.001 150.568L623.538 150.738 623.512 150.667 623.974 150.496ZM635.077 150.349 635.544 150.507 635.519 150.579 635.052 150.421C635.061 150.397 635.069 150.373 635.077 150.349ZM623.908 150.303C623.916 150.328 623.924 150.352 623.932 150.376L623.464 150.53 623.44 150.458 623.908 150.303ZM635.138 150.154 635.61 150.296 635.588 150.369 635.116 150.228C635.123 150.203 635.131 150.179 635.138 150.154ZM623.849 150.108C623.856 150.133 623.863 150.158 623.87 150.182L623.397 150.32 623.376 150.246 623.849 150.108ZM635.192 149.958 635.668 150.083 635.649 150.157 635.172 150.032C635.179 150.007 635.185 149.983 635.192 149.958ZM623.797 149.912C623.803 149.936 623.809 149.961 623.816 149.986L623.338 150.107 623.319 150.033 623.797 149.912ZM635.239 149.76 635.72 149.869 635.703 149.943 635.222 149.834C635.228 149.81 635.233 149.785 635.239 149.76ZM623.751 149.713C623.757 149.738 623.762 149.763 623.768 149.788L623.286 149.893 623.269 149.818 623.751 149.713ZM635.279 149.56 635.763 149.652 635.749 149.727 635.265 149.635C635.269 149.61 635.274 149.585 635.279 149.56ZM623.713 149.513C623.717 149.538 623.722 149.563 623.727 149.588L623.241 149.676 623.228 149.601 623.713 149.513ZM635.312 149.359 635.799 149.434 635.788 149.51 635.3 149.435C635.304 149.409 635.308 149.384 635.312 149.359ZM623.681 149.312C623.685 149.337 623.689 149.362 623.692 149.387L623.204 149.459 623.193 149.383 623.681 149.312ZM635.338 149.157 635.828 149.215 635.819 149.291 635.329 149.233C635.332 149.208 635.335 149.182 635.338 149.157ZM623.657 149.109C623.66 149.135 623.662 149.16 623.665 149.185L623.175 149.24 623.166 149.164 623.657 149.109ZM635.357 148.954 635.849 148.996 635.843 149.072 635.351 149.03C635.353 149.005 635.355 148.98 635.357 148.954ZM623.64 148.907C623.641 148.932 623.643 148.957 623.645 148.983L623.153 149.02 623.147 148.944 623.64 148.907ZM635.369 148.751 635.862 148.775 635.859 148.851 635.365 148.827C635.367 148.802 635.368 148.776 635.369 148.751ZM623.629 148.703C623.63 148.729 623.631 148.754 623.632 148.779L623.139 148.8 623.135 148.723 623.629 148.703ZM635.374 148.547 635.868 148.554 635.867 148.631 635.373 148.624C635.374 148.598 635.374 148.573 635.374 148.547ZM623.626 148.457C623.626 148.471 623.626 148.486 623.626 148.5 623.626 148.511 623.626 148.522 623.626 148.533L623.132 148.533 623.132 148.456 623.626 148.457ZM635.372 148.344 635.866 148.334 635.868 148.41 635.374 148.42C635.373 148.394 635.373 148.369 635.372 148.344ZM623.631 148.253C623.63 148.279 623.629 148.304 623.628 148.33L623.134 148.312 623.137 148.236 623.631 148.253ZM635.363 148.14 635.857 148.113 635.861 148.189 635.368 148.216C635.366 148.191 635.365 148.165 635.363 148.14ZM623.643 148.05C623.641 148.075 623.639 148.101 623.637 148.126L623.145 148.091 623.15 148.015 623.643 148.05ZM635.348 147.937 635.839 147.893 635.846 147.969 635.354 148.013C635.352 147.988 635.35 147.963 635.348 147.937ZM623.662 147.847C623.659 147.872 623.656 147.898 623.654 147.923L623.163 147.871 623.171 147.795 623.662 147.847ZM635.325 147.735 635.814 147.674 635.824 147.749 635.334 147.81C635.331 147.785 635.328 147.76 635.325 147.735ZM623.688 147.645C623.684 147.67 623.68 147.695 623.677 147.721L623.188 147.652 623.199 147.576 623.688 147.645ZM635.295 147.533 635.782 147.455 635.794 147.531 635.307 147.609C635.303 147.584 635.299 147.558 635.295 147.533ZM623.721 147.444C623.716 147.469 623.712 147.494 623.707 147.519L623.221 147.434 623.235 147.359 623.721 147.444ZM635.258 147.333 635.742 147.238 635.757 147.313 635.273 147.408C635.268 147.383 635.263 147.358 635.258 147.333ZM623.76 147.244C623.755 147.269 623.75 147.294 623.745 147.319L623.262 147.217 623.278 147.142 623.76 147.244ZM635.214 147.134 635.695 147.022 635.712 147.097 635.232 147.208C635.226 147.183 635.22 147.159 635.214 147.134ZM623.807 147.046C623.801 147.071 623.795 147.095 623.789 147.12L623.31 147.001 623.329 146.927 623.807 147.046ZM635.164 146.937 635.64 146.809 635.659 146.882 635.183 147.01C635.177 146.986 635.17 146.961 635.164 146.937ZM623.861 146.85C623.854 146.874 623.847 146.898 623.84 146.923L623.366 146.788 623.387 146.714 623.861 146.85ZM635.106 146.741 635.577 146.597 635.6 146.67 635.128 146.814C635.121 146.79 635.114 146.765 635.106 146.741ZM623.922 146.655C623.914 146.679 623.906 146.703 623.898 146.728L623.429 146.576 623.453 146.503 623.922 146.655ZM635.042 146.548 635.508 146.387 635.533 146.459 635.067 146.62C635.058 146.596 635.05 146.572 635.042 146.548ZM623.989 146.463C623.98 146.487 623.972 146.511 623.963 146.535L623.5 146.367 623.526 146.295 623.989 146.463ZM634.971 146.357 635.431 146.18 635.458 146.251 634.998 146.428C634.989 146.405 634.98 146.381 634.971 146.357ZM624.063 146.273C624.054 146.297 624.044 146.32 624.035 146.344L623.577 146.16 623.606 146.089 624.063 146.273ZM634.893 146.169 635.347 145.976 635.377 146.046 634.923 146.239C634.913 146.215 634.903 146.192 634.893 146.169ZM624.144 146.086C624.133 146.109 624.123 146.133 624.113 146.156L623.662 145.956 623.693 145.886 624.144 146.086ZM634.809 145.983 635.256 145.775 635.288 145.844 634.841 146.052C634.83 146.029 634.82 146.006 634.809 145.983ZM624.231 145.902C624.22 145.925 624.208 145.948 624.197 145.971L623.753 145.755 623.787 145.686 624.231 145.902ZM634.718 145.801 635.158 145.577 635.192 145.645 634.753 145.869C634.741 145.846 634.73 145.824 634.718 145.801ZM624.324 145.721C624.312 145.743 624.3 145.766 624.289 145.788L623.852 145.558 623.888 145.49 624.324 145.721ZM634.621 145.622 635.053 145.382 635.09 145.449 634.658 145.688C634.646 145.666 634.634 145.644 634.621 145.622ZM624.424 145.543C624.411 145.565 624.398 145.587 624.386 145.609L623.957 145.364 623.995 145.297 624.424 145.543ZM634.518 145.446 634.942 145.192 634.981 145.257 634.557 145.511C634.544 145.489 634.531 145.468 634.518 145.446ZM624.53 145.369C624.516 145.391 624.503 145.412 624.489 145.434L624.069 145.173 624.11 145.108 624.53 145.369ZM634.409 145.274 634.824 145.005 634.865 145.069 634.45 145.338C634.437 145.317 634.423 145.295 634.409 145.274ZM624.641 145.199C624.627 145.22 624.613 145.241 624.599 145.262L624.188 144.987 624.231 144.924 624.641 145.199ZM634.294 145.106 634.699 144.823 634.743 144.885 634.338 145.168C634.323 145.148 634.309 145.127 634.294 145.106ZM624.759 145.033C624.744 145.053 624.729 145.074 624.714 145.094L624.313 144.805 624.358 144.743 624.759 145.033ZM634.173 144.942 634.569 144.645 634.615 144.706 634.219 145.003C634.204 144.982 634.189 144.962 634.173 144.942ZM624.882 144.87C624.866 144.89 624.851 144.911 624.835 144.931L624.444 144.627 624.491 144.567 624.882 144.87ZM634.047 144.782 634.432 144.471 634.48 144.531 634.095 144.841C634.079 144.822 634.063 144.802 634.047 144.782ZM625.011 144.713C624.995 144.732 624.978 144.752 624.962 144.771L624.582 144.455 624.63 144.396 625.011 144.713ZM633.915 144.627 634.289 144.303 634.339 144.36 633.965 144.685C633.949 144.665 633.932 144.646 633.915 144.627ZM625.145 144.559C625.128 144.578 625.111 144.597 625.094 144.616L624.725 144.286 624.776 144.229 625.145 144.559ZM633.778 144.476 634.141 144.139 634.193 144.195 633.83 144.532C633.813 144.513 633.796 144.495 633.778 144.476ZM625.284 144.411C625.266 144.429 625.249 144.448 625.231 144.466L624.874 144.123 624.927 144.068 625.284 144.411ZM633.636 144.33 633.987 143.981 634.041 144.035 633.69 144.384C633.672 144.366 633.654 144.348 633.636 144.33ZM625.429 144.267C625.41 144.285 625.392 144.303 625.374 144.32L625.028 143.966 625.083 143.912 625.429 144.267ZM633.489 144.189 633.828 143.828 633.883 143.88 633.545 144.242C633.526 144.224 633.508 144.207 633.489 144.189ZM625.578 144.128C625.559 144.145 625.54 144.163 625.521 144.18L625.188 143.813 625.245 143.762 625.578 144.128ZM633.337 144.054 633.663 143.681 633.721 143.731 633.395 144.104C633.376 144.087 633.357 144.07 633.337 144.054ZM625.732 143.995C625.712 144.011 625.693 144.028 625.673 144.044L625.353 143.667 625.411 143.617 625.732 143.995ZM633.181 143.923 633.494 143.539 633.553 143.588 633.24 143.971C633.22 143.955 633.201 143.939 633.181 143.923ZM625.89 143.867C625.87 143.883 625.85 143.899 625.83 143.914L625.523 143.526 625.583 143.479 625.89 143.867ZM633.02 143.798 633.319 143.404 633.38 143.45 633.081 143.844C633.061 143.829 633.041 143.813 633.02 143.798ZM626.053 143.744C626.032 143.759 626.011 143.774 625.991 143.79L625.698 143.391 625.76 143.346 626.053 143.744ZM632.855 143.679 633.14 143.275 633.203 143.319 632.918 143.723C632.897 143.708 632.876 143.693 632.855 143.679ZM626.219 143.628C626.198 143.642 626.177 143.656 626.156 143.671L625.877 143.262 625.94 143.219 626.219 143.628ZM632.686 143.565 632.957 143.152 633.021 143.193 632.75 143.607C632.729 143.593 632.707 143.579 632.686 143.565ZM626.39 143.517C626.368 143.53 626.347 143.544 626.326 143.558L626.061 143.14 626.126 143.099 626.39 143.517ZM632.513 143.457 632.769 143.035 632.835 143.075 632.578 143.497C632.557 143.484 632.535 143.471 632.513 143.457ZM626.565 143.412C626.543 143.424 626.521 143.437 626.499 143.45L626.249 143.024 626.315 142.985 626.565 143.412ZM632.337 143.356 632.578 142.925 632.645 142.962 632.403 143.393C632.381 143.381 632.359 143.368 632.337 143.356ZM626.743 143.313C626.72 143.325 626.698 143.337 626.675 143.349L626.441 142.914 626.508 142.878 626.743 143.313ZM632.157 143.26 632.383 142.822 632.451 142.857 632.225 143.295C632.202 143.284 632.18 143.272 632.157 143.26ZM626.924 143.22C626.901 143.231 626.878 143.242 626.856 143.254L626.636 142.812 626.705 142.778 626.924 143.22ZM631.974 143.171 632.184 142.725 632.253 142.758 632.043 143.204C632.02 143.193 631.997 143.182 631.974 143.171ZM627.109 143.134C627.085 143.144 627.062 143.155 627.039 143.165L626.835 142.716 626.905 142.684 627.109 143.134ZM631.788 143.088 631.983 142.635 632.053 142.666 631.858 143.119C631.834 143.108 631.811 143.098 631.788 143.088ZM627.296 143.054C627.272 143.063 627.249 143.073 627.225 143.083L627.037 142.627 627.108 142.598 627.296 143.054ZM631.599 143.012 631.778 142.553 631.849 142.581 631.67 143.04C631.646 143.031 631.622 143.021 631.599 143.012ZM627.486 142.981C627.462 142.989 627.438 142.998 627.414 143.007L627.242 142.545 627.314 142.519 627.486 142.981ZM631.407 142.943 631.57 142.478 631.642 142.503 631.479 142.968C631.455 142.959 631.431 142.951 631.407 142.943ZM627.679 142.914C627.654 142.922 627.63 142.93 627.606 142.938L627.45 142.47 627.523 142.446 627.679 142.914ZM631.213 142.88 631.36 142.409 631.433 142.432 631.286 142.903C631.262 142.895 631.238 142.887 631.213 142.88ZM627.873 142.854C627.849 142.861 627.824 142.868 627.8 142.876L627.66 142.403 627.734 142.381 627.873 142.854ZM631.018 142.824 631.148 142.349 631.222 142.369 631.091 142.844C631.067 142.837 631.042 142.83 631.018 142.824ZM628.07 142.801C628.045 142.807 628.021 142.814 627.996 142.82L627.873 142.343 627.947 142.324 628.07 142.801ZM630.82 142.775 630.934 142.295 631.008 142.313 630.894 142.792C630.869 142.786 630.845 142.781 630.82 142.775ZM628.268 142.755C628.243 142.761 628.219 142.766 628.194 142.772L628.087 142.29 628.162 142.274 628.268 142.755ZM630.621 142.733 630.718 142.249 630.793 142.264 630.695 142.748C630.671 142.742 630.646 142.737 630.621 142.733ZM628.468 142.716C628.443 142.721 628.418 142.725 628.393 142.73L628.303 142.245 628.379 142.231 628.468 142.716ZM630.42 142.697 630.5 142.211 630.576 142.223 630.495 142.71C630.47 142.705 630.445 142.701 630.42 142.697ZM628.669 142.684C628.644 142.688 628.619 142.691 628.594 142.695L628.521 142.207 628.597 142.196 628.669 142.684ZM630.218 142.669 630.282 142.18 630.357 142.19 630.294 142.679C630.269 142.676 630.244 142.672 630.218 142.669ZM628.872 142.659C628.846 142.662 628.821 142.665 628.796 142.668L628.74 142.177 628.816 142.168 628.872 142.659ZM630.016 142.648 630.062 142.156 630.138 142.164 630.092 142.655C630.066 142.653 630.041 142.65 630.016 142.648ZM629.074 142.641C629.049 142.643 629.023 142.645 628.998 142.647L628.959 142.155 629.036 142.149 629.074 142.641ZM629.812 142.634 629.842 142.141 629.918 142.145 629.889 142.638C629.863 142.637 629.838 142.635 629.812 142.634ZM629.278 142.63C629.252 142.631 629.227 142.632 629.202 142.633L629.18 142.14 629.256 142.136 629.278 142.63ZM629.609 142.627 629.621 142.133 629.698 142.135 629.685 142.629C629.66 142.628 629.634 142.627 629.609 142.627ZM629.482 142.626C629.456 142.626 629.43 142.626 629.405 142.626L629.4 142.132 629.477 142.132 629.482 142.626Z" stroke="#3C415E" stroke-width="0.00525" stroke-linecap="round" stroke-linejoin="round" stroke-miterlimit="1.5" fill="#3C415E" fill-rule="evenodd"/><path d="M629.405 157.485C629.437 157.485 629.468 157.485 629.5 157.485 629.508 157.485 629.515 157.485 629.522 157.485L629.519 158.241 629.402 158.241 629.405 157.485ZM629.833 157.479 629.856 158.235 629.74 158.238 629.717 157.483C629.755 157.482 629.794 157.481 629.833 157.479ZM629.094 157.476C629.132 157.478 629.171 157.48 629.21 157.481L629.181 158.236 629.064 158.231 629.094 157.476ZM630.144 157.463 630.194 158.216 630.077 158.224 630.028 157.47C630.067 157.468 630.106 157.465 630.144 157.463ZM628.783 157.457C628.821 157.46 628.86 157.463 628.899 157.466L628.844 158.219 628.727 158.211 628.783 157.457ZM630.455 157.435 630.53 158.187 630.414 158.198 630.339 157.447C630.377 157.443 630.416 157.439 630.455 157.435ZM628.473 157.427C628.511 157.432 628.55 157.436 628.589 157.44L628.507 158.191 628.391 158.178 628.473 157.427ZM630.764 157.397 630.865 158.145 630.75 158.161 630.648 157.413C630.687 157.408 630.726 157.402 630.764 157.397ZM628.164 157.387C628.202 157.392 628.241 157.398 628.279 157.403L628.172 158.15 628.056 158.134 628.164 157.387ZM631.072 157.348 631.199 158.092 631.084 158.112 630.957 157.368C630.995 157.362 631.033 157.355 631.072 157.348ZM627.856 157.335C627.894 157.342 627.933 157.349 627.971 157.356L627.838 158.098 627.723 158.078 627.856 157.335ZM631.378 157.289 631.53 158.027 631.416 158.051 631.263 157.312C631.301 157.305 631.34 157.297 631.378 157.289ZM627.551 157.273C627.589 157.282 627.627 157.29 627.665 157.298L627.506 158.035 627.392 158.01 627.551 157.273ZM631.681 157.218 631.859 157.951 631.746 157.979 631.568 157.246C631.606 157.237 631.644 157.228 631.681 157.218ZM627.248 157.2C627.286 157.21 627.323 157.22 627.361 157.229L627.177 157.96 627.064 157.932 627.248 157.2ZM631.982 157.138 632.186 157.864 632.073 157.895 631.87 157.169C631.907 157.159 631.945 157.148 631.982 157.138ZM626.948 157.117C626.985 157.128 627.022 157.139 627.06 157.15L626.85 157.874 626.738 157.842 626.948 157.117ZM632.28 157.046 632.509 157.765 632.397 157.8 632.169 157.082C632.206 157.07 632.243 157.058 632.28 157.046ZM626.651 157.023C626.687 157.036 626.724 157.048 626.761 157.06L626.527 157.776 626.416 157.74 626.651 157.023ZM632.575 156.945 632.828 157.655 632.718 157.694 632.465 156.984C632.501 156.971 632.538 156.958 632.575 156.945ZM626.357 156.919C626.393 156.933 626.43 156.946 626.466 156.96L626.207 157.668 626.098 157.628 626.357 156.919ZM632.865 156.833 633.143 157.534 633.035 157.577 632.757 156.876C632.793 156.862 632.829 156.848 632.865 156.833ZM626.067 156.805C626.103 156.82 626.139 156.835 626.175 156.849L625.891 157.548 625.783 157.504 626.067 156.805ZM633.152 156.711 633.454 157.403 633.347 157.449 633.045 156.758C633.081 156.743 633.117 156.727 633.152 156.711ZM625.781 156.681C625.816 156.697 625.852 156.713 625.888 156.729L625.58 157.418 625.473 157.37 625.781 156.681ZM633.435 156.579 633.761 157.26 633.655 157.311 633.329 156.63C633.365 156.613 633.4 156.596 633.435 156.579ZM625.5 156.547C625.535 156.564 625.57 156.581 625.605 156.598L625.273 157.276 625.168 157.225 625.5 156.547ZM633.712 156.438 634.062 157.107 633.958 157.161 633.609 156.492C633.643 156.474 633.678 156.456 633.712 156.438ZM625.224 156.403C625.258 156.422 625.292 156.44 625.327 156.458L624.971 157.125 624.868 157.07 625.224 156.403ZM633.985 156.287 634.357 156.944 634.256 157.001 633.883 156.344C633.917 156.325 633.951 156.306 633.985 156.287ZM624.952 156.25C624.986 156.269 625.019 156.289 625.053 156.308L624.675 156.962 624.574 156.904 624.952 156.25ZM634.252 156.126 634.647 156.77 634.548 156.831 634.152 156.187C634.185 156.167 634.219 156.147 634.252 156.126ZM624.687 156.087C624.719 156.108 624.753 156.129 624.786 156.149L624.385 156.79 624.286 156.728 624.687 156.087ZM634.513 155.957 634.931 156.587 634.833 156.651 634.416 156.021C634.448 156 634.481 155.978 634.513 155.957ZM624.427 155.915C624.459 155.937 624.491 155.959 624.523 155.981L624.1 156.608 624.004 156.542 624.427 155.915ZM634.768 155.778 635.208 156.394 635.113 156.462 634.673 155.846C634.705 155.823 634.737 155.801 634.768 155.778ZM624.173 155.735C624.204 155.758 624.236 155.781 624.267 155.803L623.823 156.416 623.728 156.347 624.173 155.735ZM635.017 155.591 635.478 156.191 635.385 156.262 634.925 155.662C634.956 155.638 634.986 155.615 635.017 155.591ZM623.925 155.545C623.956 155.57 623.987 155.594 624.017 155.617L623.552 156.214 623.46 156.142 623.925 155.545ZM635.26 155.395 635.741 155.979 635.651 156.054 635.169 155.469C635.2 155.445 635.23 155.42 635.26 155.395ZM623.685 155.348C623.714 155.373 623.744 155.398 623.774 155.423L623.288 156.003 623.198 155.928 623.685 155.348ZM635.495 155.191 635.997 155.758 635.909 155.836 635.408 155.269C635.437 155.243 635.466 155.217 635.495 155.191ZM623.451 155.142C623.48 155.168 623.509 155.194 623.538 155.22L623.031 155.783 622.945 155.705 623.451 155.142ZM635.723 154.979 636.244 155.529 636.16 155.609 635.638 155.06C635.667 155.033 635.695 155.006 635.723 154.979ZM623.224 154.928C623.252 154.955 623.28 154.982 623.308 155.009L622.783 155.555 622.699 155.474 623.224 154.928ZM635.944 154.76 636.484 155.291 636.402 155.374 635.862 154.843C635.89 154.815 635.917 154.787 635.944 154.76ZM623.005 154.707C623.032 154.735 623.059 154.763 623.086 154.791L622.542 155.318 622.461 155.234 623.005 154.707ZM636.157 154.532 636.715 155.045 636.636 155.131 636.078 154.618C636.105 154.59 636.131 154.561 636.157 154.532ZM622.794 154.478C622.82 154.507 622.846 154.536 622.872 154.565L622.31 155.072 622.232 154.986 622.794 154.478ZM636.362 154.298 636.938 154.791 636.862 154.879 636.286 154.387C636.312 154.357 636.337 154.328 636.362 154.298ZM622.591 154.242C622.615 154.272 622.641 154.302 622.666 154.331L622.086 154.819 622.011 154.73 622.591 154.242ZM636.56 154.057 637.151 154.529 637.078 154.62 636.487 154.148C636.511 154.118 636.535 154.087 636.56 154.057ZM622.396 153.999C622.419 154.03 622.443 154.06 622.468 154.091L621.872 154.558 621.8 154.466 622.396 153.999ZM636.748 153.809 637.356 154.26 637.286 154.354 636.678 153.903C636.702 153.872 636.725 153.84 636.748 153.809ZM622.209 153.75C622.232 153.781 622.255 153.813 622.278 153.844L621.666 154.29 621.598 154.196 622.209 153.75ZM636.928 153.555 637.551 153.984 637.484 154.08 636.862 153.651C636.884 153.619 636.906 153.587 636.928 153.555ZM622.031 153.494C622.053 153.526 622.074 153.558 622.097 153.591L621.47 154.015 621.405 153.919 622.031 153.494ZM637.099 153.294 637.736 153.702 637.673 153.8 637.036 153.393C637.057 153.36 637.078 153.327 637.099 153.294ZM621.862 153.232C621.883 153.265 621.904 153.298 621.924 153.331L621.284 153.734 621.222 153.635 621.862 153.232ZM637.261 153.028 637.911 153.413 637.852 153.514 637.202 153.129C637.222 153.095 637.241 153.062 637.261 153.028ZM621.702 152.965C621.722 152.999 621.741 153.032 621.761 153.066L621.108 153.446 621.049 153.345 621.702 152.965ZM637.414 152.757 638.077 153.119 638.021 153.221 637.358 152.859C637.377 152.825 637.395 152.791 637.414 152.757ZM621.552 152.692C621.57 152.727 621.589 152.761 621.607 152.795L620.941 153.152 620.886 153.049 621.552 152.692ZM637.557 152.48 638.232 152.819 638.179 152.923 637.504 152.584C637.522 152.55 637.54 152.515 637.557 152.48ZM621.411 152.414C621.428 152.449 621.445 152.484 621.463 152.519L620.785 152.852 620.734 152.747 621.411 152.414ZM637.69 152.198 638.376 152.513 638.327 152.619 637.642 152.304C637.658 152.269 637.674 152.234 637.69 152.198ZM621.28 152.131C621.296 152.167 621.312 152.203 621.328 152.238L620.639 152.547 620.591 152.441 621.28 152.131ZM637.814 151.912 638.51 152.203 638.465 152.311 637.769 152.02C637.784 151.984 637.799 151.948 637.814 151.912ZM621.159 151.844C621.173 151.88 621.188 151.916 621.203 151.952L620.504 152.238 620.46 152.13 621.159 151.844ZM637.927 151.622 638.633 151.889 638.592 151.998 637.886 151.731C637.9 151.695 637.914 151.659 637.927 151.622ZM621.048 151.553C621.061 151.59 621.074 151.627 621.088 151.663L620.38 151.924 620.34 151.814 621.048 151.553ZM638.031 151.328 638.745 151.57 638.707 151.681 637.993 151.439C638.006 151.402 638.018 151.365 638.031 151.328ZM620.947 151.259C620.959 151.296 620.971 151.333 620.983 151.369L620.267 151.606 620.23 151.495 620.947 151.259ZM638.124 151.031 638.846 151.248 638.812 151.36 638.09 151.143C638.101 151.105 638.113 151.068 638.124 151.031ZM620.856 150.96C620.867 150.998 620.878 151.036 620.889 151.072L620.165 151.284 620.132 151.171 620.856 150.96ZM638.206 150.73 638.935 150.922 638.906 151.035 638.176 150.843C638.187 150.806 638.196 150.768 638.206 150.73ZM620.776 150.659C620.786 150.697 620.795 150.735 620.805 150.772L620.074 150.958 620.045 150.845 620.776 150.659ZM638.278 150.427 639.014 150.593 638.988 150.707 638.252 150.541C638.261 150.503 638.27 150.465 638.278 150.427ZM620.707 150.355C620.715 150.394 620.723 150.432 620.732 150.47L619.995 150.63 619.97 150.516 620.707 150.355ZM638.339 150.122 639.08 150.262 639.059 150.377 638.318 150.236C638.325 150.198 638.332 150.16 638.339 150.122ZM620.648 150.049C620.655 150.088 620.662 150.126 620.669 150.164L619.926 150.299 619.905 150.184 620.648 150.049ZM638.39 149.814 639.136 149.929 639.118 150.045 638.372 149.93C638.378 149.891 638.384 149.853 638.39 149.814ZM620.6 149.742C620.605 149.78 620.611 149.818 620.617 149.857L619.87 149.966 619.853 149.851 620.6 149.742ZM638.43 149.505 639.18 149.594 639.166 149.71 638.416 149.621C638.421 149.582 638.426 149.544 638.43 149.505ZM620.562 149.432C620.567 149.471 620.571 149.51 620.575 149.548L619.825 149.632 619.812 149.516 620.562 149.432ZM638.459 149.195 639.212 149.258 639.202 149.375 638.449 149.311C638.453 149.272 638.456 149.234 638.459 149.195ZM620.536 149.122C620.539 149.161 620.541 149.199 620.545 149.238L619.791 149.295 619.782 149.179 620.536 149.122ZM638.478 148.884 639.232 148.921 639.226 149.038 638.472 149C638.474 148.962 638.476 148.923 638.478 148.884ZM620.52 148.811C620.521 148.85 620.523 148.889 620.525 148.927L619.77 148.958 619.765 148.842 620.52 148.811ZM638.485 148.572 639.241 148.583 639.239 148.7 638.484 148.689C638.484 148.65 638.485 148.611 638.485 148.572ZM620.515 148.434C620.515 148.456 620.515 148.478 620.515 148.5 620.515 148.517 620.515 148.534 620.515 148.551L619.759 148.55 619.759 148.433 620.515 148.434ZM638.482 148.261 639.238 148.246 639.24 148.362 638.485 148.378C638.484 148.338 638.483 148.299 638.482 148.261ZM620.522 148.123C620.521 148.161 620.519 148.2 620.518 148.239L619.763 148.212 619.767 148.096 620.522 148.123ZM638.469 147.95 639.223 147.908 639.23 148.025 638.475 148.066C638.473 148.027 638.471 147.988 638.469 147.95ZM620.541 147.812C620.538 147.85 620.535 147.889 620.533 147.928L619.779 147.875 619.787 147.759 620.541 147.812ZM638.445 147.639 639.197 147.572 639.207 147.688 638.455 147.755C638.452 147.717 638.449 147.678 638.445 147.639ZM620.57 147.501C620.565 147.54 620.561 147.579 620.558 147.617L619.806 147.538 619.819 147.422 620.57 147.501ZM638.41 147.329 639.159 147.236 639.173 147.352 638.424 147.445C638.42 147.406 638.415 147.368 638.41 147.329ZM620.609 147.192C620.604 147.231 620.598 147.269 620.593 147.308L619.846 147.203 619.862 147.087 620.609 147.192ZM638.364 147.021 639.109 146.902 639.128 147.017 638.383 147.136C638.377 147.098 638.371 147.06 638.364 147.021ZM620.66 146.885C620.653 146.923 620.646 146.961 620.64 147L619.896 146.869 619.917 146.754 620.66 146.885ZM638.308 146.715 639.048 146.57 639.07 146.684 638.33 146.829C638.323 146.791 638.316 146.753 638.308 146.715ZM620.721 146.579C620.712 146.617 620.704 146.655 620.697 146.694L619.959 146.537 619.983 146.423 620.721 146.579ZM638.241 146.41 638.975 146.24 639.002 146.354 638.267 146.524C638.259 146.486 638.25 146.448 638.241 146.41ZM620.792 146.276C620.783 146.314 620.773 146.351 620.764 146.389L620.032 146.208 620.061 146.094 620.792 146.276ZM638.163 146.109 638.891 145.913 638.922 146.026 638.194 146.221C638.184 146.184 638.174 146.146 638.163 146.109ZM620.875 145.975C620.864 146.013 620.853 146.05 620.843 146.088L620.118 145.881 620.15 145.768 620.875 145.975ZM638.075 145.81 638.796 145.589 638.83 145.7 638.109 145.921C638.098 145.884 638.087 145.847 638.075 145.81ZM620.967 145.678C620.955 145.715 620.943 145.752 620.932 145.789L620.214 145.557 620.25 145.446 620.967 145.678ZM637.977 145.514 638.69 145.268 638.728 145.379 638.015 145.624C638.002 145.588 637.99 145.551 637.977 145.514ZM621.071 145.384C621.057 145.42 621.044 145.457 621.031 145.494L620.322 145.237 620.361 145.127 621.071 145.384ZM637.868 145.222 638.572 144.952 638.614 145.061 637.91 145.331C637.896 145.295 637.882 145.258 637.868 145.222ZM621.184 145.094C621.169 145.13 621.155 145.166 621.14 145.202L620.44 144.921 620.484 144.812 621.184 145.094ZM637.749 144.934 638.444 144.639 638.489 144.747 637.795 145.042C637.78 145.005 637.765 144.97 637.749 144.934ZM621.307 144.808C621.291 144.843 621.275 144.879 621.26 144.914L620.57 144.609 620.617 144.502 621.307 144.808ZM637.62 144.65 638.304 144.331 638.354 144.437 637.67 144.756C637.654 144.721 637.637 144.686 637.62 144.65ZM621.44 144.526C621.423 144.561 621.406 144.596 621.389 144.631L620.71 144.301 620.761 144.196 621.44 144.526ZM637.482 144.371 638.155 144.029 638.208 144.133 637.535 144.475C637.517 144.441 637.5 144.406 637.482 144.371ZM621.583 144.249C621.565 144.283 621.547 144.318 621.529 144.352L620.861 143.999 620.916 143.896 621.583 144.249ZM637.333 144.097 637.994 143.731 638.051 143.834 637.39 144.199C637.371 144.165 637.353 144.131 637.333 144.097ZM621.736 143.977C621.716 144.011 621.697 144.045 621.678 144.079L621.022 143.702 621.08 143.601 621.736 143.977ZM637.176 143.829 637.824 143.44 637.884 143.54 637.236 143.929C637.216 143.895 637.196 143.862 637.176 143.829ZM621.898 143.711C621.877 143.744 621.856 143.777 621.836 143.81L621.194 143.411 621.255 143.312 621.898 143.711ZM637.009 143.565 637.643 143.154 637.707 143.252 637.072 143.663C637.052 143.631 637.03 143.598 637.009 143.565ZM622.068 143.451C622.047 143.483 622.025 143.515 622.003 143.548L621.375 143.127 621.44 143.03 622.068 143.451ZM636.833 143.308 637.453 142.875 637.52 142.971 636.9 143.404C636.878 143.372 636.856 143.34 636.833 143.308ZM622.248 143.196C622.225 143.228 622.202 143.259 622.18 143.291L621.566 142.848 621.634 142.753 622.248 143.196ZM636.648 143.057 637.253 142.603 637.324 142.696 636.719 143.151C636.695 143.119 636.672 143.088 636.648 143.057ZM622.437 142.948C622.413 142.979 622.389 143.009 622.365 143.04L621.767 142.576 621.838 142.484 622.437 142.948ZM636.455 142.813 637.044 142.338 637.118 142.429 636.529 142.904C636.504 142.874 636.48 142.843 636.455 142.813ZM622.633 142.707C622.608 142.737 622.583 142.766 622.559 142.796L621.977 142.312 622.052 142.222 622.633 142.707ZM636.254 142.576 636.826 142.08 636.903 142.168 636.33 142.664C636.305 142.634 636.279 142.605 636.254 142.576ZM622.839 142.472C622.812 142.501 622.786 142.53 622.761 142.559L622.196 142.055 622.274 141.968 622.839 142.472ZM636.044 142.345 636.599 141.83 636.679 141.915 636.124 142.431C636.097 142.402 636.071 142.373 636.044 142.345ZM623.052 142.245C623.024 142.273 622.997 142.301 622.971 142.329L622.424 141.806 622.504 141.721 623.052 142.245ZM635.827 142.122 636.364 141.588 636.446 141.67 635.909 142.205C635.882 142.177 635.854 142.149 635.827 142.122ZM623.272 142.025C623.244 142.052 623.216 142.079 623.189 142.107L622.66 141.564 622.744 141.483 623.272 142.025ZM635.602 141.906 636.12 141.354 636.205 141.434 635.687 141.986C635.659 141.959 635.631 141.933 635.602 141.906ZM623.5 141.813C623.471 141.839 623.443 141.865 623.414 141.892L622.904 141.331 622.991 141.253 623.5 141.813ZM635.37 141.699 635.868 141.129 635.956 141.206 635.458 141.776C635.428 141.75 635.399 141.724 635.37 141.699ZM623.736 141.609C623.706 141.634 623.676 141.659 623.647 141.685L623.157 141.107 623.246 141.031 623.736 141.609ZM635.131 141.499 635.609 140.912 635.699 140.986 635.221 141.573C635.191 141.548 635.161 141.524 635.131 141.499ZM623.978 141.413C623.947 141.437 623.917 141.462 623.886 141.486L623.417 140.891 623.509 140.819 623.978 141.413ZM634.885 141.308 635.342 140.705 635.435 140.776 634.978 141.379C634.947 141.355 634.916 141.331 634.885 141.308ZM624.227 141.226C624.195 141.249 624.164 141.272 624.133 141.295L623.684 140.685 623.779 140.616 624.227 141.226ZM634.632 141.125 635.068 140.507 635.164 140.575 634.728 141.193C634.696 141.17 634.664 141.148 634.632 141.125ZM624.482 141.047C624.45 141.069 624.417 141.091 624.385 141.113L623.959 140.488 624.055 140.422 624.482 141.047ZM634.374 140.952 634.788 140.319 634.886 140.383 634.471 141.016C634.439 140.994 634.406 140.973 634.374 140.952ZM624.743 140.877C624.71 140.898 624.677 140.919 624.644 140.94L624.24 140.301 624.339 140.239 624.743 140.877ZM634.109 140.787 634.501 140.141 634.601 140.201 634.209 140.847C634.176 140.827 634.143 140.807 634.109 140.787ZM625.01 140.717C624.976 140.736 624.943 140.756 624.909 140.776L624.527 140.124 624.628 140.065 625.01 140.717ZM633.839 140.631 634.208 139.972 634.31 140.029 633.941 140.688C633.907 140.669 633.873 140.65 633.839 140.631ZM625.282 140.565C625.248 140.584 625.214 140.602 625.18 140.621L624.821 139.956 624.924 139.901 625.282 140.565ZM633.564 140.485 633.91 139.814 634.014 139.868 633.668 140.539C633.633 140.521 633.599 140.503 633.564 140.485ZM625.56 140.424C625.525 140.441 625.49 140.458 625.455 140.476L625.12 139.799 625.224 139.747 625.56 140.424ZM633.284 140.349 633.606 139.667 633.712 139.716 633.39 140.399C633.354 140.382 633.319 140.365 633.284 140.349ZM625.842 140.292C625.807 140.307 625.771 140.323 625.736 140.34L625.424 139.653 625.53 139.604 625.842 140.292ZM632.999 140.222 633.297 139.529 633.405 139.576 633.107 140.269C633.071 140.253 633.035 140.238 632.999 140.222ZM626.129 140.169C626.092 140.184 626.056 140.199 626.021 140.214L625.733 139.517 625.841 139.472 626.129 140.169ZM632.71 140.106 632.984 139.403 633.093 139.446 632.819 140.148C632.783 140.134 632.747 140.12 632.71 140.106ZM626.419 140.057C626.383 140.071 626.347 140.084 626.31 140.098L626.047 139.391 626.156 139.351 626.419 140.057ZM632.417 139.999 632.667 139.288 632.777 139.327 632.528 140.038C632.491 140.025 632.454 140.012 632.417 139.999ZM626.714 139.956C626.677 139.968 626.64 139.98 626.603 139.993L626.365 139.277 626.476 139.24 626.714 139.956ZM632.121 139.903 632.346 139.184 632.457 139.218 632.232 139.938C632.195 139.926 632.158 139.915 632.121 139.903ZM627.012 139.864C626.974 139.875 626.937 139.886 626.9 139.897L626.686 139.174 626.798 139.141 627.012 139.864ZM631.821 139.818 632.021 139.091 632.133 139.122 631.934 139.849C631.897 139.838 631.859 139.828 631.821 139.818ZM627.313 139.783C627.275 139.793 627.237 139.802 627.2 139.812L627.011 139.082 627.124 139.053 627.313 139.783ZM631.519 139.743 631.693 139.009 631.807 139.036 631.633 139.77C631.595 139.76 631.557 139.751 631.519 139.743ZM627.616 139.713C627.578 139.721 627.54 139.729 627.502 139.738L627.339 139.001 627.453 138.976 627.616 139.713ZM631.214 139.678 631.363 138.939 631.477 138.962 631.329 139.701C631.291 139.693 631.252 139.685 631.214 139.678ZM627.922 139.653C627.884 139.66 627.845 139.667 627.807 139.674L627.67 138.932 627.785 138.911 627.922 139.653ZM630.907 139.624 631.03 138.88 631.145 138.899 631.022 139.643C630.984 139.637 630.946 139.63 630.907 139.624ZM628.23 139.604C628.191 139.609 628.152 139.615 628.114 139.621L628.003 138.875 628.118 138.857 628.23 139.604ZM630.599 139.581 630.696 138.832 630.812 138.847 630.714 139.596C630.676 139.591 630.637 139.586 630.599 139.581ZM628.539 139.565C628.5 139.57 628.461 139.574 628.423 139.579L628.337 138.828 628.453 138.815 628.539 139.565ZM630.289 139.549 630.36 138.797 630.476 138.808 630.405 139.56C630.366 139.556 630.328 139.552 630.289 139.549ZM628.849 139.538C628.81 139.541 628.771 139.544 628.733 139.547L628.673 138.794 628.79 138.785 628.849 139.538ZM629.978 139.527 630.023 138.773 630.14 138.78 630.094 139.534C630.056 139.531 630.017 139.529 629.978 139.527ZM629.16 139.521C629.121 139.522 629.083 139.524 629.044 139.526L629.01 138.771 629.127 138.766 629.16 139.521ZM629.667 139.516 629.685 138.761 629.802 138.763 629.783 139.519C629.744 139.518 629.706 139.517 629.667 139.516ZM629.472 139.515C629.433 139.515 629.394 139.515 629.355 139.516L629.348 138.76 629.465 138.759 629.472 139.515Z" stroke="#3C415E" stroke-width="0.00525" stroke-linecap="round" stroke-linejoin="round" stroke-miterlimit="1.5" fill="#3C415E" fill-rule="evenodd"/></g></svg>