<svg width="1000" height="242" viewBox="0 0 1000 242" fill="none" xmlns="http://www.w3.org/2000/svg">
<path fill-rule="evenodd" clip-rule="evenodd" d="M107.778 0.383925C102.111 1.11468 93.4929 2.87458 87.7674 4.46871L81.3676 6.25094L76.6569 13.4028C71.8536 20.6962 65.2441 33.4032 65.2441 35.3451C65.2441 35.9365 66.0873 36.854 67.1169 37.3838C68.1473 37.9136 69.573 38.9867 70.2849 39.7695C71.5051 41.1099 72.2544 41.1918 83.2575 41.1918C94.1421 41.1918 105.979 42.2778 112.542 43.8787C114.039 44.244 115.468 44.5499 115.718 44.5587C115.967 44.5675 118.551 41.6066 121.458 37.9778C128.119 29.6648 142.788 15.0619 150.157 9.40806C153.253 7.03311 155.55 4.88077 155.261 4.62501C154.624 4.06273 143.493 1.56667 137.382 0.616009C133.229 -0.0301671 112.261 -0.194588 107.778 0.383925ZM161.369 12.2499C149.711 21.4161 126.521 46.4045 128.289 47.8951C128.611 48.1678 131.172 49.2484 133.979 50.2978C150.361 56.4213 166.078 66.4542 180.597 80.0578C183.591 82.8631 186.281 85.1615 186.575 85.1656C186.869 85.169 187.928 84.6392 188.927 83.9883C189.926 83.3373 192.442 82.6519 194.517 82.4659L198.291 82.1275L199.803 76.8384C200.635 73.9296 201.799 69.3624 202.39 66.689C203.667 60.9127 204.466 42.8455 203.759 35.7409L203.257 30.7041L199.408 27.5734C190.774 20.5494 178.267 12.9292 169.195 9.16448L166.642 8.10489L161.369 12.2499ZM63.5427 14.3332C48.3951 22.5149 33.9771 34.9499 23.773 48.6333C19.9599 53.7459 17.2091 58.1074 17.7978 58.1074C17.9223 58.1074 22.269 56.1371 27.4575 53.729C36.2923 49.6286 36.945 49.1942 37.7432 46.8863C39.399 42.0971 45.7607 37.1016 51.9605 35.7227C55.366 34.9648 55.5966 34.7693 57.3831 31.1263C59.1824 27.457 65.5108 16.7528 67.7328 13.6194C69.1783 11.5814 68.3882 11.716 63.5427 14.3332ZM210.509 39.5002C213.211 54.4611 212.656 70.7088 208.958 84.8841C207.737 89.563 207.738 89.5758 209.278 92.9535C212.534 100.095 212.735 109.633 209.785 116.965C208.836 119.321 208.886 119.659 210.828 123.961C214.965 133.128 218.692 146.289 220.538 158.248C221.03 161.435 221.427 169.654 221.427 176.686C221.429 183.663 221.63 189.372 221.874 189.372C222.583 189.372 229.586 177.364 232.331 171.442C247.215 139.325 247.017 101.206 231.798 68.8251C227.17 58.9796 219.69 47.7287 212.976 40.5152C210.16 37.4886 210.145 37.4825 210.509 39.5002ZM51.3038 44.7319C46.2228 47.6657 46.2827 52.9096 51.4167 54.683C53.8266 55.5153 54.6466 55.522 57.0612 54.7297C60.1135 53.7283 63.2024 50.6551 63.2024 48.6205C63.2024 47.9256 62.5035 46.5486 61.6488 45.5608C59.4166 42.9808 54.9556 42.6235 51.3038 44.7319ZM71.1165 54.888C68.8401 57.8557 64.6908 60.6326 60.1774 62.2098L56.7373 63.4121L55.8437 69.725C54.6963 77.8378 55.155 101.563 56.608 109.205C59.0239 121.914 63.1065 134.598 67.8193 144.039L71.0287 150.467L74.0912 150.345C75.7755 150.278 77.383 150.202 77.664 150.176C77.9451 150.15 78.1745 148.815 78.1745 147.209C78.1745 144.079 79.6887 132.078 80.9218 125.431C84.8091 104.478 94.5804 78.7722 105.364 61.1231C106.826 58.7312 107.74 56.6012 107.396 56.3901C105.496 55.2223 92.1311 53.3101 83.22 52.9305L72.9533 52.4935L71.1165 54.888ZM31.2141 61.0879C25.2246 63.1665 12.8835 68.8515 11.0114 70.3942C8.52942 72.4396 2.61887 92.1341 0.918183 104.024C-0.634824 114.884 -0.163207 133.548 1.92063 143.7C2.68488 147.422 3.311 150.546 3.31236 150.642C3.3178 151.077 15.1831 156.313 21.1903 158.531C28.1414 161.097 42.0347 164.615 47.931 165.302C51.3637 165.702 51.3793 165.695 52.5621 163.228C53.2147 161.867 54.8365 159.434 56.1663 157.821L58.5836 154.888L55.1809 147.264C44.0968 122.431 40.3667 93.21 45.1387 68.5951C46.3861 62.1638 46.3859 62.1671 45.4722 62.1671C45.0782 62.1671 43.6286 61.4059 42.2519 60.4756C40.8744 59.5452 39.2833 58.7976 38.715 58.8138C38.1468 58.83 34.7713 59.8531 31.2141 61.0879ZM115.348 66.2668C101.26 90.1543 90.525 125.281 89.6437 150.373C89.5998 151.627 89.6009 152.517 89.6788 153.173C89.679 153.174 89.6787 153.176 89.6788 153.177C89.7015 153.367 89.7311 153.537 89.7674 153.69C89.9358 154.4 90.2593 154.754 90.8149 155.06C91.5356 155.456 94.0046 157.568 96.3008 159.753L100.477 163.726L104.808 162.717C129.213 157.029 153.852 142.893 171.837 124.26C176.804 119.115 178.555 117.102 179.236 115.41C179.422 114.114 179.347 113.361 179.236 112.704C179.144 112.16 179.045 111.708 178.887 110.84C178.441 108.39 177.874 104.584 178.574 101.781L179.03 96.9402L172.141 90.427C161.465 80.3352 151.316 73.1887 138.71 66.8866C132.6 63.833 121.679 59.4525 120.224 59.4728C119.742 59.4796 117.547 62.5366 115.348 66.2668ZM193.207 96.1919C192.283 96.6547 190.801 98.0945 189.916 99.3916C188.763 101.878 188.629 102.165 188.423 106.276C188.969 110.285 189.169 110.84 190.954 113.036C195.77 117.825 202.034 113.746 202.034 105.822C202.034 98.9423 197.531 94.0294 193.207 96.1919ZM184.291 131.984C163.346 155.501 139.247 169.286 105.995 176.774C104.532 177.103 104.132 177.674 103.765 179.952C103.519 181.48 102.731 183.876 102.012 185.277L100.705 187.824L102.88 189.865C105.939 192.736 114.338 198.734 120.374 202.358C139.033 213.563 159.353 219.891 182.016 221.554C187.886 221.984 188.341 221.919 190.981 220.262C198.878 215.305 213.852 201.132 214.687 197.821C215.417 194.931 214.468 174.967 213.257 167.721C211.283 155.909 207.373 143.244 202.3 132.228L200.499 128.316L197.605 128.71C194.982 129.068 192.729 128.723 189.736 127.506C188.982 127.2 187.38 128.516 184.291 131.984ZM7.09075 162.477C8.06393 165.659 15.0708 179.747 18.1047 184.623C27.6004 199.878 43.3339 215.239 59.1192 224.667C65.0011 228.18 74.2191 232.434 81.5772 235.032C86.8126 236.88 97.3176 239.581 97.7184 239.182C97.8416 239.06 96.4036 235.963 94.5232 232.302C90.2861 224.053 86.3873 214.14 83.8931 205.273C82.8464 201.552 81.9549 198.438 81.9127 198.353C81.8705 198.269 79.5573 197.88 76.7725 197.489C66.6868 196.072 57.7438 189.911 53.5863 181.515C51.4896 177.281 51.4569 177.253 47.6424 176.469C36.902 174.261 22.0907 168.882 12.2792 163.626C9.53662 162.157 7.14312 160.954 6.95938 160.954C6.77563 160.954 6.83486 161.639 7.09075 162.477ZM70.142 163.073C61.9251 167.117 61.7209 177.774 69.7554 183.248C78.6359 189.298 89.8669 185.612 90.9224 176.302C92.0365 166.48 79.4723 158.481 70.142 163.073ZM92.7109 197.323C92.896 197.974 93.6712 200.968 94.4334 203.975C96.6914 212.887 101.099 224.348 105.602 233.015L109.82 241.134L113.532 241.715C119.092 242.586 136.997 241.177 146.91 239.091C151.588 238.106 158.326 236.224 161.882 234.909C170.418 231.753 178.895 227.897 178.895 227.169C178.895 226.849 176.522 226.581 173.621 226.575C167.98 226.561 157.916 225.293 149.67 223.557C132.669 219.978 113.722 211.312 98.727 200.258C95.6536 197.993 92.9668 196.139 92.7565 196.139C92.5462 196.139 92.5258 196.672 92.7109 197.323Z" fill="white"/>
<path fill-rule="evenodd" clip-rule="evenodd" d="M841.316 69.1468C825.946 73.421 812.506 86.4213 806.484 102.839C804.569 108.058 804.368 109.669 804.336 120.043C804.297 132.844 805.085 136.513 810.094 146.88C815.637 158.349 829.058 169.248 841.656 172.511C847.079 173.915 858.36 174.089 864.401 172.862C876.561 170.392 889.804 160.428 895.075 149.782C896.522 146.862 897.571 144.074 897.408 143.586C897.244 143.099 892.484 141.382 886.829 139.771C877.901 137.228 876.442 136.999 875.753 138.029C872.429 142.994 869.605 146.056 866.325 148.25C856.334 154.935 844.502 153.406 835.96 144.326C831.436 139.518 828.668 133.331 827.512 125.442C825.433 111.259 832.401 96.838 844.079 91.1572C847.801 89.3473 849.096 89.127 854.499 89.3891C862.186 89.7624 867.149 92.0689 871.63 97.3494L874.811 101.099H895.204L895.208 77.8136L881.174 78.3133L877.31 75.3817C869.93 69.7814 865.812 68.4467 855.111 68.1886C848.43 68.0284 844.309 68.3141 841.316 69.1468ZM323.695 71.3017C323.34 72.2781 317.018 91.1035 309.647 113.136L296.246 153.194H288.656V172.138H327.558V153.194H322.312C317.875 153.194 317.141 153.003 317.545 151.957C317.807 151.276 318.794 148.079 319.737 144.853L321.451 138.986H352.832L354.032 142.341C354.692 144.186 355.772 147.383 356.431 149.445L357.63 153.194H347.406V172.138H386.208L386.456 163.44C386.592 158.656 386.585 154.393 386.44 153.968C386.294 153.542 384.613 153.194 382.705 153.194H379.235L368.422 120.24C362.474 102.115 356.307 83.29 354.716 78.4056L351.824 69.5257H338.084C324.555 69.5257 324.333 69.5533 323.695 71.3017ZM395.834 88.4695H406.155V153.194H395.834V172.138H440.343L439.896 153.589L429.178 153.122V88.5414L439.896 88.0749L440.343 69.5257H395.834V88.4695ZM450.614 88.4695H460.141V153.115L451.011 153.589L450.564 172.138H489.516V153.194H482.37L482.42 98.3361L486.653 108.203C488.981 113.629 494.559 126.772 499.047 137.408C503.536 148.044 508.571 159.943 510.236 163.85L513.264 170.954H532.671L547.194 135.04C555.182 115.287 562.061 98.415 562.48 97.5468C562.983 96.5049 563.26 105.676 563.295 124.536L563.349 153.104L556.601 153.589L556.154 172.138H595.106V153.194H585.579V88.4695H595.106V69.5257H551.751L545.705 85.5096C529.283 128.93 524.148 142.144 523.697 142.144C523.427 142.144 518.245 129.978 512.182 115.109C506.119 100.241 499.398 83.9009 497.246 78.8003L493.334 69.5257H450.614V88.4695ZM610.587 88.0749L621.305 88.5414V153.194H610.19V172.138H653.061V153.194H643.534V134.25H652.594C671.593 134.25 682.229 130.035 688.822 119.893C692.65 114.006 694.727 105.513 694.135 98.1775C693.057 84.8197 681.305 73.1219 666.213 70.3813C663.459 69.8809 650.839 69.5257 635.821 69.5257H610.14L610.587 88.0749ZM735.001 70.8889C734.615 71.6585 728.256 90.491 720.871 112.738L707.444 153.189L699.902 153.194V172.138H738.803V153.194H733.643C730.805 153.194 728.483 152.98 728.483 152.718C728.483 152.455 729.418 149.259 730.561 145.614L732.64 138.986H764.158L766.168 145.539C767.274 149.143 768.178 152.322 768.178 152.604C768.178 152.885 766.124 153.222 763.613 153.352L759.048 153.589L758.601 172.138H797.553V153.194H793.583C790.936 153.194 789.615 152.866 789.617 152.208C789.619 151.665 785.301 138.079 780.023 122.016C774.745 105.953 768.736 87.6605 766.671 81.3656L762.914 69.9204L749.309 69.7049C736.949 69.5083 735.639 69.6165 735.001 70.8889ZM906.319 101.099H928.548V87.6802H940.457V153.119L930.533 153.589L930.086 172.138H974.645L974.198 153.589L963.48 153.122V87.6802H977.771V101.099H1000V69.5257H906.319V101.099ZM663.184 90.8083C669.478 94.35 671.747 103.999 667.614 109.642C664.656 113.682 659.978 115.307 651.305 115.307H643.534V88.2903L651.672 88.5998C658.44 88.8579 660.377 89.2289 663.184 90.8083ZM337.879 90.4176C337.879 90.6204 340.022 97.587 342.642 105.899C345.262 114.212 347.406 121.15 347.406 121.317C347.406 121.903 327.558 121.616 327.527 121.029C327.448 119.537 336.713 90.0482 337.26 90.0482C337.601 90.0482 337.879 90.2139 337.879 90.4176ZM753.03 103.664C755.37 111.152 757.455 118.256 757.661 119.451L758.038 121.621H747.939C738.715 121.621 737.885 121.504 738.364 120.264C738.652 119.518 740.891 112.414 743.34 104.477C745.789 96.5412 748.014 90.0482 748.284 90.0482C748.553 90.0482 750.69 96.1757 753.03 103.664Z" fill="white"/>
</svg>
