<?xml version="1.0" encoding="UTF-8"?>
<!DOCTYPE svg PUBLIC "-//W3C//DTD SVG 1.0//EN" "http://www.w3.org/TR/2001/REC-SVG-20010904/DTD/svg10.dtd">
<!-- Creator: CorelDRAW X7 -->
<svg xmlns="http://www.w3.org/2000/svg" xml:space="preserve" width="210mm" height="297mm" version="1.0" style="shape-rendering:geometricPrecision; text-rendering:geometricPrecision; image-rendering:optimizeQuality; fill-rule:evenodd; clip-rule:evenodd"
viewBox="0 0 21000 29700"
 xmlns:xlink="http://www.w3.org/1999/xlink">
 <defs>
  <style type="text/css">
   <![CDATA[
    .str0 {stroke:#E8112D;stroke-width:23.37}
    .fil3 {fill:none}
    .fil0 {fill:#FEFEFE}
    .fil2 {fill:#E8112D}
    .fil1 {fill:#0038A8}
   ]]>
  </style>
 </defs>
 <g id="Слой_x0020_1">
  <metadata id="CorelCorpID_0Corel-Layer"/>
  <g id="РСТ.cdr">
   <path class="fil0" d="M5752 12003c-298,-657 -464,-1386 -464,-2154 0,-773 168,-1507 470,-2167 237,-521 558,-996 946,-1408 370,-394 800,-730 1276,-994 750,-417 1612,-654 2531,-654 929,0 1802,243 2558,669 489,275 929,627 1304,1038 376,414 687,888 916,1406 285,645 444,1359 444,2110 0,761 -163,1485 -456,2137 -226,502 -528,962 -892,1365 -366,404 -795,751 -1271,1026 -766,441 -1655,694 -2603,694 -919,0 -1782,-237 -2532,-654 -490,-272 -932,-620 -1309,-1029 -375,-407 -686,-874 -918,-1385z"/>
   <path class="fil1" d="M4464 8078c-110,-37 -170,-157 -133,-267 37,-109 157,-168 267,-131 110,37 168,155 131,265 -37,110 -155,169 -265,133z"/>
   <path class="fil1" d="M5439 6832c11,7 24,19 9,41l-75 122c-14,23 -30,17 -41,10l-816 -509c-23,-14 -17,-29 -10,-41l129 -207c36,-57 87,-134 156,-172 57,-31 148,-50 270,26 167,104 210,284 98,463l-41 67 321 200zm-458 -285l24 -39c46,-73 81,-152 -42,-228 -116,-73 -168,7 -198,56l-35 55 251 156z"/>
   <path class="fil1" d="M6340 5764c-256,259 -566,-36 -642,-112 -77,-76 -377,-382 -121,-641 255,-259 568,40 643,113 76,75 375,381 120,640zm-269 -489c-102,-101 -279,-252 -380,-151 -100,102 55,278 156,378 87,86 272,256 378,149 106,-107 -67,-290 -154,-376z"/>
   <path class="fil1" d="M7525 4690c11,5 15,9 18,14 6,9 2,24 -1,31 -20,65 -81,137 -156,186 -285,186 -490,-50 -606,-227 -252,-386 -116,-581 16,-668 61,-40 150,-71 228,-60 27,4 40,10 45,17 4,7 4,14 4,21l0 100c0,8 2,16 -6,21 -8,6 -25,4 -35,3 -49,-5 -93,-3 -133,23 -42,28 -67,66 -75,106 -12,63 20,147 127,312 36,55 133,195 218,227 35,13 86,18 144,-19 35,-23 61,-57 82,-99 7,-15 12,-29 21,-35 10,-6 17,-2 25,2l84 45z"/>
   <path class="fil1" d="M8631 4193c10,8 13,13 16,18 3,10 -4,24 -8,30 -33,60 -107,118 -190,151 -317,124 -471,-148 -548,-345 -169,-429 3,-593 150,-651 68,-26 161,-39 236,-12 26,9 37,17 40,25 3,7 1,15 1,21l-21 98c-2,9 -2,17 -10,20 -10,4 -26,-1 -35,-4 -48,-15 -90,-22 -135,-4 -47,18 -79,50 -95,88 -24,60 -10,149 62,332 24,61 90,217 167,265 32,20 81,36 145,11 39,-16 72,-43 100,-80 11,-14 19,-26 28,-30 11,-5 17,1 24,7l73 60z"/>
   <path class="fil1" d="M9772 3003c26,-4 32,12 34,25l146 951c2,13 2,29 -25,34l-141 21c-26,4 -32,-11 -34,-25l-72 -468c-6,-40 -14,-111 -19,-163l-6 1c-21,109 -37,160 -52,210l-136 469c-5,17 -8,27 -30,30l-141 22c-27,4 -32,-12 -35,-25l-146 -950c-4,-27 12,-32 25,-34l141 -22c27,-4 32,12 34,25l66 424c10,70 3,39 26,208l6 -1c14,-63 47,-192 62,-244l123 -429c6,-21 7,-33 34,-37l140 -22z"/>
   <path class="fil1" d="M11423 3022c27,3 28,19 27,33l-80 958c-1,13 -6,29 -32,27l-143 -12c-27,-2 -28,-19 -27,-32l39 -473c4,-40 13,-111 20,-163l-6 0c-46,101 -73,146 -100,192l-242 424c-9,16 -14,24 -36,22l-143 -12c-26,-2 -28,-19 -27,-32l81 -958c2,-27 19,-28 32,-27l142 12c27,2 29,19 28,32l-36 428c-6,70 -6,38 -24,207l6 1c29,-58 91,-175 118,-222l221 -389c10,-18 14,-30 41,-27l141 11zm-87 -249c6,0 15,7 13,22 -1,22 -10,50 -36,81 -36,40 -98,78 -203,69 -106,-9 -160,-57 -189,-102 -21,-35 -25,-64 -23,-86 1,-15 11,-20 17,-20l97 -2c4,0 9,-1 13,0 14,1 14,19 17,33 9,36 32,62 77,66 44,4 72,-18 87,-53 5,-11 8,-23 14,-27 8,-5 13,0 21,0l95 19z"/>
   <path class="fil1" d="M12636 4275c3,12 2,18 1,24 -3,10 -18,16 -25,19 -63,25 -158,23 -243,-3 -324,-103 -272,-411 -208,-613 138,-440 375,-458 526,-411 70,22 150,71 191,138 14,24 18,37 15,46 -2,7 -8,11 -13,16l-77 63c-7,6 -12,12 -20,9 -10,-3 -20,-17 -25,-25 -28,-41 -57,-74 -102,-88 -49,-15 -94,-11 -130,9 -56,31 -101,109 -160,296 -20,63 -67,226 -38,312 13,35 41,79 107,99 39,13 82,12 127,2 17,-4 31,-9 41,-6 12,3 12,11 14,20l19 93z"/>
   <path class="fil1" d="M13207 4633c-13,-7 -25,-16 -11,-41l477 -835c14,-24 27,-18 40,-11l125 71c12,8 25,16 11,41l-189 330 44 25c62,36 106,37 166,-34l82 -99c39,-48 80,-92 158,-94 51,-1 103,16 128,31 11,6 20,14 16,29l-25 108c-4,15 -15,24 -29,20l-36 -11c-35,-9 -57,-9 -105,50l-68 83c-38,47 -88,84 -172,68l-3 4c78,84 48,176 39,204l-42 120c-23,68 -26,88 8,120l29 27c15,13 5,27 -2,33l-90 79c-9,8 -17,16 -39,3 -14,-8 -87,-55 -111,-119 -20,-58 3,-114 19,-160l58 -173c14,-43 31,-97 -49,-142l-56 -32 -208 365c-14,24 -28,18 -41,11l-124 -71z"/>
   <path class="fil1" d="M15458 5036c19,18 11,32 1,42l-654 704c-9,10 -22,20 -42,2l-105 -97c-19,-19 -10,-33 -1,-43l322 -347c28,-29 78,-80 116,-116l-4 -4c-99,51 -149,70 -197,90l-452 184c-17,7 -26,10 -43,-5l-105 -97c-19,-18 -10,-32 -1,-42l654 -705c18,-19 32,-11 42,-1l105 97c20,18 11,32 2,42l-292 315c-48,51 -29,26 -147,149l5 4c58,-28 179,-82 229,-103l413 -169c20,-8 30,-15 50,3l104 97z"/>
   <path class="fil1" d="M16466 6341c15,22 3,34 -9,41l-801 531c-11,7 -27,14 -42,-9l-79 -119c-14,-22 -2,-34 9,-41l395 -262c34,-22 95,-59 140,-85l-3 -5c-108,26 -161,32 -213,40l-482 73c-18,3 -28,4 -41,-15l-79 -119c-14,-22 -2,-34 9,-41l802 -531c22,-15 33,-3 41,8l79 120c15,22 3,34 -9,41l-357 237c-59,39 -34,19 -178,110l3 5c63,-13 194,-37 247,-45l442 -67c21,-4 33,-8 48,15l78 118zm142 -223c3,5 3,16 -9,24 -19,12 -46,23 -86,21 -54,-3 -123,-28 -181,-116 -58,-89 -54,-161 -37,-212 15,-38 35,-59 54,-71 12,-8 22,-4 25,1l62 75c3,4 7,7 9,10 8,11 -7,23 -15,34 -24,29 -29,64 -5,101 25,37 59,45 95,35 13,-2 23,-8 30,-5 9,3 9,10 13,16l45 87z"/>
   <path class="fil1" d="M16426 7648c110,-37 230,21 268,131 37,109 -22,229 -132,267 -110,37 -228,-22 -265,-132 -38,-109 20,-228 129,-266z"/>
   <path class="fil1" d="M3614 9318c-11,5 -17,5 -23,5 -11,-2 -19,-15 -23,-21 -37,-57 -52,-151 -42,-239 41,-338 354,-343 564,-318 458,56 520,285 501,442 -9,73 -42,160 -101,213 -20,19 -33,25 -42,24 -7,-1 -13,-6 -18,-10l-77 -65c-6,-5 -14,-9 -12,-18 1,-10 13,-22 20,-29 35,-35 62,-69 68,-116 6,-51 -7,-94 -33,-126 -41,-50 -125,-80 -321,-103 -65,-8 -234,-24 -313,20 -32,19 -70,55 -78,123 -5,41 3,83 22,126 7,16 15,28 13,39 -1,12 -9,14 -17,17l-88 36z"/>
   <path class="fil1" d="M3509 10447c-30,-363 396,-405 503,-414 108,-9 535,-37 565,326 30,362 -400,405 -504,414 -107,9 -534,36 -564,-326zm546 115c143,-12 373,-47 361,-190 -11,-143 -246,-140 -387,-128 -122,10 -372,40 -360,190 13,150 264,138 386,128z"/>
   <path class="fil1" d="M4412 11804c60,-19 157,-38 253,-25 142,18 233,92 278,223 118,344 -290,492 -387,525 -101,34 -509,166 -627,-178 -45,-131 -17,-244 83,-347 83,-83 189,-127 245,-145l-39 -114 -391 134c-29,10 -33,-1 -40,-20l-44 -131c-7,-18 -11,-30 19,-40l907 -310c29,-10 33,1 40,19l44 132c7,18 11,29 -19,39l-361 124 39 114zm75 523c118,-41 357,-132 308,-274 -47,-137 -275,-75 -411,-28 -119,40 -356,131 -307,273 49,143 292,69 410,29z"/>
   <path class="fil1" d="M5025 13237c11,-7 26,-13 41,10l17 26c85,134 185,71 206,58 25,-16 110,-80 41,-189 -15,-23 -45,-60 -112,-86 -14,-5 -24,-10 -28,-16 -3,-5 -2,-13 2,-24l37 -84c3,-7 5,-12 13,-17 16,-10 41,-1 59,8 63,29 131,80 184,164 97,152 74,299 -71,392 -139,88 -245,24 -279,-1 43,109 3,215 -114,290 -137,87 -315,90 -460,-138 -55,-85 -87,-185 -78,-252 0,-8 3,-24 12,-29 5,-3 10,-5 22,-6l96 -6c8,0 16,-1 23,9 5,8 3,22 5,41 1,29 9,84 50,148 27,43 61,79 118,87 42,7 78,-9 103,-25 65,-41 81,-87 81,-124 -1,-40 -21,-75 -40,-103l-23 -37c-14,-23 -2,-34 9,-41l86 -55z"/>
   <path class="fil1" d="M6249 15428c-17,21 -32,13 -42,4l-112 -89c-21,-17 -13,-32 -4,-42l509 -633 -155 -125c-17,-14 -7,-26 -3,-31l84 -105c3,-4 14,-17 31,-3l494 397c23,19 4,30 -5,36l-103 76c-18,13 -30,7 -39,-1l-146 -117 -509 633z"/>
   <path class="fil1" d="M7352 15843c-12,-6 -10,-12 -9,-20l86 -718c2,-14 3,-21 5,-26 6,-11 19,-7 47,4l124 52c41,16 35,19 31,47l-64 371c-12,72 -24,123 -43,218l6 2c73,-86 102,-118 144,-165l246 -271c13,-14 23,-29 45,-14l114 77c10,7 27,16 19,31 -1,2 -5,6 -17,20l-571 599c-34,36 -87,83 -144,97 -43,10 -100,7 -170,-30 -48,-25 -91,-61 -131,-110 -29,-37 -23,-46 -12,-55l93 -78c6,-5 14,-4 18,-2 5,3 10,10 16,20 23,35 44,58 69,71 76,40 131,-15 151,-37l35 -38 -88 -45z"/>
   <path class="fil1" d="M8619 16634c-3,13 -10,28 -36,21l-139 -37c-25,-7 -24,-24 -21,-37l251 -928c7,-26 24,-24 37,-21l236 64c65,18 153,45 209,100 47,45 91,126 53,266 -51,190 -210,283 -415,227l-76 -20 -99 365zm141 -521l45 12c83,23 168,34 206,-106 36,-132 -56,-159 -111,-173l-63 -18 -77 285z"/>
   <path class="fil1" d="M10609 15911c27,1 30,18 29,31l-34 961c-1,13 -4,30 -31,29l-143 -5c-27,-1 -29,-18 -29,-31l17 -474c2,-40 7,-112 12,-164l-6 0c-41,103 -67,150 -91,197l-221 435c-8,16 -13,25 -35,24l-143 -5c-27,-1 -29,-18 -29,-31l34 -961c1,-27 18,-29 31,-29l143 6c27,0 30,17 29,30l-15 429c-3,70 -5,39 -14,209l6 0c26,-59 83,-179 107,-227l202 -399c10,-19 13,-31 40,-30l141 5z"/>
   <path class="fil1" d="M11351 15884c-6,-28 9,-32 23,-35l140 -29c15,-3 30,-4 36,24l75 372 276 -56 -75 -372c-6,-28 8,-33 23,-35l140 -29c28,-5 32,9 35,23l191 943c3,14 4,29 -23,35l-141 28c-14,3 -29,5 -35,-23l-83 -412 -276 56 83 412c6,28 -9,32 -23,35l-140 28c-15,3 -30,5 -36,-23l-190 -942z"/>
   <path class="fil1" d="M13196 16386l89 192c11,24 -2,34 -15,40l-117 54c-25,11 -34,-3 -40,-15l-143 -311c-6,-12 -10,-29 14,-40l26 -12c8,-97 -4,-173 -29,-262 -35,-125 -91,-250 -102,-275l-119 -262c-5,-12 -9,-28 15,-39l443 -204c24,-11 34,2 39,15l347 754 55 -25c24,-11 33,2 39,14l143 312c6,12 10,28 -14,39l-118 55c-24,11 -34,-3 -40,-15l-88 -192 -385 177zm-68 -916l-140 65 76 170c63,145 93,241 106,307 16,69 22,133 20,199l230 -106 -292 -635z"/>
   <path class="fil1" d="M14442 15346c-11,8 -16,4 -23,0l-611 -385c-12,-8 -18,-11 -22,-16 -7,-9 2,-20 24,-40l100 -91c31,-29 33,-23 56,-7l308 216c60,42 101,75 178,132l5 -4c-47,-103 -63,-142 -87,-201l-141 -339c-7,-16 -15,-33 7,-45l119 -70c10,-6 26,-18 36,-5 1,3 3,7 10,24l298 773c18,46 37,114 25,172 -9,42 -36,92 -99,140 -43,33 -94,56 -156,71 -46,11 -51,2 -54,-13l-31 -117c-2,-7 2,-14 5,-17 5,-3 14,-4 26,-6 41,-5 71,-15 94,-32 67,-51 41,-125 30,-152l-19 -47 -78 59z"/>
   <path class="fil1" d="M15855 14274c11,3 17,6 21,10 8,7 8,23 7,30 -2,68 -43,153 -102,220 -226,254 -486,80 -644,-61 -344,-306 -264,-530 -159,-648 48,-55 125,-108 204,-118 27,-3 41,-1 48,5 5,5 7,12 9,18l26 97c3,8 6,16 0,22 -7,8 -23,11 -33,13 -49,8 -90,21 -122,57 -34,37 -48,80 -45,121 5,65 58,138 205,268 49,44 178,154 269,162 37,3 88,-5 134,-56 27,-31 44,-70 53,-116 3,-17 5,-32 12,-40 7,-9 15,-6 24,-5l93 21z"/>
   <path class="fil1" d="M16518 13409c23,14 17,29 10,41l-74 123c-13,23 -29,17 -40,10l-698 -417 -101 170c-12,19 -26,11 -31,8l-115 -69c-5,-3 -19,-12 -8,-31l325 -543c16,-26 30,-9 37,-1l89 92c15,15 11,28 5,39l-97 161 698 417z"/>
   <path class="fil1" d="M17032 12314c13,5 27,13 18,38l-48 135c-9,25 -25,23 -38,18l-905 -322c-26,-9 -23,-25 -19,-38l82 -230c23,-64 57,-150 116,-201 49,-43 133,-81 269,-33 186,66 266,232 195,432l-26 74 356 127zm-508 -181l15 -43c29,-82 47,-166 -90,-214 -129,-46 -162,43 -181,97l-22 62 278 98z"/>
   <path class="fil1" d="M16473 10273c3,-27 19,-28 33,-26l954 114c14,2 30,7 26,34l-17 142c-3,26 -20,27 -33,26l-470 -57c-40,-5 -111,-16 -163,-25l0 5c99,50 143,79 188,107l415 257c15,10 24,15 21,37l-17 142c-3,27 -20,28 -33,26l-955 -114c-26,-4 -27,-20 -26,-33l17 -143c4,-26 20,-27 34,-26l426 52c69,8 38,7 206,30l1 -5c-56,-31 -172,-98 -218,-126l-380 -235c-18,-11 -29,-15 -26,-42l17 -140z"/>
   <path class="fil1" d="M16409 8866c-3,-27 13,-32 26,-33l956 -103c13,-2 30,0 33,26l15 143c3,26 -13,31 -26,32l-471 51c-40,4 -112,9 -164,12l1 6c107,26 157,44 207,61l462 157c17,6 27,9 29,32l15 142c3,27 -13,31 -26,33l-956 103c-27,3 -31,-13 -33,-27l-15 -142c-3,-27 13,-31 26,-33l427 -46c70,-7 39,-1 208,-16l0 -6c-62,-17 -189,-56 -241,-73l-423 -143c-20,-7 -32,-9 -35,-36l-15 -140z"/>
   <path class="fil1" d="M15398 7691l0 0c0,0 0,0 0,0l-55 -124 -2 2c-208,-439 -473,-846 -791,-1213l2 -2 -91 -100c-386,-423 -834,-780 -1333,-1061l-58 -33 -1 1c-781,-426 -1663,-652 -2557,-652 -882,0 -1754,220 -2527,636l-1 0 -59 32c-485,269 -924,612 -1305,1017l-92 98 2 2c-328,367 -603,776 -818,1217l-2 -1 -57 123c-318,698 -480,1443 -480,2215 0,768 160,1509 474,2203l0 0c1,0 1,1 1,1l55 123 3 -2c209,431 474,832 792,1194l-2 2 90 98c389,421 839,775 1338,1052l59 33 1 -1c773,416 1646,637 2528,637 913,0 1811,-235 2603,-677l1 1 59 -34c485,-280 922,-633 1298,-1049l90 -99 -2 -2c306,-356 564,-749 766,-1172l3 2 55 -124c310,-689 467,-1424 467,-2186 0,-750 -153,-1475 -454,-2157zm-257 2c-1373,847 -2951,1296 -4572,1296 -1657,0 -3266,-468 -4659,-1351 212,-440 485,-847 814,-1211 1141,776 2473,1187 3859,1187 1349,0 2650,-390 3771,-1128 318,364 583,770 787,1207zm-2316 -2396c-702,368 -1487,563 -2286,563 -808,0 -1603,-199 -2312,-577 706,-354 1491,-540 2285,-540 805,0 1600,191 2313,554zm-4840 117c775,444 1656,680 2554,680 887,0 1759,-231 2528,-664 414,240 790,536 1122,881 -1075,698 -2317,1069 -3606,1069 -1325,0 -2598,-391 -3692,-1125 326,-329 692,-612 1094,-841zm-2081 6633c1385,-868 2982,-1328 4625,-1328 1633,0 3221,454 4599,1312 -199,421 -455,813 -762,1165 -1130,-754 -2445,-1153 -3810,-1153 -1389,0 -2722,412 -3864,1190 -318,-358 -582,-756 -788,-1186zm2320 2366c720,-395 1531,-603 2359,-603 800,0 1587,195 2290,566 -725,378 -1537,578 -2361,578 -795,0 -1582,-187 -2288,-541zm4888 -172c-769,-434 -1641,-665 -2529,-665 -917,0 -1813,245 -2600,706 -415,-238 -792,-532 -1126,-875 1096,-738 2371,-1130 3699,-1130 1306,0 2562,380 3646,1095 -323,338 -688,631 -1090,869zm2108 -2425c-1409,-869 -3026,-1331 -4691,-1331 -1675,0 -3302,468 -4717,1347 -265,-628 -405,-1294 -405,-1984 0,-694 138,-1365 408,-1997 1424,895 3063,1371 4754,1371 1652,0 3260,-456 4662,-1313 254,616 387,1267 387,1939 0,684 -137,1344 -398,1968z"/>
   <polygon class="fil0" points="12711,12709 10698,12709 10698,10349 12711,10349 "/>
   <path class="fil2" d="M12289 12007c-310,78 -593,157 -1015,157 -1440,0 -2595,-683 -2595,-2076 0,-1309 1204,-1963 2595,-1963 459,0 556,50 1002,123l0 1029c-273,-78 -375,-145 -655,-145 -707,0 -1241,341 -1241,979 0,671 497,1012 1186,1012 304,0 419,-56 723,-151l0 1035z"/>
   <path class="fil0" d="M12289 12026c-310,78 -593,156 -1015,156 -1440,0 -2595,-682 -2595,-2075 0,-1309 1204,-1964 2595,-1964 459,0 556,51 1003,123l0 1030c-273,-79 -376,-146 -656,-146 -707,0 -1241,341 -1241,979 0,671 497,1013 1186,1013 304,0 419,-56 723,-151l0 1035z"/>
   <path class="fil2" d="M12289 12007c-310,78 -593,157 -1015,157 -1440,0 -2595,-683 -2595,-2076 0,-1309 1204,-1963 2595,-1963 459,0 556,50 1002,123l0 1029c-273,-78 -375,-145 -655,-145 -707,0 -1241,341 -1241,979 0,671 497,1012 1186,1012 304,0 419,-56 723,-151l0 1035z"/>
   <path class="fil0" d="M12289 12026c-310,78 -593,156 -1015,156 -1440,0 -2595,-682 -2595,-2075 0,-1309 1204,-1964 2595,-1964 459,0 556,51 1003,123l0 1030c-273,-79 -376,-146 -656,-146 -707,0 -1241,341 -1241,979 0,671 497,1013 1186,1013 304,0 419,-56 723,-151l0 1035z"/>
   <path class="fil2" d="M12289 12007c-310,78 -593,157 -1015,157 -1440,0 -2595,-683 -2595,-2076 0,-1309 1204,-1963 2595,-1963 459,0 556,50 1002,123l0 1029c-273,-78 -375,-145 -655,-145 -707,0 -1241,341 -1241,979 0,671 497,1012 1186,1012 304,0 419,-56 723,-151l0 1035z"/>
   <path class="fil0" d="M12289 12026c-310,78 -593,156 -1015,156 -1440,0 -2595,-682 -2595,-2075 0,-1309 1204,-1964 2595,-1964 459,0 556,51 1003,123l0 1030c-273,-79 -376,-146 -656,-146 -707,0 -1241,341 -1241,979 0,671 497,1013 1186,1013 304,0 419,-56 723,-151l0 1035z"/>
   <path class="fil2" d="M12289 12007c-310,78 -593,157 -1015,157 -1440,0 -2595,-683 -2595,-2076 0,-1309 1204,-1963 2595,-1963 459,0 556,50 1002,123l0 1029c-273,-78 -375,-145 -655,-145 -707,0 -1241,341 -1241,979 0,671 497,1012 1186,1012 304,0 419,-56 723,-151l0 1035z"/>
   <path class="fil2" d="M12085 10739c-206,67 -300,97 -519,97 -283,0 -933,-74 -951,-750 18,-668 773,-721 1006,-721 27,0 51,1 74,3l-1 -3 818 0 -2 -141 0 -1028 1 0 0 -355 -1060 0c-53,-2 -112,-3 -177,-3 -1692,0 -2828,883 -2828,2197 0,10 0,19 0,28 0,8 0,17 0,25 0,1403 1110,2309 2828,2309 426,0 727,-76 1018,-150l231 -58 0 -182 0 -53 0 -1302 0 -53 -438 140z"/>
   <path class="fil3 str0" d="M12085 10739c-206,67 -300,97 -519,97 -283,0 -933,-74 -951,-750 18,-668 773,-721 1006,-721 27,0 51,1 74,3l-1 -3 818 0 -2 -141 0 -1028 1 0 0 -355 -1060 0c-53,-2 -112,-3 -177,-3 -1692,0 -2828,883 -2828,2197 0,10 0,19 0,28 0,8 0,17 0,25 0,1403 1110,2309 2828,2309 426,0 727,-76 1018,-150l231 -58 0 -182 0 -53 0 -1302 0 -53 -438 140z"/>
   <path class="fil2 str0" d="M11247 9577l0 1613c0,0 763,0 1045,0 0,454 0,2674 0,2674l2033 0c0,0 0,-2220 0,-2674 282,0 1046,0 1046,0l0 -1613 -4124 0z"/>
   <polygon class="fil0" points="15145,10949 14099,10949 14099,13624 12533,13624 12533,10949 11487,10949 11487,9830 15145,9830 "/>
   <polygon class="fil2" points="15195,10996 15195,9808 11427,9808 11427,10996 12417,10996 12415,11728 14227,11728 14228,10996 "/>
   <path class="fil0" d="M12289 12026c-310,78 -593,156 -1015,156 -1440,0 -2595,-682 -2595,-2075 0,-1309 1204,-1964 2595,-1964 459,0 556,51 1003,123l0 1030c-273,-79 -376,-146 -656,-146 -707,0 -1241,341 -1241,979 0,671 497,1013 1186,1013 304,0 419,-56 723,-151l0 1035z"/>
   <path class="fil2" d="M8668 10031l1729 0c46,-583 560,-855 1236,-855 279,0 385,68 658,147l0 -1123c-447,-73 -571,-71 -1030,-71 -1369,0 -2556,635 -2593,1902z"/>
   <path class="fil2" d="M6083 9967l1565 0 0 -1093 956 0c817,0 1501,-407 1501,-1396 0,-1022 -859,-1305 -1496,-1305l-2526 0 0 3794z"/>
   <path class="fil2 str0" d="M6083 5939l-234 0 0 4262 2033 0c0,0 0,-804 0,-1093 267,0 722,0 722,0 1070,0 1735,-625 1735,-1630 0,-1136 -932,-1539 -1730,-1539l-2526 0zm2526 468c296,0 1262,77 1262,1071 0,1012 -794,1163 -1267,1163l-1189 0c0,0 0,803 0,1092 -279,0 -820,0 -1098,0 0,-384 0,-2942 0,-3326 384,0 2292,0 2292,0z"/>
   <path class="fil0" d="M6089 9957l1566 0 0 -1092 955 0c818,0 1501,-408 1501,-1397 0,-1022 -858,-1305 -1495,-1305l-2527 0 0 3794z"/>
   <path class="fil2" d="M10163 7480c0,-1021 -880,-1356 -1532,-1356l-2588 0 0 1862 0 0 0 111 4012 0 0 -111 35 0c47,-148 73,-316 73,-506zm-2225 -372c389,0 608,-2 608,400 0,319 -125,434 -349,472l-494 0 0 -872 235 0z"/>
  </g>
 </g>
</svg>
