<svg width="200" height="200" viewBox="0 0 200 200" fill="none" xmlns="http://www.w3.org/2000/svg">
<path fill-rule="evenodd" clip-rule="evenodd" d="M56.3784 119.373C53.6213 113.294 52.0855 106.55 52.0855 99.4442C52.0855 92.2924 53.6398 85.5015 56.4339 79.3952C58.6266 74.5749 61.5965 70.1802 65.1863 66.3684C68.6095 62.7231 72.5878 59.6145 76.9918 57.1719C83.9308 53.3139 91.906 51.1211 100.409 51.1211C109.004 51.1211 117.081 53.3694 124.075 57.3107C128.599 59.855 132.67 63.1117 136.14 66.9143C139.618 70.7446 142.496 75.13 144.614 79.9225C147.251 85.8901 148.722 92.496 148.722 99.4442C148.722 106.485 147.214 113.183 144.503 119.216C142.413 123.86 139.618 128.116 136.251 131.845C132.864 135.582 128.895 138.793 124.491 141.337C117.404 145.417 109.179 147.758 100.409 147.758C91.906 147.758 83.9215 145.565 76.9825 141.707C72.4491 139.191 68.3597 135.971 64.8717 132.187C61.4022 128.421 58.5248 124.101 56.3784 119.373Z" fill="#FEFEFE"/>
<path fill-rule="evenodd" clip-rule="evenodd" d="M44.4618 83.059C43.4441 82.7166 42.889 81.6064 43.2313 80.5887C43.5736 79.5802 44.6839 79.0344 45.7016 79.3767C46.7193 79.719 47.2559 80.8107 46.9136 81.8285C46.5713 82.8462 45.4795 83.392 44.4618 83.059Z" fill="#0038A8"/>
<path fill-rule="evenodd" clip-rule="evenodd" d="M53.4825 71.531C53.5843 71.5958 53.7046 71.7068 53.5658 71.9103L52.8719 73.0391C52.7423 73.2519 52.5943 73.1964 52.4925 73.1316L44.9429 68.4223C44.7301 68.2928 44.7856 68.154 44.8504 68.043L46.0439 66.1279C46.377 65.6005 46.8488 64.8881 47.4872 64.5365C48.0146 64.2497 48.8565 64.0739 49.9853 64.7771C51.5303 65.7393 51.9282 67.4046 50.892 69.0607L50.5126 69.6806L53.4825 71.531ZM49.2451 68.8942L49.4671 68.5334C49.8927 67.858 50.2166 67.1271 49.0786 66.4239C48.0053 65.7485 47.5242 66.4887 47.2467 66.942L46.9229 67.4509L49.2451 68.8942Z" fill="#0038A8"/>
<path fill-rule="evenodd" clip-rule="evenodd" d="M61.8185 61.6499C59.45 64.0462 56.5819 61.3168 55.8788 60.6137C55.1664 59.9105 52.3908 57.0794 54.7593 54.6832C57.1185 52.2869 60.0144 55.0532 60.7083 55.7286C61.4115 56.4225 64.1778 59.2536 61.8185 61.6499ZM59.3298 57.1257C58.3861 56.1912 56.7485 54.7942 55.814 55.7286C54.8888 56.6723 56.3229 58.3007 57.2573 59.2259C58.0622 60.0216 59.7739 61.5944 60.7546 60.6044C61.7353 59.6145 60.1347 57.9214 59.3298 57.1257Z" fill="#0038A8"/>
<path fill-rule="evenodd" clip-rule="evenodd" d="M72.7821 51.7133C72.8839 51.7595 72.9209 51.7965 72.9487 51.8428C73.0042 51.9261 72.9672 52.0648 72.9394 52.1296C72.7544 52.731 72.19 53.3971 71.4961 53.8505C68.8593 55.5713 66.9626 53.3879 65.8894 51.7503C63.5579 48.179 64.8162 46.3749 66.0374 45.5699C66.6018 45.1999 67.4252 44.9131 68.1469 45.0148C68.3967 45.0518 68.517 45.1074 68.5632 45.1721C68.6002 45.2369 68.6002 45.3016 68.6002 45.3664V46.2916C68.6002 46.3656 68.6187 46.4396 68.5447 46.4859C68.4707 46.5414 68.3134 46.5229 68.2209 46.5137C67.7676 46.4674 67.3605 46.4859 66.9904 46.7264C66.6018 46.9855 66.3705 47.3371 66.2965 47.7072C66.1855 48.29 66.4815 49.0672 67.4715 50.5938C67.8046 51.1026 68.702 52.3979 69.4884 52.694C69.8122 52.8142 70.2841 52.8605 70.8207 52.5182C71.1445 52.3054 71.3851 51.9908 71.5794 51.6022C71.6441 51.4635 71.6904 51.3339 71.7737 51.2784C71.8662 51.2229 71.9309 51.2599 72.005 51.2969L72.7821 51.7133Z" fill="#0038A8"/>
<path fill-rule="evenodd" clip-rule="evenodd" d="M83.0148 47.115C83.1073 47.189 83.1351 47.2353 83.1628 47.2816C83.1906 47.3741 83.1258 47.5036 83.0888 47.5591C82.7835 48.1142 82.0989 48.6509 81.331 48.9562C78.3981 50.1034 76.9733 47.5869 76.2609 45.7642C74.6973 41.7951 76.2886 40.2778 77.6487 39.7412C78.2778 39.5007 79.1382 39.3804 79.8321 39.6302C80.0727 39.7134 80.1745 39.7875 80.2022 39.8615C80.23 39.9262 80.2115 40.0003 80.2115 40.0558L80.0172 40.9625C79.9987 41.0457 79.9987 41.1198 79.9247 41.1475C79.8321 41.1845 79.6841 41.1383 79.6008 41.1105C79.1567 40.9717 78.7682 40.907 78.3518 41.0735C77.917 41.24 77.6209 41.5361 77.4729 41.8877C77.2508 42.4428 77.3804 43.2662 78.0465 44.9593C78.2686 45.5237 78.8792 46.967 79.5916 47.4111C79.8876 47.5961 80.341 47.7442 80.9331 47.5129C81.294 47.3648 81.5993 47.115 81.8583 46.7727C81.9601 46.6432 82.0341 46.5322 82.1174 46.4951C82.2191 46.4489 82.2747 46.5044 82.3394 46.5599L83.0148 47.115Z" fill="#0038A8"/>
<path fill-rule="evenodd" clip-rule="evenodd" d="M93.5713 36.1052C93.8119 36.0682 93.8674 36.2162 93.8859 36.3365L95.2367 45.1351C95.2552 45.2554 95.2552 45.4034 95.0054 45.4497L93.7009 45.644C93.4603 45.681 93.4048 45.5422 93.3863 45.4127L92.7201 41.0827C92.6646 40.7127 92.5906 40.0558 92.5444 39.5747L92.4888 39.5839C92.2946 40.5924 92.1465 41.0642 92.0077 41.5268L90.7495 45.866C90.7032 46.0233 90.6755 46.1158 90.4719 46.1436L89.1674 46.3471C88.9176 46.3841 88.8713 46.2361 88.8436 46.1158L87.4928 37.3264C87.4558 37.0766 87.6038 37.0304 87.7241 37.0119L89.0286 36.8083C89.2784 36.7713 89.3247 36.9194 89.3432 37.0396L89.9538 40.9625C90.0463 41.6101 89.9816 41.3233 90.1944 42.8869L90.2499 42.8776C90.3794 42.2948 90.6847 41.1012 90.8235 40.6201L91.9615 36.651C92.017 36.4568 92.0262 36.3457 92.2761 36.3087L93.5713 36.1052Z" fill="#0038A8"/>
<path fill-rule="evenodd" clip-rule="evenodd" d="M108.846 36.281C109.096 36.3087 109.105 36.4568 109.096 36.5863L108.356 45.4497C108.347 45.57 108.3 45.718 108.06 45.6995L106.737 45.5885C106.487 45.57 106.478 45.4127 106.487 45.2924L106.848 40.9162C106.885 40.5461 106.968 39.8892 107.033 39.4081H106.977C106.552 40.3426 106.302 40.7589 106.052 41.1845L103.813 45.1074C103.73 45.2554 103.684 45.3294 103.48 45.3109L102.157 45.1999C101.917 45.1814 101.898 45.0241 101.907 44.9038L102.657 36.0404C102.675 35.7906 102.833 35.7814 102.953 35.7906L104.267 35.9016C104.516 35.9201 104.535 36.0774 104.526 36.1977L104.193 40.1575C104.137 40.8052 104.137 40.5091 103.971 42.0727L104.026 42.082C104.294 41.5453 104.868 40.4629 105.118 40.028L107.162 36.429C107.255 36.2625 107.292 36.1514 107.542 36.1792L108.846 36.281ZM108.041 33.9772C108.097 33.9772 108.18 34.042 108.162 34.1808C108.152 34.3843 108.069 34.6434 107.829 34.9302C107.496 35.3003 106.922 35.6518 105.95 35.5686C104.97 35.4853 104.47 35.0412 104.202 34.6249C104.008 34.301 103.971 34.0327 103.989 33.8292C103.998 33.6904 104.091 33.6442 104.146 33.6442L105.044 33.6256C105.081 33.6256 105.127 33.6164 105.164 33.6256C105.294 33.6349 105.294 33.8014 105.321 33.931C105.405 34.264 105.617 34.5046 106.034 34.5416C106.441 34.5786 106.7 34.3751 106.839 34.0512C106.885 33.9495 106.913 33.8384 106.968 33.8014C107.042 33.7552 107.088 33.8014 107.162 33.8014L108.041 33.9772Z" fill="#0038A8"/>
<path fill-rule="evenodd" clip-rule="evenodd" d="M120.069 47.8737C120.097 47.9847 120.088 48.0402 120.078 48.0957C120.05 48.1883 119.912 48.2438 119.847 48.2715C119.264 48.5028 118.385 48.4843 117.599 48.2438C114.601 47.2908 115.082 44.4412 115.674 42.5723C116.951 38.5014 119.144 38.3349 120.541 38.7697C121.188 38.9733 121.929 39.4266 122.308 40.0465C122.438 40.2686 122.475 40.3888 122.447 40.4721C122.428 40.5369 122.373 40.5739 122.326 40.6201L121.614 41.203C121.549 41.2585 121.503 41.314 121.429 41.2863C121.337 41.2585 121.244 41.129 121.198 41.055C120.939 40.6757 120.67 40.3703 120.254 40.2408C119.801 40.102 119.384 40.139 119.051 40.3241C118.533 40.6109 118.117 41.3325 117.571 43.0627C117.386 43.6455 116.951 45.1536 117.219 45.9493C117.34 46.2731 117.599 46.6802 118.209 46.8652C118.57 46.9855 118.968 46.9763 119.384 46.8837C119.542 46.8467 119.671 46.8005 119.764 46.8282C119.875 46.856 119.875 46.93 119.893 47.0133L120.069 47.8737Z" fill="#0038A8"/>
<path fill-rule="evenodd" clip-rule="evenodd" d="M125.352 51.1859C125.232 51.1211 125.121 51.0379 125.25 50.8066L129.663 43.0812C129.793 42.8591 129.913 42.9146 130.033 42.9794L131.19 43.6363C131.301 43.7103 131.421 43.7843 131.292 44.0156L129.543 47.0688L129.95 47.3001C130.524 47.6331 130.931 47.6424 131.486 46.9855L132.245 46.0695C132.605 45.6254 132.985 45.2184 133.706 45.1999C134.178 45.1906 134.659 45.3479 134.891 45.4867C134.992 45.5422 135.076 45.6162 135.039 45.755L134.807 46.7542C134.77 46.893 134.669 46.9762 134.539 46.9392L134.206 46.8375C133.882 46.7542 133.679 46.7542 133.235 47.3001L132.605 48.068C132.254 48.5028 131.791 48.8451 131.014 48.6971L130.986 48.7341C131.708 49.5113 131.43 50.3625 131.347 50.6215L130.959 51.7318C130.746 52.3609 130.718 52.5459 131.033 52.842L131.301 53.0918C131.44 53.2121 131.347 53.3416 131.282 53.3971L130.45 54.128C130.366 54.202 130.292 54.276 130.089 54.1558C129.959 54.0818 129.284 53.6469 129.062 53.0548C128.877 52.5182 129.09 52.0001 129.238 51.5745L129.774 49.9739C129.904 49.576 130.061 49.0764 129.321 48.6601L128.803 48.364L126.878 51.741C126.749 51.9631 126.619 51.9075 126.499 51.8428L125.352 51.1859Z" fill="#0038A8"/>
<path fill-rule="evenodd" clip-rule="evenodd" d="M146.178 54.9145C146.354 55.081 146.28 55.2105 146.187 55.303L140.137 61.8164C140.053 61.9089 139.933 62.0015 139.748 61.8349L138.776 60.9375C138.601 60.7617 138.684 60.6322 138.767 60.5397L141.746 57.3292C142.005 57.0609 142.468 56.5891 142.82 56.256L142.783 56.219C141.867 56.6908 141.404 56.8666 140.96 57.0517L136.778 58.754C136.621 58.8188 136.538 58.8465 136.38 58.7078L135.409 57.8103C135.233 57.6438 135.316 57.5143 135.4 57.4217L141.45 50.8991C141.617 50.7233 141.746 50.7973 141.839 50.8898L142.81 51.7873C142.995 51.9538 142.912 52.0833 142.829 52.1759L140.127 55.0902C139.683 55.5621 139.859 55.3308 138.767 56.4688L138.813 56.5058C139.35 56.2467 140.47 55.7471 140.932 55.5528L144.753 53.9893C144.938 53.9152 145.031 53.8505 145.216 54.017L146.178 54.9145Z" fill="#0038A8"/>
<path fill-rule="evenodd" clip-rule="evenodd" d="M155.504 66.9883C155.643 67.1918 155.532 67.3029 155.421 67.3676L148.01 72.2804C147.908 72.3452 147.76 72.4099 147.621 72.1972L146.89 71.0962C146.761 70.8926 146.872 70.7816 146.974 70.7168L150.628 68.2928C150.943 68.0893 151.507 67.747 151.924 67.5064L151.896 67.4601C150.897 67.7007 150.406 67.7562 149.925 67.8302L145.466 68.5056C145.299 68.5334 145.207 68.5426 145.086 68.3668L144.355 67.2658C144.226 67.0623 144.337 66.9513 144.439 66.8865L151.859 61.9737C152.062 61.8349 152.164 61.946 152.238 62.0477L152.969 63.158C153.108 63.3615 152.997 63.4725 152.886 63.5373L149.583 65.73C149.037 66.0908 149.268 65.9058 147.936 66.7477L147.964 66.794C148.547 66.6737 149.759 66.4517 150.249 66.3777L154.338 65.7578C154.533 65.7208 154.644 65.6838 154.782 65.8966L155.504 66.9883ZM156.818 64.9251C156.846 64.9714 156.846 65.0731 156.735 65.1471C156.559 65.2582 156.309 65.3599 155.939 65.3414C155.439 65.3137 154.801 65.0824 154.264 64.2682C153.728 63.4448 153.765 62.7786 153.922 62.3068C154.061 61.9552 154.246 61.7609 154.422 61.6499C154.533 61.5759 154.625 61.6129 154.653 61.6592L155.227 62.353C155.254 62.3901 155.291 62.4178 155.31 62.4456C155.384 62.5473 155.245 62.6584 155.171 62.7601C154.949 63.0284 154.903 63.3523 155.125 63.6946C155.356 64.0369 155.671 64.1109 156.004 64.0184C156.124 63.9999 156.216 63.9444 156.281 63.9721C156.365 63.9999 156.365 64.0647 156.402 64.1202L156.818 64.9251Z" fill="#0038A8"/>
<path fill-rule="evenodd" clip-rule="evenodd" d="M155.134 79.0806C156.152 78.7383 157.262 79.2749 157.614 80.2926C157.956 81.3011 157.41 82.4113 156.392 82.7629C155.375 83.1052 154.283 82.5594 153.94 81.5416C153.589 80.5332 154.126 79.4322 155.134 79.0806Z" fill="#0038A8"/>
<path fill-rule="evenodd" clip-rule="evenodd" d="M36.5976 94.5314C36.4959 94.5777 36.4404 94.5777 36.3849 94.5777C36.2831 94.5592 36.2091 94.4389 36.1721 94.3834C35.8297 93.856 35.691 92.9863 35.7835 92.1722C36.1628 89.045 39.0587 88.9987 41.0016 89.23C45.239 89.7481 45.8126 91.8668 45.6368 93.3194C45.5536 93.9948 45.2482 94.7997 44.7024 95.2901C44.5173 95.4659 44.3971 95.5214 44.3138 95.5121C44.249 95.5029 44.1935 95.4566 44.1473 95.4196L43.4349 94.8182C43.3793 94.772 43.3053 94.735 43.3238 94.6517C43.3331 94.5592 43.4441 94.4481 43.5089 94.3834C43.8327 94.0596 44.0825 93.745 44.138 93.3102C44.1935 92.8383 44.0732 92.4405 43.8327 92.1444C43.4534 91.6818 42.6762 91.4042 40.8628 91.1915C40.2614 91.1174 38.6978 90.9694 37.9669 91.3765C37.6709 91.5523 37.3193 91.8853 37.2453 92.5145C37.199 92.8938 37.273 93.2824 37.4488 93.6802C37.5136 93.8283 37.5876 93.9393 37.5691 94.0411C37.5599 94.1521 37.4858 94.1706 37.4118 94.1983L36.5976 94.5314Z" fill="#0038A8"/>
<path fill-rule="evenodd" clip-rule="evenodd" d="M35.6262 104.977C35.3486 101.618 39.29 101.23 40.2799 101.147C41.2791 101.063 45.2297 100.804 45.5073 104.163C45.7849 107.512 41.8065 107.91 40.8443 107.993C39.8543 108.076 35.9037 108.326 35.6262 104.977ZM40.6778 106.041C42.0008 105.93 44.1288 105.606 44.0177 104.283C43.916 102.96 41.7417 102.988 40.4372 103.099C39.3085 103.191 36.9955 103.469 37.1065 104.857C37.2268 106.244 39.549 106.133 40.6778 106.041Z" fill="#0038A8"/>
<path fill-rule="evenodd" clip-rule="evenodd" d="M43.9807 117.532C44.5358 117.356 45.4333 117.18 46.3215 117.301C47.6353 117.467 48.4772 118.152 48.8935 119.364C49.9853 122.546 46.2104 123.916 45.313 124.221C44.3786 124.536 40.6038 125.757 39.512 122.574C39.0957 121.362 39.3547 120.317 40.2799 119.364C41.0478 118.596 42.0286 118.189 42.5467 118.022L42.1858 116.967L38.5683 118.207C38.3 118.3 38.263 118.198 38.1982 118.022L37.7911 116.81C37.7264 116.644 37.6894 116.533 37.9669 116.44L46.3585 113.572C46.6268 113.479 46.6638 113.581 46.7286 113.748L47.1356 114.969C47.2004 115.136 47.2374 115.237 46.9599 115.33L43.6199 116.477L43.9807 117.532ZM44.6746 122.371C45.7664 121.991 47.9776 121.149 47.5242 119.836C47.0894 118.568 44.9799 119.142 43.7217 119.577C42.6207 119.947 40.428 120.789 40.8813 122.102C41.3347 123.425 43.5829 122.741 44.6746 122.371Z" fill="#0038A8"/>
<path fill-rule="evenodd" clip-rule="evenodd" d="M49.6522 130.79C49.754 130.725 49.8927 130.67 50.0315 130.882L50.1888 131.123C50.9752 132.363 51.9004 131.78 52.0947 131.66C52.326 131.512 53.1124 130.919 52.474 129.911C52.3353 129.698 52.0577 129.356 51.4378 129.115C51.3083 129.069 51.2158 129.023 51.1788 128.967C51.151 128.921 51.1603 128.847 51.1973 128.745L51.5396 127.968C51.5673 127.903 51.5859 127.857 51.6599 127.811C51.8079 127.718 52.0392 127.802 52.2057 127.885C52.7886 128.153 53.4177 128.625 53.9081 129.402C54.8055 130.808 54.5927 132.168 53.2512 133.029C51.9652 133.843 50.9845 133.251 50.6699 133.02C51.0677 134.028 50.6977 135.009 49.6152 135.703C48.3477 136.508 46.7008 136.535 45.3593 134.426C44.8504 133.64 44.5543 132.714 44.6376 132.094C44.6376 132.02 44.6654 131.872 44.7486 131.826C44.7949 131.798 44.8412 131.78 44.9522 131.771L45.8404 131.715C45.9144 131.715 45.9884 131.706 46.0532 131.798C46.0994 131.872 46.0809 132.002 46.0994 132.178C46.1087 132.446 46.1827 132.955 46.562 133.547C46.8118 133.945 47.1264 134.278 47.6538 134.352C48.0423 134.417 48.3754 134.269 48.6067 134.121C49.2081 133.741 49.3561 133.316 49.3561 132.973C49.3469 132.603 49.1618 132.279 48.986 132.02L48.7733 131.678C48.6437 131.465 48.7547 131.364 48.8565 131.299L49.6522 130.79Z" fill="#0038A8"/>
<path fill-rule="evenodd" clip-rule="evenodd" d="M60.9766 151.061C60.8193 151.255 60.6805 151.181 60.588 151.098L59.5518 150.275C59.3575 150.117 59.4315 149.979 59.5148 149.886L64.2241 144.03L62.79 142.873C62.6327 142.743 62.7252 142.632 62.7622 142.586L63.5394 141.615C63.5672 141.578 63.6689 141.457 63.8262 141.587L68.3967 145.26C68.6095 145.436 68.4337 145.538 68.3504 145.593L67.3975 146.296C67.2309 146.417 67.1199 146.361 67.0367 146.287L65.6859 145.205L60.9766 151.061Z" fill="#0038A8"/>
<path fill-rule="evenodd" clip-rule="evenodd" d="M71.1815 154.901C71.0705 154.845 71.089 154.79 71.0983 154.716L71.8939 148.073C71.9124 147.943 71.9217 147.878 71.9402 147.832C71.9957 147.73 72.116 147.767 72.375 147.869L73.5223 148.35C73.9016 148.498 73.8461 148.526 73.8091 148.785L73.217 152.218C73.1059 152.884 72.9949 153.356 72.8191 154.234L72.8746 154.253C73.55 153.457 73.8184 153.161 74.2069 152.726L76.4829 150.219C76.6032 150.09 76.6957 149.951 76.8993 150.09L77.954 150.802C78.0465 150.867 78.2038 150.95 78.1298 151.089C78.1205 151.107 78.0835 151.144 77.9725 151.274L72.6896 156.816C72.375 157.149 71.8847 157.584 71.3573 157.713C70.9595 157.806 70.4321 157.778 69.7845 157.436C69.3404 157.204 68.9426 156.871 68.5725 156.418C68.3042 156.076 68.3597 155.992 68.4615 155.909L69.3219 155.187C69.3774 155.141 69.4514 155.15 69.4884 155.169C69.5347 155.197 69.5809 155.261 69.6365 155.354C69.8493 155.678 70.0435 155.891 70.2748 156.011C70.978 156.381 71.4869 155.872 71.6719 155.668L71.9957 155.317L71.1815 154.901Z" fill="#0038A8"/>
<path fill-rule="evenodd" clip-rule="evenodd" d="M82.9038 162.219C82.876 162.339 82.8113 162.478 82.5707 162.413L81.2847 162.071C81.0534 162.006 81.0626 161.849 81.0904 161.729L83.4127 153.143C83.4774 152.902 83.6347 152.921 83.755 152.948L85.9384 153.541C86.5398 153.707 87.354 153.957 87.8721 154.466C88.3069 154.882 88.714 155.631 88.3625 156.927C87.8906 158.685 86.4195 159.545 84.5229 159.027L83.8197 158.842L82.9038 162.219ZM84.2083 157.399L84.6247 157.51C85.3926 157.722 86.179 157.824 86.5306 156.529C86.8636 155.308 86.0125 155.058 85.5036 154.928L84.9207 154.762L84.2083 157.399Z" fill="#0038A8"/>
<path fill-rule="evenodd" clip-rule="evenodd" d="M101.315 155.53C101.565 155.539 101.593 155.696 101.584 155.817L101.269 164.708C101.26 164.828 101.232 164.985 100.982 164.976L99.6591 164.93C99.4093 164.92 99.3908 164.763 99.3908 164.643L99.5481 160.257C99.5666 159.887 99.6129 159.221 99.6591 158.74H99.6036C99.2243 159.693 98.9837 160.128 98.7617 160.563L96.717 164.587C96.643 164.735 96.5967 164.819 96.3932 164.809L95.0701 164.763C94.8203 164.754 94.8018 164.597 94.8018 164.476L95.1164 155.585C95.1257 155.335 95.2829 155.317 95.4032 155.317L96.7262 155.372C96.9761 155.372 97.0038 155.53 96.9946 155.65L96.8558 159.619C96.828 160.267 96.8095 159.98 96.7262 161.553H96.7818C97.0223 161.007 97.5497 159.897 97.7717 159.453L99.6406 155.761C99.7331 155.585 99.7609 155.474 100.011 155.483L101.315 155.53Z" fill="#0038A8"/>
<path fill-rule="evenodd" clip-rule="evenodd" d="M108.18 155.28C108.125 155.021 108.263 154.984 108.393 154.956L109.688 154.688C109.827 154.66 109.966 154.651 110.021 154.91L110.715 158.352L113.269 157.833L112.575 154.392C112.519 154.133 112.649 154.086 112.788 154.068L114.083 153.8C114.342 153.753 114.379 153.883 114.407 154.012L116.174 162.737C116.202 162.867 116.211 163.005 115.961 163.061L114.657 163.32C114.527 163.348 114.388 163.366 114.333 163.107L113.565 159.295L111.011 159.813L111.779 163.625C111.835 163.884 111.696 163.921 111.566 163.949L110.271 164.208C110.132 164.236 109.994 164.254 109.938 163.995L108.18 155.28Z" fill="#0038A8"/>
<path fill-rule="evenodd" clip-rule="evenodd" d="M125.25 159.924L126.074 161.701C126.175 161.923 126.055 162.015 125.935 162.071L124.852 162.57C124.621 162.672 124.538 162.543 124.482 162.432L123.159 159.554C123.104 159.443 123.067 159.286 123.289 159.184L123.529 159.073C123.603 158.176 123.492 157.473 123.261 156.649C122.937 155.493 122.419 154.336 122.317 154.105L121.216 151.681C121.17 151.57 121.133 151.422 121.355 151.32L125.454 149.433C125.676 149.331 125.768 149.451 125.814 149.571L129.025 156.547L129.534 156.316C129.756 156.214 129.839 156.335 129.895 156.446L131.218 159.332C131.273 159.443 131.31 159.591 131.088 159.693L129.996 160.202C129.774 160.304 129.682 160.174 129.626 160.063L128.812 158.287L125.25 159.924ZM124.621 151.45L123.326 152.051L124.029 153.624C124.612 154.965 124.889 155.854 125.01 156.464C125.158 157.103 125.213 157.695 125.195 158.305L127.323 157.325L124.621 151.45Z" fill="#0038A8"/>
<path fill-rule="evenodd" clip-rule="evenodd" d="M136.778 150.302C136.676 150.376 136.63 150.339 136.565 150.302L130.912 146.74C130.801 146.666 130.746 146.639 130.709 146.592C130.644 146.509 130.727 146.407 130.931 146.222L131.856 145.38C132.143 145.112 132.161 145.168 132.374 145.316L135.224 147.314C135.779 147.703 136.158 148.008 136.871 148.535L136.917 148.498C136.482 147.545 136.334 147.184 136.112 146.639L134.807 143.502C134.743 143.354 134.669 143.197 134.872 143.086L135.973 142.438C136.066 142.383 136.214 142.272 136.306 142.392C136.315 142.42 136.334 142.457 136.399 142.614L139.156 149.766C139.322 150.191 139.498 150.82 139.387 151.357C139.304 151.746 139.054 152.208 138.471 152.652C138.073 152.958 137.601 153.17 137.028 153.309C136.602 153.411 136.556 153.328 136.528 153.189L136.241 152.106C136.223 152.042 136.26 151.977 136.288 151.949C136.334 151.921 136.417 151.912 136.528 151.894C136.908 151.847 137.185 151.755 137.398 151.598C138.018 151.126 137.777 150.441 137.676 150.191L137.5 149.756L136.778 150.302Z" fill="#0038A8"/>
<path fill-rule="evenodd" clip-rule="evenodd" d="M149.851 140.384C149.953 140.412 150.008 140.44 150.045 140.477C150.119 140.542 150.119 140.69 150.11 140.754C150.092 141.383 149.712 142.17 149.166 142.79C147.076 145.14 144.67 143.53 143.208 142.225C140.026 139.394 140.766 137.322 141.737 136.23C142.181 135.721 142.894 135.231 143.625 135.138C143.874 135.111 144.004 135.129 144.069 135.185C144.115 135.231 144.133 135.296 144.152 135.351L144.392 136.249C144.42 136.323 144.448 136.397 144.392 136.452C144.328 136.526 144.18 136.554 144.087 136.572C143.634 136.646 143.254 136.767 142.958 137.1C142.644 137.442 142.514 137.84 142.542 138.219C142.588 138.821 143.079 139.496 144.439 140.699C144.892 141.106 146.086 142.124 146.927 142.198C147.27 142.225 147.742 142.151 148.167 141.68C148.417 141.393 148.574 141.032 148.658 140.606C148.685 140.449 148.704 140.31 148.769 140.236C148.833 140.153 148.907 140.181 148.991 140.19L149.851 140.384Z" fill="#0038A8"/>
<path fill-rule="evenodd" clip-rule="evenodd" d="M155.985 132.381C156.198 132.511 156.142 132.65 156.078 132.761L155.393 133.899C155.273 134.111 155.125 134.056 155.023 133.991L148.565 130.133L147.631 131.706C147.52 131.882 147.39 131.808 147.344 131.78L146.28 131.141C146.234 131.114 146.104 131.03 146.206 130.855L149.213 125.831C149.361 125.59 149.49 125.748 149.555 125.822L150.378 126.673C150.517 126.812 150.48 126.932 150.425 127.034L149.527 128.523L155.985 132.381Z" fill="#0038A8"/>
<path fill-rule="evenodd" clip-rule="evenodd" d="M160.741 122.25C160.861 122.297 160.99 122.371 160.907 122.602L160.463 123.851C160.38 124.082 160.232 124.064 160.112 124.017L151.739 121.038C151.498 120.955 151.526 120.807 151.563 120.687L152.321 118.559C152.534 117.967 152.849 117.171 153.395 116.699C153.848 116.301 154.625 115.95 155.883 116.394C157.604 117.004 158.344 118.54 157.688 120.391L157.447 121.075L160.741 122.25ZM156.041 120.576L156.179 120.178C156.448 119.419 156.614 118.642 155.347 118.198C154.153 117.772 153.848 118.596 153.672 119.095L153.469 119.669L156.041 120.576Z" fill="#0038A8"/>
<path fill-rule="evenodd" clip-rule="evenodd" d="M155.569 103.367C155.597 103.117 155.745 103.108 155.874 103.126L164.701 104.181C164.83 104.2 164.978 104.246 164.941 104.496L164.784 105.81C164.756 106.05 164.599 106.059 164.478 106.05L160.13 105.523C159.76 105.476 159.103 105.375 158.622 105.291V105.338C159.538 105.8 159.945 106.069 160.361 106.328L164.201 108.705C164.34 108.798 164.423 108.844 164.395 109.048L164.238 110.362C164.21 110.611 164.053 110.621 163.933 110.602L155.097 109.547C154.856 109.51 154.847 109.362 154.856 109.242L155.014 107.919C155.051 107.678 155.199 107.669 155.328 107.678L159.27 108.16C159.908 108.234 159.621 108.224 161.176 108.437L161.185 108.391C160.667 108.104 159.593 107.484 159.168 107.225L155.652 105.051C155.486 104.949 155.384 104.912 155.412 104.662L155.569 103.367Z" fill="#0038A8"/>
<path fill-rule="evenodd" clip-rule="evenodd" d="M154.977 90.3495C154.949 90.0997 155.097 90.0535 155.217 90.0442L164.062 89.0913C164.182 89.0728 164.34 89.0913 164.367 89.3318L164.506 90.6548C164.534 90.8954 164.386 90.9417 164.266 90.9509L159.908 91.4228C159.538 91.4598 158.872 91.506 158.391 91.5338L158.4 91.5893C159.39 91.8298 159.852 91.9964 160.315 92.1537L164.59 93.6062C164.747 93.6617 164.839 93.6895 164.858 93.9023L164.997 95.2161C165.024 95.4659 164.876 95.5029 164.756 95.5214L155.911 96.4743C155.661 96.5021 155.624 96.3541 155.606 96.2245L155.467 94.9108C155.439 94.661 155.587 94.6239 155.708 94.6054L159.658 94.1798C160.306 94.1151 160.019 94.1706 161.583 94.0318V93.9763C161.009 93.819 159.834 93.4582 159.353 93.3009L155.439 91.9779C155.254 91.9131 155.143 91.8946 155.115 91.6448L154.977 90.3495Z" fill="#0038A8"/>
<path fill-rule="evenodd" clip-rule="evenodd" d="M145.623 79.4785L145.114 78.3312L145.096 78.3497C143.171 74.2881 140.719 70.5225 137.777 67.1271L137.796 67.1086L136.954 66.1834C133.383 62.2698 129.238 58.9668 124.621 56.367L124.084 56.0617L124.075 56.071C116.849 52.1296 108.689 50.0387 100.418 50.0387C92.2575 50.0387 84.1898 52.0741 77.038 55.9229H77.0288L76.4829 56.219C71.9957 58.7078 67.9341 61.8812 64.4091 65.6282L63.5579 66.5349L63.5764 66.5534C60.5418 69.9489 57.9975 73.733 56.0083 77.8131L55.9898 77.8039L55.4624 78.9418C52.5203 85.3997 51.0215 92.2925 51.0215 99.435C51.0215 106.54 52.5018 113.396 55.4069 119.817C55.4162 119.817 55.4162 119.826 55.4162 119.826L55.925 120.964L55.9528 120.946C57.8864 124.933 60.3382 128.643 63.2804 131.993L63.2618 132.011L64.0945 132.918C67.6935 136.813 71.8569 140.088 76.4737 142.651L77.0195 142.956L77.0288 142.947C84.1806 146.796 92.2575 148.841 100.418 148.841C108.865 148.841 117.173 146.666 124.501 142.577L124.51 142.586L125.056 142.272C129.543 139.681 133.586 136.415 137.065 132.566L137.898 131.65L137.879 131.632C140.71 128.338 143.097 124.702 144.966 120.789L144.994 120.807L145.503 119.66C148.371 113.285 149.823 106.485 149.823 99.435C149.823 92.496 148.408 85.7883 145.623 79.4785ZM143.245 79.497C130.542 87.3334 115.943 91.4875 100.945 91.4875C85.6146 91.4875 70.7282 87.1576 57.8402 78.9881C59.8016 74.9172 62.3274 71.1517 65.3713 67.784C75.9278 74.9635 88.2514 78.7661 101.075 78.7661C113.556 78.7661 125.592 75.1578 135.964 68.3298C138.906 71.6975 141.358 75.4539 143.245 79.497ZM121.818 57.3292C115.323 60.734 108.06 62.5381 100.668 62.5381C93.192 62.5381 85.8367 60.6969 79.277 57.1997C85.8089 53.9245 93.0717 52.2036 100.418 52.2036C107.866 52.2036 115.221 53.9708 121.818 57.3292ZM77.038 58.4117C84.2083 62.5196 92.3593 64.7031 100.668 64.7031C108.874 64.7031 116.942 62.5658 124.057 58.5597C127.887 60.7802 131.366 63.5188 134.437 66.7107C124.491 73.1686 113 76.6011 101.075 76.6011C88.8158 76.6011 77.038 72.9836 66.9164 66.1926C69.9325 63.1487 73.3187 60.5304 77.038 58.4117ZM57.7847 119.78C70.5987 111.749 85.3741 107.493 100.575 107.493C115.684 107.493 130.376 111.694 143.125 119.632C141.284 123.527 138.915 127.154 136.075 130.411C125.62 123.435 113.454 119.743 100.825 119.743C87.9739 119.743 75.641 123.555 65.0752 130.753C62.1331 127.441 59.6906 123.758 57.7847 119.78ZM79.2493 141.67C85.9107 138.016 93.414 136.091 101.075 136.091C108.476 136.091 115.758 137.895 122.262 141.328C115.554 144.825 108.041 146.676 100.418 146.676C93.0625 146.676 85.7812 144.945 79.2493 141.67ZM124.473 140.079C117.358 136.064 109.29 133.926 101.075 133.926C92.5906 133.926 84.3008 136.193 77.0195 140.458C73.18 138.256 69.692 135.536 66.6018 132.363C76.742 125.535 88.5383 121.908 100.825 121.908C112.908 121.908 124.528 125.424 134.558 132.039C131.569 135.166 128.192 137.877 124.473 140.079ZM143.976 117.643C130.94 109.603 115.98 105.328 100.575 105.328C85.078 105.328 70.025 109.658 56.9335 117.791C54.4817 111.981 53.1864 105.819 53.1864 99.435C53.1864 93.0141 54.4632 86.806 56.9613 80.9588C70.1361 89.2393 85.3001 93.6432 100.945 93.6432C116.229 93.6432 131.107 89.4243 144.078 81.4954C146.428 87.1946 147.658 93.2176 147.658 99.435C147.658 105.763 146.391 111.87 143.976 117.643Z" fill="#0038A8"/>
<path fill-rule="evenodd" clip-rule="evenodd" d="M120.763 125.905H102.139V104.07H120.763V125.905Z" fill="#FEFEFE"/>
<path fill-rule="evenodd" clip-rule="evenodd" d="M116.859 119.41C113.99 120.132 111.372 120.863 107.468 120.863C94.1449 120.863 83.4589 114.543 83.4589 101.655C83.4589 89.5446 94.5983 83.4938 107.468 83.4938C111.714 83.4938 112.612 83.9564 116.738 84.6318V94.1521C114.212 93.4304 113.269 92.8105 110.678 92.8105C104.137 92.8105 99.1965 95.9655 99.1965 101.868C99.1965 108.076 103.795 111.231 110.169 111.231C112.982 111.231 114.046 110.713 116.859 109.834V119.41Z" fill="#E8112D"/>
<path fill-rule="evenodd" clip-rule="evenodd" d="M116.859 119.586C113.99 120.307 111.372 121.029 107.468 121.029C94.1449 121.029 83.4589 114.719 83.4589 101.831C83.4589 89.7204 94.5983 83.6603 107.468 83.6603C111.714 83.6603 112.612 84.1322 116.748 84.7983V94.3279C114.222 93.597 113.269 92.9771 110.678 92.9771C104.137 92.9771 99.1965 96.132 99.1965 102.035C99.1965 108.243 103.795 111.407 110.169 111.407C112.982 111.407 114.046 110.889 116.859 110.01V119.586Z" fill="#FEFEFE"/>
<path fill-rule="evenodd" clip-rule="evenodd" d="M116.859 119.41C113.99 120.132 111.372 120.863 107.468 120.863C94.1449 120.863 83.4589 114.543 83.4589 101.655C83.4589 89.5446 94.5983 83.4938 107.468 83.4938C111.714 83.4938 112.612 83.9564 116.738 84.6318V94.1521C114.212 93.4304 113.269 92.8105 110.678 92.8105C104.137 92.8105 99.1965 95.9655 99.1965 101.868C99.1965 108.076 103.795 111.231 110.169 111.231C112.982 111.231 114.046 110.713 116.859 109.834V119.41Z" fill="#E8112D"/>
<path fill-rule="evenodd" clip-rule="evenodd" d="M116.859 119.586C113.99 120.307 111.372 121.029 107.468 121.029C94.1449 121.029 83.4589 114.719 83.4589 101.831C83.4589 89.7204 94.5983 83.6603 107.468 83.6603C111.714 83.6603 112.612 84.1322 116.748 84.7983V94.3279C114.222 93.597 113.269 92.9771 110.678 92.9771C104.137 92.9771 99.1965 96.132 99.1965 102.035C99.1965 108.243 103.795 111.407 110.169 111.407C112.982 111.407 114.046 110.889 116.859 110.01V119.586Z" fill="#FEFEFE"/>
<path fill-rule="evenodd" clip-rule="evenodd" d="M116.859 119.41C113.99 120.132 111.372 120.863 107.468 120.863C94.1449 120.863 83.4589 114.543 83.4589 101.655C83.4589 89.5446 94.5983 83.4938 107.468 83.4938C111.714 83.4938 112.612 83.9564 116.738 84.6318V94.1521C114.212 93.4304 113.269 92.8105 110.678 92.8105C104.137 92.8105 99.1965 95.9655 99.1965 101.868C99.1965 108.076 103.795 111.231 110.169 111.231C112.982 111.231 114.046 110.713 116.859 109.834V119.41Z" fill="#E8112D"/>
<path fill-rule="evenodd" clip-rule="evenodd" d="M116.859 119.586C113.99 120.307 111.372 121.029 107.468 121.029C94.1449 121.029 83.4589 114.719 83.4589 101.831C83.4589 89.7204 94.5983 83.6603 107.468 83.6603C111.714 83.6603 112.612 84.1322 116.748 84.7983V94.3279C114.222 93.597 113.269 92.9771 110.678 92.9771C104.137 92.9771 99.1965 96.132 99.1965 102.035C99.1965 108.243 103.795 111.407 110.169 111.407C112.982 111.407 114.046 110.889 116.859 110.01V119.586Z" fill="#FEFEFE"/>
<path fill-rule="evenodd" clip-rule="evenodd" d="M116.859 119.41C113.99 120.132 111.372 120.863 107.468 120.863C94.1449 120.863 83.4589 114.543 83.4589 101.655C83.4589 89.5446 94.5983 83.4938 107.468 83.4938C111.714 83.4938 112.612 83.9564 116.738 84.6318V94.1521C114.212 93.4304 113.269 92.8105 110.678 92.8105C104.137 92.8105 99.1965 95.9655 99.1965 101.868C99.1965 108.076 103.795 111.231 110.169 111.231C112.982 111.231 114.046 110.713 116.859 109.834V119.41Z" fill="#E8112D"/>
<path fill-rule="evenodd" clip-rule="evenodd" d="M114.971 107.678C113.065 108.298 112.196 108.576 110.169 108.576C107.551 108.576 101.537 107.891 101.371 101.637C101.537 95.4566 108.523 94.9663 110.678 94.9663C110.928 94.9663 111.15 94.9755 111.363 94.994L111.354 94.9663H118.922L118.903 93.6617V84.1507H118.912V80.8662H109.105C108.615 80.8477 108.069 80.8385 107.468 80.8385C91.8135 80.8385 81.3032 89.008 81.3032 101.165C81.3032 101.258 81.3032 101.341 81.3032 101.424C81.3032 101.498 81.3032 101.581 81.3032 101.655C81.3032 114.636 91.5729 123.018 107.468 123.018C111.409 123.018 114.194 122.315 116.886 121.63L119.024 121.094V119.41V118.92V106.874V106.383L114.971 107.678Z" fill="#E8112D"/>
<path fill-rule="evenodd" clip-rule="evenodd" d="M114.971 107.678C113.065 108.298 112.196 108.576 110.169 108.576C107.551 108.576 101.537 107.891 101.371 101.637C101.537 95.4566 108.523 94.9663 110.678 94.9663C110.928 94.9663 111.15 94.9755 111.363 94.994L111.354 94.9663H118.922L118.903 93.6617V84.1507H118.912V80.8662H109.105C108.615 80.8477 108.069 80.8385 107.468 80.8385C91.8135 80.8385 81.3032 89.008 81.3032 101.165C81.3032 101.258 81.3032 101.341 81.3032 101.424C81.3032 101.498 81.3032 101.581 81.3032 101.655C81.3032 114.636 91.5729 123.018 107.468 123.018C111.409 123.018 114.194 122.315 116.886 121.63L119.024 121.094V119.41V118.92V106.874V106.383L114.971 107.678Z" stroke="#E8112D" stroke-width="0.883276"/>
<path fill-rule="evenodd" clip-rule="evenodd" d="M107.218 96.9277V111.851C107.218 111.851 114.277 111.851 116.886 111.851C116.886 116.052 116.886 136.591 116.886 136.591H135.696C135.696 136.591 135.696 116.052 135.696 111.851C138.305 111.851 145.373 111.851 145.373 111.851V96.9277H107.218Z" fill="#E8112D" stroke="#E8112D" stroke-width="0.883276"/>
<path fill-rule="evenodd" clip-rule="evenodd" d="M143.282 109.621H133.605V134.37H119.116V109.621H109.438V99.2684H143.282V109.621Z" fill="#FEFEFE"/>
<path fill-rule="evenodd" clip-rule="evenodd" d="M143.745 110.056V99.0649H108.883V110.056H118.043L118.024 116.829H134.789L134.798 110.056H143.745Z" fill="#E8112D"/>
<path fill-rule="evenodd" clip-rule="evenodd" d="M116.859 119.586C113.99 120.307 111.372 121.029 107.468 121.029C94.1449 121.029 83.4589 114.719 83.4589 101.831C83.4589 89.7204 94.5983 83.6603 107.468 83.6603C111.714 83.6603 112.612 84.1322 116.748 84.7983V94.3279C114.222 93.597 113.269 92.9771 110.678 92.9771C104.137 92.9771 99.1965 96.132 99.1965 102.035C99.1965 108.243 103.795 111.407 110.169 111.407C112.982 111.407 114.046 110.889 116.859 110.01V119.586Z" fill="#FEFEFE"/>
<path fill-rule="evenodd" clip-rule="evenodd" d="M83.3571 101.128H99.3538C99.7794 95.7342 104.535 93.2176 110.789 93.2176C113.371 93.2176 114.351 93.8468 116.877 94.5777V84.1877C112.741 83.5123 111.594 83.5308 107.348 83.5308C94.6816 83.5308 83.6995 89.4058 83.3571 101.128Z" fill="#E8112D"/>
<path fill-rule="evenodd" clip-rule="evenodd" d="M59.4408 100.536H73.9201V90.4236H82.765C90.3239 90.4236 96.6522 86.658 96.6522 77.5078C96.6522 68.0523 88.7048 65.434 82.8113 65.434H59.4408V100.536Z" fill="#E8112D"/>
<path fill-rule="evenodd" clip-rule="evenodd" d="M59.4408 63.269H57.2758V102.701H76.0851C76.0851 102.701 76.0851 95.2623 76.0851 92.5885C78.5554 92.5885 82.765 92.5885 82.765 92.5885C92.6646 92.5885 98.8172 86.806 98.8172 77.5078C98.8172 66.9975 90.1944 63.269 82.8113 63.269H59.4408ZM82.8113 67.5989C85.5499 67.5989 94.4873 68.3113 94.4873 77.5078C94.4873 86.8708 87.1412 88.2678 82.765 88.2678H71.7644C71.7644 88.2678 71.7644 95.6972 71.7644 98.371C69.1831 98.371 64.1778 98.371 61.6057 98.371C61.6057 94.8182 61.6057 71.1517 61.6057 67.5989C65.1585 67.5989 82.8113 67.5989 82.8113 67.5989Z" fill="#E8112D" stroke="#E8112D" stroke-width="0.883276"/>
<path fill-rule="evenodd" clip-rule="evenodd" d="M59.4963 100.443H73.9849V90.3402H82.8205C90.3886 90.3402 96.7077 86.5654 96.7077 77.4152C96.7077 67.9597 88.7695 65.3414 82.876 65.3414H59.4963V100.443Z" fill="#FEFEFE"/>
<path fill-rule="evenodd" clip-rule="evenodd" d="M97.1889 77.5263C97.1889 68.08 89.0471 64.9806 83.0148 64.9806H59.0707V82.2078V83.2347H96.1896V82.2078H96.5135C96.9483 80.8385 97.1889 79.2842 97.1889 77.5263ZM76.6032 74.0845C80.2022 74.0845 82.2284 74.066 82.2284 77.7853C82.2284 80.7367 81.0719 81.8007 78.9995 82.1523H74.429V74.0845H76.6032Z" fill="#E8112D"/>
</svg>
