<svg width="559" height="556" viewBox="0 0 559 556" fill="none" xmlns="http://www.w3.org/2000/svg">
<path fill-rule="evenodd" clip-rule="evenodd" d="M247.573 0.816062C234.556 2.49534 214.759 6.53962 201.607 10.2029L186.906 14.2985L176.085 30.7337C165.052 47.4939 149.87 76.6947 149.87 81.1572C149.87 82.5162 151.807 84.6246 154.172 85.8421C156.538 87.0596 159.813 89.5256 161.449 91.3246C164.252 94.4049 165.973 94.593 191.247 94.593C216.25 94.593 243.44 97.0886 258.516 100.767C261.955 101.607 265.238 102.31 265.812 102.33C266.384 102.35 272.318 95.5462 278.996 87.2073C294.297 68.1039 327.993 34.5463 344.92 21.5536C352.031 16.096 357.307 11.1499 356.645 10.5621C355.181 9.27001 329.613 3.53401 315.575 1.34939C306.034 -0.135527 257.87 -0.513369 247.573 0.816062ZM370.675 28.0842C343.896 49.1483 290.627 106.572 294.687 109.997C295.427 110.624 301.31 113.107 307.758 115.519C345.389 129.59 381.491 152.646 414.842 183.907C421.72 190.354 427.899 195.636 428.575 195.645C429.25 195.653 431.681 194.436 433.976 192.94C436.271 191.444 442.05 189.869 446.818 189.441L455.486 188.664L458.96 176.509C460.872 169.825 463.545 159.329 464.902 153.186C467.836 139.912 469.671 98.3932 468.047 82.0668L466.895 70.4922L458.053 63.2978C438.22 47.1565 409.491 29.6453 388.652 20.9939L382.787 18.5589L370.675 28.0842ZM145.961 32.8717C111.167 51.6734 78.0474 80.2491 54.608 111.694C45.849 123.442 39.5303 133.465 40.8826 133.465C41.1686 133.465 51.1532 128.937 63.0714 123.404C83.3656 113.981 84.8648 112.983 86.6985 107.679C90.5019 96.6734 105.115 85.1937 119.356 82.0249C127.179 80.2834 127.709 79.834 131.812 71.4625C135.946 63.0303 150.482 38.432 155.586 31.2313C158.907 26.5479 157.092 26.8574 145.961 32.8717ZM483.553 90.7058C489.759 125.086 488.483 162.424 479.989 194.998C477.184 205.751 477.186 205.78 480.723 213.542C488.204 229.954 488.665 251.872 481.888 268.72C479.709 274.135 479.824 274.91 484.284 284.796C493.787 305.864 502.349 336.108 506.589 363.589C507.719 370.914 508.631 389.8 508.632 405.96C508.635 421.994 509.097 435.112 509.658 435.114C511.287 435.114 527.374 407.519 533.679 393.909C567.867 320.105 567.412 232.506 532.453 158.095C521.823 135.47 504.641 109.615 489.22 93.0381C482.749 86.0831 482.715 86.0691 483.553 90.7058ZM117.848 102.728C106.177 109.47 106.314 121.521 118.107 125.596C123.643 127.508 125.527 127.524 131.073 125.703C138.084 123.402 145.18 116.34 145.18 111.664C145.18 110.067 143.574 106.903 141.611 104.633C136.483 98.7042 126.236 97.8832 117.848 102.728ZM163.359 126.067C158.13 132.887 148.599 139.268 138.231 142.893L130.329 145.656L128.276 160.163C125.641 178.806 126.694 233.327 130.032 250.887C135.581 280.093 144.959 309.242 155.785 330.936L163.157 345.708L170.192 345.428C174.061 345.274 177.753 345.1 178.399 345.039C179.045 344.98 179.571 341.912 179.571 338.223C179.571 331.03 183.05 303.451 185.882 288.177C194.812 240.027 217.257 180.953 242.028 140.395C245.386 134.899 247.486 130.004 246.695 129.519C242.33 126.835 211.631 122.441 191.161 121.569L167.578 120.564L163.359 126.067ZM71.7006 140.315C57.9424 145.091 29.5943 158.155 25.2938 161.701C19.5926 166.401 6.0157 211.659 2.10912 238.983C-1.45823 263.938 -0.374895 306.829 4.41179 330.159C6.16733 338.711 7.60556 345.89 7.60868 346.11C7.62119 347.11 34.8765 359.142 48.6754 364.239C64.6425 370.137 96.5564 378.222 110.1 379.8C117.985 380.719 118.021 380.702 120.738 375.035C122.237 371.906 125.963 366.315 129.017 362.608L134.57 355.867L126.754 338.348C101.293 281.282 92.7248 214.131 103.686 157.566C106.552 142.787 106.551 142.795 104.452 142.795C103.547 142.795 100.218 141.045 97.0551 138.907C93.8911 136.769 90.2361 135.051 88.9308 135.089C87.6255 135.126 79.8717 137.477 71.7006 140.315ZM264.961 152.216C232.6 207.109 207.941 287.83 205.917 345.493C205.816 348.374 205.819 350.421 205.998 351.927C205.998 351.931 205.997 351.934 205.998 351.937C206.05 352.372 206.118 352.762 206.201 353.115C206.588 354.747 207.331 355.56 208.607 356.262C210.263 357.173 215.934 362.026 221.209 367.049L230.801 376.179L240.75 373.859C296.809 360.789 353.407 328.304 394.721 285.485C406.129 273.663 410.152 269.035 411.715 265.147C412.143 262.168 411.97 260.438 411.715 258.928C411.504 257.679 411.278 256.639 410.915 254.646C409.889 249.015 408.589 240.269 410.196 233.827L411.243 222.704L395.418 207.736C370.895 184.545 347.582 168.122 318.625 153.64C304.591 146.623 279.504 136.556 276.162 136.603C275.054 136.619 270.014 143.644 264.961 152.216ZM443.809 220.984C441.686 222.047 438.282 225.356 436.249 228.337C433.601 234.05 433.293 234.71 432.819 244.156C434.074 253.369 434.532 254.646 438.633 259.693C449.696 270.697 464.084 261.324 464.084 243.113C464.084 227.304 453.74 216.014 443.809 220.984ZM423.328 303.234C375.215 357.276 319.858 388.955 243.477 406.162C240.116 406.918 239.197 408.23 238.355 413.467C237.79 416.978 235.978 422.484 234.328 425.702L231.326 431.555L236.322 436.246C243.349 442.843 262.641 456.626 276.506 464.955C319.367 490.704 366.044 505.246 418.102 509.068C431.586 510.056 432.63 509.906 438.695 506.098C456.835 494.708 491.23 462.136 493.15 454.53C494.826 447.887 492.646 402.01 489.864 385.357C485.33 358.215 476.348 329.109 464.695 303.794L460.559 294.805L453.91 295.712C447.886 296.533 442.711 295.741 435.835 292.944C434.102 292.24 430.424 295.266 423.328 303.234ZM16.2879 373.307C18.5233 380.621 34.6186 412.996 41.5876 424.199C63.3997 459.255 99.5406 494.556 135.8 516.22C149.312 524.293 170.486 534.07 187.388 540.039C199.414 544.286 223.544 550.495 224.465 549.577C224.748 549.296 221.445 542.18 217.126 533.765C207.393 514.81 198.437 492.029 192.708 471.654C190.303 463.102 188.255 455.946 188.158 455.752C188.061 455.559 182.748 454.665 176.351 453.766C153.184 450.51 132.641 436.352 123.091 417.057C118.275 407.326 118.2 407.263 109.438 405.461C84.7663 400.387 50.7436 388.027 28.2061 375.947C21.9062 372.572 16.4082 369.809 15.9861 369.809C15.564 369.809 15.7001 371.382 16.2879 373.307ZM161.12 374.677C142.246 383.97 141.777 408.46 160.232 421.039C180.631 434.943 206.43 426.473 208.854 405.078C211.413 382.506 182.553 364.125 161.12 374.677ZM212.963 453.384C213.388 454.88 215.168 461.76 216.919 468.672C222.106 489.151 232.23 515.488 242.574 535.404L252.263 554.063L260.79 555.399C273.562 557.398 314.692 554.162 337.46 549.367C348.208 547.103 363.684 542.779 371.852 539.758C391.46 532.504 410.933 523.643 410.933 521.972C410.933 521.235 405.482 520.62 398.818 520.605C385.86 520.574 362.743 517.66 343.801 513.67C304.748 505.445 261.227 485.531 226.782 460.129C219.722 454.923 213.55 450.663 213.067 450.663C212.584 450.663 212.537 451.888 212.963 453.384Z" fill="#2D418D"/>
</svg>
