<svg width="1400" height="209" viewBox="0 0 1400 209" fill="none" xmlns="http://www.w3.org/2000/svg">
<path fill-rule="evenodd" clip-rule="evenodd" d="M1087.69 2.39314C1057.44 10.8054 1030.99 36.3917 1019.14 68.7047C1015.37 78.9765 1014.97 82.1472 1014.91 102.563C1014.84 127.758 1016.39 134.98 1026.25 155.383C1037.15 177.955 1063.57 199.406 1088.36 205.828C1099.04 208.592 1121.24 208.935 1133.13 206.519C1157.06 201.659 1183.12 182.049 1193.5 161.095C1196.34 155.347 1198.41 149.86 1198.09 148.9C1197.77 147.941 1188.4 144.563 1177.27 141.392C1159.7 136.386 1156.82 135.936 1155.47 137.963C1148.93 147.735 1143.37 153.761 1136.91 158.08C1117.25 171.236 1093.96 168.227 1077.15 150.357C1068.25 140.893 1062.8 128.717 1060.53 113.191C1056.43 85.2759 1070.15 56.8933 1093.13 45.7127C1100.46 42.1505 1103 41.717 1113.64 42.2328C1128.77 42.9676 1138.54 47.507 1147.35 57.9L1153.61 65.2792H1193.75L1193.76 19.4506L1166.14 20.434L1158.53 14.6643C1144.01 3.64214 1135.9 1.0152 1114.84 0.507203C1101.69 0.191841 1093.58 0.754186 1087.69 2.39314ZM68.9609 6.63417C68.2609 8.55586 55.8188 45.6071 41.3125 88.9702L14.9375 167.811H0V205.095H76.5625V167.811H66.2391C57.5063 167.811 56.0609 167.435 56.8563 165.375C57.3719 164.036 59.3141 157.744 61.1703 151.393L64.5437 139.848H126.305L128.666 146.45C129.966 150.081 132.091 156.374 133.388 160.432L135.748 167.811H115.625V205.095H191.992L192.481 187.975C192.748 178.559 192.734 170.17 192.448 169.333C192.161 168.496 188.853 167.811 185.098 167.811H178.269L156.987 102.952C145.281 67.2801 133.144 30.2289 130.013 20.6158L124.32 3.13879H97.2781C70.6531 3.13879 70.2156 3.19315 68.9609 6.63417ZM210.938 40.423H231.25V167.811H210.938V205.095H298.536L297.656 168.587L276.562 167.669V40.5644L297.656 39.6462L298.536 3.13879H210.938V40.423ZM318.75 40.423H337.5V167.655L319.531 168.587L318.652 205.095H395.312V167.811H381.25L381.348 59.8418L389.678 79.2607C394.261 89.9411 405.238 115.807 414.072 136.741C422.906 157.674 432.816 181.093 436.092 188.783L442.052 202.765H480.247L508.83 132.08C524.552 93.2034 538.089 59.9972 538.914 58.2883C539.903 56.2377 540.45 74.288 540.519 111.408L540.625 167.632L527.344 168.587L526.464 205.095H603.125V167.811H584.375V40.423H603.125V3.13879H517.798L505.9 34.5974C473.578 120.056 463.472 146.062 462.586 146.062C462.053 146.062 451.855 122.117 439.922 92.8539C427.989 63.5905 414.763 31.4313 410.527 21.3925L402.828 3.13879H318.75V40.423ZM633.594 39.6462L654.688 40.5644V167.811H632.812V205.095H717.188V167.811H698.438V130.527H716.269C753.659 130.527 774.592 122.231 787.569 102.27C795.102 90.6821 799.191 73.9664 798.025 59.5296C795.903 33.2396 772.775 10.2165 743.072 4.82276C737.651 3.83784 712.814 3.13879 683.258 3.13879H632.714L633.594 39.6462ZM878.455 5.82169C877.694 7.33636 865.18 44.4015 850.645 88.1871L824.219 167.8L809.375 167.811V205.095H885.938V167.811H875.781C870.195 167.811 865.625 167.388 865.625 166.872C865.625 166.357 867.466 160.065 869.716 152.891L873.806 139.848H935.837L939.794 152.745C941.97 159.837 943.75 166.094 943.75 166.649C943.75 167.202 939.708 167.865 934.766 168.121L925.781 168.587L924.902 205.095H1001.56V167.811H993.75C988.539 167.811 985.939 167.164 985.944 165.869C985.947 164.802 977.45 138.061 967.062 106.447C956.675 74.8332 944.848 38.8306 940.783 26.4414L933.389 3.91554L906.612 3.49144C882.287 3.10461 879.709 3.31743 878.455 5.82169ZM1215.62 65.2792H1259.38V38.8695H1282.81V167.663L1263.28 168.587L1262.4 205.095H1350.1L1349.22 168.587L1328.12 167.669V38.8695H1356.25V65.2792H1400V3.13879H1215.62V65.2792ZM737.109 45.0261C749.497 51.9967 753.964 70.9867 745.83 82.0943C740.008 90.0452 730.8 93.2423 713.731 93.2423H698.438V40.0703L714.453 40.6793C727.773 41.1873 731.586 41.9175 737.109 45.0261ZM96.875 44.2571C96.875 44.6563 101.094 58.3675 106.25 74.7276C111.406 91.0876 115.625 104.743 115.625 105.072C115.625 106.225 76.5625 105.66 76.5016 104.505C76.3469 101.569 94.5812 43.53 95.6578 43.53C96.3281 43.53 96.875 43.8563 96.875 44.2571ZM913.937 70.3281C918.542 85.0662 922.645 99.0478 923.052 101.398L923.792 105.67H903.917C885.763 105.67 884.13 105.439 885.072 102.998C885.639 101.53 890.045 87.5488 894.866 71.9282C899.686 56.3092 904.064 43.53 904.595 43.53C905.127 43.53 909.331 55.5899 913.937 70.3281Z" fill="#343434"/>
</svg>
