<svg width="1175" height="38" viewBox="0 0 1175 38" fill="none" xmlns="http://www.w3.org/2000/svg">
<path d="M5.07891 37.0771H0.46243L13.8147 0.713511H18.3602L31.7124 37.0771H27.096L16.2295 6.46635H15.9454L5.07891 37.0771ZM6.78345 22.8726H25.3914V26.7789H6.78345V22.8726ZM95.5255 12.0771C95.1348 10.8816 94.6199 9.81034 93.9807 8.86337C93.3534 7.90456 92.6017 7.0878 91.7257 6.41309C90.8616 5.73837 89.8792 5.22345 88.7783 4.86834C87.6775 4.51323 86.4701 4.33567 85.1561 4.33567C83.0018 4.33567 81.0427 4.89202 79.279 6.0047C77.5153 7.11739 76.1126 8.75684 75.0709 10.923C74.0293 13.0892 73.5084 15.7467 73.5084 18.8953C73.5084 22.044 74.0352 24.7014 75.0887 26.8676C76.1422 29.0338 77.5686 30.6733 79.3678 31.786C81.167 32.8986 83.1912 33.455 85.4402 33.455C87.5236 33.455 89.3583 33.0111 90.9445 32.1233C92.5425 31.2237 93.7854 29.9571 94.6732 28.3236C95.5728 26.6782 96.0226 24.7429 96.0226 22.5175L97.3721 22.8016H86.4346V18.8953H100.284V22.8016C100.284 25.7964 99.6448 28.4005 98.3664 30.6141C97.0998 32.8276 95.3479 34.544 93.1107 35.7632C90.8853 36.9706 88.3285 37.5743 85.4402 37.5743C82.2205 37.5743 79.3915 36.8167 76.953 35.3016C74.5264 33.7864 72.6325 31.6321 71.2712 28.8385C69.9218 26.045 69.2471 22.7306 69.2471 18.8953C69.2471 16.0189 69.6318 13.4325 70.4012 11.1361C71.1824 8.82786 72.2833 6.8629 73.7037 5.24121C75.1242 3.61953 76.8051 2.37663 78.7463 1.51252C80.6876 0.648407 82.8242 0.216352 85.1561 0.216352C87.0738 0.216352 88.8612 0.506361 90.5184 1.08638C92.1874 1.65456 93.673 2.4654 94.975 3.51891C96.289 4.56057 97.3839 5.80939 98.2598 7.26536C99.1358 8.70949 99.7395 10.3134 100.071 12.0771H95.5255ZM142.826 37.0771V0.713511H164.772V4.61976H147.229V16.9067H163.635V20.8129H147.229V33.1709H165.056V37.0771H142.826ZM287.453 18.8953C287.453 22.7306 286.76 26.045 285.375 28.8385C283.99 31.6321 282.091 33.7864 279.676 35.3016C277.261 36.8167 274.503 37.5743 271.402 37.5743C268.3 37.5743 265.542 36.8167 263.128 35.3016C260.713 33.7864 258.813 31.6321 257.428 28.8385C256.043 26.045 255.351 22.7306 255.351 18.8953C255.351 15.0601 256.043 11.7457 257.428 8.95215C258.813 6.15859 260.713 4.00423 263.128 2.48908C265.542 0.973928 268.3 0.216352 271.402 0.216352C274.503 0.216352 277.261 0.973928 279.676 2.48908C282.091 4.00423 283.99 6.15859 285.375 8.95215C286.76 11.7457 287.453 15.0601 287.453 18.8953ZM283.191 18.8953C283.191 15.7467 282.665 13.0892 281.611 10.923C280.57 8.75684 279.155 7.11739 277.368 6.0047C275.592 4.89202 273.603 4.33567 271.402 4.33567C269.2 4.33567 267.205 4.89202 265.418 6.0047C263.642 7.11739 262.228 8.75684 261.174 10.923C260.133 13.0892 259.612 15.7467 259.612 18.8953C259.612 22.044 260.133 24.7014 261.174 26.8676C262.228 29.0338 263.642 30.6733 265.418 31.786C267.205 32.8986 269.2 33.455 271.402 33.455C273.603 33.455 275.592 32.8986 277.368 31.786C279.155 30.6733 280.57 29.0338 281.611 26.8676C282.665 24.7014 283.191 22.044 283.191 18.8953ZM329.857 37.0771V0.713511H351.661V4.61976H334.26V16.9067H350.027V20.8129H334.26V37.0771H329.857ZM473.947 18.8953C473.947 22.7306 473.255 26.045 471.87 28.8385C470.485 31.6321 468.585 33.7864 466.17 35.3016C463.755 36.8167 460.997 37.5743 457.896 37.5743C454.795 37.5743 452.036 36.8167 449.622 35.3016C447.207 33.7864 445.307 31.6321 443.922 28.8385C442.537 26.045 441.845 22.7306 441.845 18.8953C441.845 15.0601 442.537 11.7457 443.922 8.95215C445.307 6.15859 447.207 4.00423 449.622 2.48908C452.036 0.973928 454.795 0.216352 457.896 0.216352C460.997 0.216352 463.755 0.973928 466.17 2.48908C468.585 4.00423 470.485 6.15859 471.87 8.95215C473.255 11.7457 473.947 15.0601 473.947 18.8953ZM469.686 18.8953C469.686 15.7467 469.159 13.0892 468.105 10.923C467.064 8.75684 465.649 7.11739 463.862 6.0047C462.086 4.89202 460.098 4.33567 457.896 4.33567C455.694 4.33567 453.7 4.89202 451.912 6.0047C450.137 7.11739 448.722 8.75684 447.669 10.923C446.627 13.0892 446.106 15.7467 446.106 18.8953C446.106 22.044 446.627 24.7014 447.669 26.8676C448.722 29.0338 450.137 30.6733 451.912 31.786C453.7 32.8986 455.694 33.455 457.896 33.455C460.098 33.455 462.086 32.8986 463.862 31.786C465.649 30.6733 467.064 29.0338 468.105 26.8676C469.159 24.7014 469.686 22.044 469.686 18.8953ZM516.351 37.0771V0.713511H528.638C531.491 0.713511 533.823 1.22843 535.634 2.25825C537.457 3.27625 538.806 4.65527 539.682 6.39533C540.558 8.13539 540.996 10.0767 540.996 12.2192C540.996 14.3617 540.558 16.3089 539.682 18.0608C538.818 19.8127 537.48 21.2095 535.669 22.2512C533.858 23.281 531.538 23.7959 528.709 23.7959H519.902V19.8896H528.567C530.52 19.8896 532.089 19.5523 533.272 18.8776C534.456 18.2029 535.314 17.2914 535.847 16.1432C536.391 14.9832 536.664 13.6752 536.664 12.2192C536.664 10.7632 536.391 9.46114 535.847 8.31294C535.314 7.16474 534.45 6.26512 533.255 5.61408C532.059 4.9512 530.473 4.61976 528.496 4.61976H520.755V37.0771H516.351ZM581.101 4.61976V0.713511H608.373V4.61976H596.939V37.0771H592.535V4.61976H581.101ZM654.573 0.713511V37.0771H650.169V0.713511H654.573ZM698.402 0.713511H703.658L716.016 30.8982H716.442L728.8 0.713511H734.055V37.0771H729.936V9.44931H729.581L718.217 37.0771H714.24L702.876 9.44931H702.521V37.0771H698.402V0.713511ZM782.288 0.713511V37.0771H777.884V0.713511H782.288ZM824.909 37.0771V33.8811L844.512 4.61976H824.696V0.713511H849.767V3.90953L830.165 33.1709H849.98V37.0771H824.909ZM893.858 37.0771H889.242L902.594 0.713511H907.139L920.492 37.0771H915.875L905.009 6.46635H904.725L893.858 37.0771ZM895.563 22.8726H914.171V26.7789H895.563V22.8726ZM954.919 4.61976V0.713511H982.192V4.61976H970.757V37.0771H966.354V4.61976H954.919ZM1028.39 0.713511V37.0771H1023.99V0.713511H1028.39ZM1102.9 18.8953C1102.9 22.7306 1102.21 26.045 1100.82 28.8385C1099.44 31.6321 1097.54 33.7864 1095.13 35.3016C1092.71 36.8167 1089.95 37.5743 1086.85 37.5743C1083.75 37.5743 1080.99 36.8167 1078.58 35.3016C1076.16 33.7864 1074.26 31.6321 1072.88 28.8385C1071.49 26.045 1070.8 22.7306 1070.8 18.8953C1070.8 15.0601 1071.49 11.7457 1072.88 8.95215C1074.26 6.15859 1076.16 4.00423 1078.58 2.48908C1080.99 0.973928 1083.75 0.216352 1086.85 0.216352C1089.95 0.216352 1092.71 0.973928 1095.13 2.48908C1097.54 4.00423 1099.44 6.15859 1100.82 8.95215C1102.21 11.7457 1102.9 15.0601 1102.9 18.8953ZM1098.64 18.8953C1098.64 15.7467 1098.11 13.0892 1097.06 10.923C1096.02 8.75684 1094.6 7.11739 1092.82 6.0047C1091.04 4.89202 1089.05 4.33567 1086.85 4.33567C1084.65 4.33567 1082.65 4.89202 1080.87 6.0047C1079.09 7.11739 1077.68 8.75684 1076.62 10.923C1075.58 13.0892 1075.06 15.7467 1075.06 18.8953C1075.06 22.044 1075.58 24.7014 1076.62 26.8676C1077.68 29.0338 1079.09 30.6733 1080.87 31.786C1082.65 32.8986 1084.65 33.455 1086.85 33.455C1089.05 33.455 1091.04 32.8986 1092.82 31.786C1094.6 30.6733 1096.02 29.0338 1097.06 26.8676C1098.11 24.7014 1098.64 22.044 1098.64 18.8953ZM1174.14 0.713511V37.0771H1169.88L1150.06 8.52601H1149.71V37.0771H1145.31V0.713511H1149.57L1169.45 29.3357H1169.81V0.713511H1174.14Z" fill="#343434"/>
</svg>
