<svg width="23" height="15" xmlns="http://www.w3.org/2000/svg" xmlns:xlink="http://www.w3.org/1999/xlink" xml:space="preserve" overflow="hidden"><defs><clipPath id="clip0"><rect x="38" y="337" width="23" height="15"/></clipPath></defs><g clip-path="url(#clip0)" transform="translate(-38 -337)"><path d="M19.2643 14.8898 1.91229 14.8898C0.918756 14.8898 0.110295 14.0813 0.110295 13.0878L0.110295 1.802C0.110295 0.808461 0.918756 7.83691e-16 1.91229 7.83691e-16L19.2641 7.83691e-16C20.2576 7.83691e-16 21.0663 0.808461 21.0663 1.802L21.0663 13.0876C21.0663 14.0813 20.2576 14.8898 19.2643 14.8898ZM1.91229 1.10295C1.52692 1.10295 1.21324 1.41663 1.21324 1.802L1.21324 13.0876C1.21324 13.4732 1.52692 13.7866 1.91229 13.7866L19.2641 13.7866C19.6497 13.7866 19.9634 13.473 19.9634 13.0876L19.9634 1.802C19.9634 1.41663 19.6499 1.10295 19.2643 1.10295L1.91229 1.10295Z" fill="#FFFFFF" transform="matrix(-1.04791 0 0 1 61 337)"/><path d="M10.0909 9.97771C9.60404 9.97771 9.11763 9.7997 8.75697 9.44742L0.276399 1.1667 1.04692 0.37765 9.52727 8.65815C9.8147 8.93852 10.3132 8.95263 10.6159 8.68837L20.152 0.356694 20.8775 1.18743 11.3416 9.51911C10.9904 9.82573 10.5404 9.97771 10.0909 9.97771Z" fill="#FFFFFF" transform="matrix(-1.04791 0 0 1 61 337)"/><path d="M3.31464 5.47662 4.4381 5.47662 4.4381 15.5311 3.31464 15.5311Z" fill="#FFFFFF" transform="matrix(0.793084 -0.625274 -0.655228 -0.756828 60.8207 357.686)"/><path d="M12.3436 9.9545 22.4102 9.9545 22.4102 11.0792 12.3436 11.0792Z" fill="#FFFFFF" transform="matrix(0.654489 -0.756072 -0.792292 -0.624568 40.1027 367.02)"/><path d="M20.956 28.3237 20.956 17.0383C20.956 16.0444 20.1473 15.2361 19.1538 15.2361L1.802 15.2361C1.50486 15.2361 1.22493 15.3098 0.977433 15.4378L0.976551 15.4364 0.971698 15.4406C0.746476 15.5582 0.549268 15.7217 0.392209 15.9193L0.126398 16.1388 0.196766 16.2239C0.0719123 16.4675 -5.14298e-16 16.7436 -5.14298e-16 17.037L-5.14298e-16 28.3224C-5.14298e-16 28.6189 0.0732358 28.8977 0.200516 29.145L0.166104 29.1785 0.299561 29.3151C0.425076 29.5045 0.585886 29.6689 0.772064 29.7988L0.936624 29.9678 0.980742 29.9248C1.22736 30.0514 1.50619 30.1246 1.802 30.1246L19.1538 30.1246C19.4481 30.1246 19.7251 30.0523 19.9706 29.9267L20.0412 29.9885 20.2506 29.7489C20.439 29.6038 20.5976 29.4227 20.7165 29.2151L20.767 29.1578 20.7537 29.1463C20.8826 28.8992 20.956 28.6191 20.956 28.3235ZM19.8495 28.3568 14.3644 23.5634 19.8425 16.932C19.8476 16.9667 19.8531 17.0009 19.8531 17.037L19.8531 28.3224C19.8531 28.3334 19.85 28.3467 19.8495 28.3577ZM1.90567 29.0208 9.4172 21.6862C9.70462 21.4054 10.2032 21.3915 10.5056 21.656L18.9352 29.0208 1.90567 29.0208ZM1.10295 17.3198 6.10725 23.3774 1.10295 28.2635 1.10295 17.3192ZM1.802 16.3378 18.9026 16.3378 13.5334 22.8374 11.2311 20.8263C10.8801 20.5195 10.4301 20.3677 9.98036 20.3677 9.49374 20.3677 9.00734 20.5459 8.64645 20.8978L6.89894 22.6043 1.72832 16.3457C1.75303 16.3428 1.77685 16.3382 1.802 16.3382Z" fill="#FFFFFF" fill-opacity="0.4" transform="matrix(-1.04791 0 0 1 61 337)"/></g></svg>