<svg width="23" height="23" xmlns="http://www.w3.org/2000/svg" xmlns:xlink="http://www.w3.org/1999/xlink" xml:space="preserve" overflow="hidden"><defs><clipPath id="clip0"><rect x="38" y="273" width="23" height="23"/></clipPath></defs><g clip-path="url(#clip0)" transform="translate(-38 -273)"><path d="M47.5446 281.879C45.3952 283.12 48.6747 289.268 51.0267 287.91 51.4444 288.634 52.7897 290.964 53.2074 291.688 52.2151 292.26 51.3751 292.622 50.2246 291.964 47.0302 290.138 43.5139 284.05 43.6141 280.419 43.6488 279.157 44.3919 278.663 45.3639 278.102 45.7816 278.825 47.127 281.156 47.5446 281.879L47.5446 281.879Z" fill="#FFFFFF"/><path d="M48.4459 281.777C48.2137 281.911 47.9148 281.831 47.7807 281.598L45.7249 278.038C45.5908 277.805 45.6708 277.506 45.9031 277.372L46.9836 276.749C47.2159 276.614 47.5148 276.694 47.6489 276.927L49.7047 280.488C49.8388 280.72 49.7587 281.019 49.5265 281.153L48.4459 281.777Z" fill="#FFFFFF"/><path d="M54.0624 291.504C53.8301 291.638 53.5313 291.558 53.3972 291.326L51.3413 287.765C51.2072 287.533 51.2873 287.234 51.5195 287.1L52.6 286.476C52.8323 286.342 53.1312 286.422 53.2653 286.655L55.3211 290.215C55.4552 290.448 55.3751 290.746 55.1429 290.88L54.0624 291.504Z" fill="#FFFFFF"/><path d="M49.5 273 49.5002 273 49.5002 273.003C52.677 273.003 55.5519 274.289 57.6312 276.369 59.7106 278.448 60.997 281.323 60.9971 284.5L60.9998 284.5 60.9998 284.5 60.9971 284.5C60.9971 287.677 59.7106 290.552 57.6311 292.631 55.5516 294.711 52.6768 295.997 49.5 295.997L49.5 296 49.4995 296 49.4995 295.997C46.3227 295.997 43.4478 294.711 41.3685 292.631 39.2891 290.552 38.0026 287.677 38.0026 284.5L37.9999 284.5 37.9999 284.5 38.0026 284.5C38.0026 281.323 39.2891 278.448 41.3686 276.369 43.4481 274.289 46.3228 273.003 49.4996 273.003L49.4996 273 49.5 273ZM49.5002 274.372 49.5002 274.374 49.4996 274.374 49.4996 274.372C46.7059 274.372 44.1744 275.506 42.3406 277.34 40.5064 279.174 39.3718 281.706 39.3718 284.5L39.3745 284.5 39.3745 284.5 39.3718 284.5C39.3719 287.294 40.5065 289.826 42.3405 291.659 44.1745 293.493 46.7063 294.628 49.4999 294.628L49.4999 294.625 49.5004 294.625 49.5004 294.628C52.2941 294.628 54.8256 293.493 56.6595 291.659 58.4936 289.825 59.6283 287.294 59.6283 284.5L59.6256 284.5 59.6256 284.499 59.6283 284.499C59.6282 281.706 58.4936 279.174 56.6596 277.34 54.8255 275.506 52.2938 274.372 49.5002 274.372Z" fill="#FFFFFF"/></g></svg>